<svg width="24" height="24" viewBox="0 0 24 24" fill="none" xmlns="http://www.w3.org/2000/svg">
<path fill-rule="evenodd" clip-rule="evenodd" d="M5.25 8C5.25 4.27208 8.27208 1.25 12 1.25C15.7279 1.25 18.75 4.27208 18.75 8C18.75 8.06385 18.75 8.09578 18.7446 8.12394C18.7154 8.27516 18.574 8.38066 18.4208 8.36566C18.3922 8.36287 18.3541 8.35157 18.278 8.32899C17.556 8.11492 16.7914 8 16 8C12.6711 8 9.81706 10.0333 8.61206 12.9256C8.46403 13.281 8.39001 13.4586 8.24327 13.4949C8.09654 13.5312 7.96484 13.4223 7.70145 13.2046L7.70144 13.2046C6.20411 11.9665 5.25 10.0947 5.25 8ZM9.25 16C9.25 12.2721 12.2721 9.25 16 9.25C19.7279 9.25 22.75 12.2721 22.75 16C22.75 19.7279 19.7279 22.75 16 22.75C12.2721 22.75 9.25 19.7279 9.25 16ZM8.02538 15.358C8.00857 15.5698 8 15.7839 8 16C8 18.118 8.82313 20.0439 10.167 21.475L10.167 21.475C10.472 21.7999 10.6246 21.9624 10.5817 22.1234C10.5387 22.2845 10.3498 22.3421 9.97199 22.4574C9.34819 22.6476 8.68605 22.75 8 22.75C4.27208 22.75 1.25 19.7279 1.25 16C1.25 13.9052 2.20418 12.0334 3.70161 10.7953C3.965 10.5775 4.0967 10.4686 4.24343 10.5049C4.39016 10.5412 4.46416 10.7188 4.61215 11.0741C5.2393 12.5793 6.3127 13.8514 7.66512 14.7247L7.7468 14.7774C7.89871 14.8755 7.97467 14.9246 8.01134 14.9988C8.04802 15.073 8.04047 15.168 8.02538 15.358Z" fill="#141B34"/>
</svg>
