<svg width="24" height="24" viewBox="0 0 24 24" fill="none" xmlns="http://www.w3.org/2000/svg">
<circle cx="15.5" cy="12.166" r="3.5" fill="#141B34"/>
<path d="M8.33334 1.99915H15.667C17.508 1.99915 19.0003 3.49153 19.0003 5.33248C19.0003 7.17343 17.508 8.66581 15.667 8.66581L12.0002 8.66598V15.3326L12.0002 18.3331C12.0002 20.3583 10.3585 22 8.33333 22C6.49238 22 5 20.5076 5 18.6666C5 16.8257 6.49238 15.3326 8.33333 15.3326C6.49238 15.3326 5 13.8403 5 11.9993C5 10.1584 6.49238 8.66581 8.33333 8.66581C6.49238 8.66581 5 7.17343 5 5.33248C5 3.49153 6.49239 1.99915 8.33334 1.99915Z" fill="#141B34"/>
</svg>
