<svg width="24" height="24" viewBox="0 0 24 24" fill="none" xmlns="http://www.w3.org/2000/svg">
<path fill-rule="evenodd" clip-rule="evenodd" d="M18.0079 13.8112C17.4873 13.75 16.8317 13.75 16.0457 13.75H15.4543C14.6683 13.75 14.0127 13.75 13.4922 13.8112C12.9491 13.8751 12.4394 14.0159 12.0187 14.3841C11.5836 14.7648 11.4027 15.2484 11.3228 15.7684C11.2499 16.2427 11.25 16.8329 11.25 17.5077V18.4923C11.25 19.1672 11.2499 19.7573 11.3228 20.2316C11.4027 20.7516 11.5836 21.2352 12.0187 21.6159C12.4394 21.9841 12.9491 22.1249 13.4922 22.1888C14.0127 22.25 14.6683 22.25 15.4543 22.25H16.0457C16.8317 22.25 17.4873 22.25 18.0079 22.1888C18.5509 22.1249 19.0606 21.9841 19.4813 21.6159C19.7899 21.346 19.9706 21.0243 20.0781 20.6746C20.211 20.7601 20.3369 20.8356 20.4557 20.8984C20.8266 21.0944 21.3357 21.2817 21.8733 21.0485C22.4417 20.8019 22.6202 20.275 22.6873 19.8603C22.7502 19.4711 22.7501 18.9615 22.75 18.4018V17.5982C22.7501 17.0385 22.7502 16.5289 22.6873 16.1397C22.6202 15.725 22.4417 15.1981 21.8733 14.9515C21.3357 14.7183 20.8266 14.9056 20.4557 15.1016C20.3369 15.1644 20.211 15.2399 20.0781 15.3254C19.9706 14.9757 19.7899 14.654 19.4813 14.3841C19.0606 14.0159 18.5509 13.8751 18.0079 13.8112ZM21.2099 19.5995C20.9912 19.4839 20.6585 19.2633 20.249 18.9692C20.2501 18.8156 20.25 18.6566 20.25 18.4925V17.5078C20.25 17.3438 20.2501 17.1847 20.249 17.0311C20.6585 16.7371 20.9912 16.5165 21.2099 16.4009C21.2478 16.6554 21.25 17.0364 21.25 17.6581V18.3423C21.25 18.9639 21.2478 19.3449 21.2099 19.5995Z" fill="#141B34"/>
<path d="M9.4626 1.98893C8.82373 1.74927 8.11205 1.74958 7.08264 1.75004C6.2039 1.75003 5.32205 1.75006 4.7497 1.80054C4.15996 1.85254 3.64388 1.96254 3.17258 2.22566C2.56533 2.56466 2.06428 3.06591 1.7254 3.67339C1.46238 4.14487 1.35242 4.66114 1.30044 5.25111C1.24998 5.82367 1.24999 6.53267 1.25 7.41174V10.5608C1.24999 12.8701 1.24998 14.6798 1.43975 16.0918C1.63399 17.5371 2.03933 18.6776 2.93414 19.5727C3.82895 20.4679 4.96897 20.8734 6.41371 21.0677C7.1962 21.1729 8.10088 21.2198 9.14508 21.2407C9.43 21.2464 9.57245 21.2493 9.66248 21.1609C9.75251 21.0725 9.75231 20.9291 9.75193 20.6422C9.74999 19.1984 9.75 17.6434 9.75002 17.4417C9.74983 16.825 9.74962 16.1355 9.84021 15.5457C9.95153 14.8209 10.2373 13.9542 11.031 13.2595C11.7807 12.6032 12.6411 12.4049 13.3169 12.3254C13.9274 12.2535 15.3679 12.2538 16.1127 12.2539C16.8435 12.2538 17.574 12.2537 18.1831 12.3254C18.7916 12.397 19.6654 12.6718 20.3806 13.2048C20.5038 13.2966 20.5653 13.3425 20.6221 13.3572C20.6789 13.372 20.7541 13.362 20.9045 13.342C21.124 13.3129 21.3621 13.2996 21.6033 13.3186C22.2385 13.3686 22.5561 13.3936 22.6524 13.3046C22.7487 13.2157 22.749 12.98 22.7497 12.5086C22.75 12.2784 22.75 12.0411 22.75 11.7962C22.75 10.7768 22.75 9.87198 22.683 9.2124C22.6137 8.53158 22.4669 7.94115 22.118 7.41885C21.8444 7.00923 21.4929 6.65753 21.0834 6.38383C20.5613 6.03484 19.9711 5.88793 19.2905 5.81868C18.6312 5.75158 17.8095 5.75159 16.7905 5.7516L13.2361 5.7516C12.92 5.7516 12.7396 5.75068 12.6064 5.7369C12.5044 5.72976 12.4348 5.65411 12.4128 5.61718C12.3409 5.5042 12.0838 4.9904 11.9425 4.70756C11.4704 3.75205 10.8581 2.51242 9.4626 1.98893Z" fill="#141B34"/>
</svg>
