<svg width="24" height="24" viewBox="0 0 24 24" fill="none" xmlns="http://www.w3.org/2000/svg">
<path d="M15.2499 14.4378C15.2499 12.9312 16.5036 11.75 17.9999 11.75C19.4961 11.75 20.7499 12.9312 20.7499 14.4378C20.7499 15.9444 19.4961 17.1256 17.9999 17.1256C16.5036 17.1256 15.2499 15.9444 15.2499 14.4378Z" fill="#141B34"/>
<path d="M15.088 18.3858C16.7792 17.5077 19.2205 17.5077 20.9117 18.3858C21.2211 18.5373 21.7708 18.8065 22.1457 19.1265C22.3721 19.3198 22.6817 19.6483 22.7404 20.1162C22.8072 20.6492 22.5242 21.0774 22.1624 21.378C21.5949 21.8494 20.884 22.25 19.9595 22.25H16.0402C15.1157 22.25 14.4048 21.8494 13.8373 21.378C13.4755 21.0774 13.1925 20.6492 13.2593 20.1162C13.318 19.6483 13.6276 19.3198 13.854 19.1265C14.229 18.8065 14.7786 18.5373 15.088 18.3858Z" fill="#141B34"/>
<path d="M9.46241 1.98884C8.82355 1.74927 8.11186 1.74958 7.08245 1.75004C6.20372 1.75003 5.32186 1.75006 4.74951 1.80052C4.15978 1.8525 3.6437 1.96246 3.1724 2.22548C2.56515 2.56435 2.06409 3.06541 1.72521 3.67266C1.4622 4.14396 1.35224 4.66004 1.30025 5.24978C1.2498 5.82212 1.24981 6.53085 1.24982 7.40958V10.5575C1.2498 12.8658 1.24979 14.6749 1.43956 16.0864C1.6338 17.5311 2.03914 18.6711 2.93395 19.5659C3.82876 20.4608 4.96879 20.8661 6.41352 21.0603C7.63848 21.225 9.16285 21.2468 11.0532 21.2496C11.4191 21.2502 11.6021 21.2505 11.6908 21.1581C11.7795 21.0657 11.7701 20.842 11.7512 20.3948C11.745 20.2458 11.7508 20.0907 11.771 19.9297C11.9007 18.895 12.5672 18.2528 12.8802 17.9856C13.1746 17.7344 13.5887 17.4848 13.9473 17.2888C14.2385 17.1296 14.3842 17.05 14.4199 16.9332C14.4557 16.8163 14.3728 16.6559 14.2071 16.3351C13.9159 15.7712 13.7499 15.1288 13.7499 14.4378C13.7499 12.0548 15.724 10.25 17.9999 10.25C20.1979 10.25 22.1144 11.9334 22.243 14.1952C22.2506 14.329 22.3585 14.4378 22.4924 14.4378C22.6237 14.4378 22.7313 14.3334 22.7341 14.2021C22.7498 13.4915 22.7498 12.6928 22.7498 11.7923C22.7498 10.7733 22.7498 9.86889 22.6828 9.20956C22.6135 8.529 22.4667 7.9388 22.1178 7.41669C21.8442 7.00723 21.4927 6.65566 21.0832 6.38207C20.5611 6.03321 19.9709 5.88636 19.2903 5.81713C18.631 5.75006 17.8093 5.75007 16.7903 5.75008L13.2359 5.75008C12.9198 5.75008 12.7394 5.74915 12.6062 5.73539C12.5042 5.72825 12.4346 5.65263 12.4126 5.61571C12.3407 5.50277 12.0836 4.98916 11.9423 4.70644C11.4703 3.75129 10.8579 2.51213 9.46241 1.98884Z" fill="#141B34"/>
</svg>
