<svg width="24" height="24" viewBox="0 0 24 24" fill="none" xmlns="http://www.w3.org/2000/svg">
<path fill-rule="evenodd" clip-rule="evenodd" d="M17.3036 14.375C15.9623 14.375 14.875 15.4623 14.875 16.8036C14.875 18.1448 15.9623 19.2321 17.3036 19.2321C17.9745 19.2321 18.5803 18.9614 19.0208 18.5208C19.1022 18.4395 19.1778 18.3524 19.2469 18.2604C19.5519 17.8545 19.7321 17.3516 19.7321 16.8036C19.7321 15.4623 18.6448 14.375 17.3036 14.375ZM12.875 16.8036C12.875 14.3577 14.8577 12.375 17.3036 12.375C19.7494 12.375 21.7321 14.3577 21.7321 16.8036C21.7321 17.6631 21.4864 18.4673 21.0616 19.1474L22.5821 20.6679C22.9726 21.0584 22.9726 21.6916 22.5821 22.0821C22.1916 22.4726 21.5584 22.4726 21.1679 22.0821L19.6474 20.5616C18.9677 20.9862 18.1639 21.2321 17.3036 21.2321C14.8577 21.2321 12.875 19.2494 12.875 16.8036Z" fill="#141B34"/>
<path d="M9.3376 1.86384C8.69873 1.62427 7.98705 1.62458 6.95764 1.62504C6.0789 1.62503 5.19705 1.62506 4.6247 1.67552C4.03496 1.7275 3.51888 1.83746 3.04758 2.10048C2.44033 2.43935 1.93928 2.94041 1.6004 3.54766C1.33738 4.01896 1.22742 4.53504 1.17544 5.12478C1.12498 5.69712 1.12499 6.40585 1.125 7.28458V10.4325C1.12499 12.7408 1.12498 14.5499 1.31475 15.9614C1.50899 17.4061 1.91433 18.5461 2.80914 19.4409C3.70395 20.3358 4.84397 20.7411 6.28871 20.9353C7.70019 21.1251 9.50923 21.1251 11.8176 21.1251C12.3677 21.1251 12.6427 21.1251 12.7325 20.9997C12.7486 20.9772 12.7578 20.9601 12.7679 20.9343C12.8241 20.7907 12.6597 20.5382 12.331 20.0331C11.7263 19.104 11.375 17.9948 11.375 16.8036C11.375 13.5293 14.0293 10.875 17.3036 10.875C18.7606 10.875 20.0948 11.4006 21.127 12.2725C21.8941 12.9204 22.2777 13.2444 22.4513 13.1638C22.625 13.0832 22.625 12.6365 22.625 11.7432C22.625 11.718 22.625 11.6927 22.625 11.6673C22.625 10.6483 22.625 9.74389 22.558 9.08456C22.4887 8.404 22.3419 7.8138 21.993 7.29169C21.7194 6.88223 21.3679 6.53066 20.9584 6.25707C20.4363 5.90821 19.8461 5.76136 19.1655 5.69213C18.5062 5.62506 17.6845 5.62507 16.6655 5.62508L13.1111 5.62508C12.795 5.62508 12.6146 5.62415 12.4814 5.61039C12.3794 5.60325 12.3098 5.52763 12.2878 5.49071C12.2159 5.37777 11.9588 4.86416 11.8175 4.58144C11.3454 3.62629 10.7331 2.38713 9.3376 1.86384Z" fill="#141B34"/>
</svg>
