<svg width="24" height="24" viewBox="0 0 24 24" fill="none" xmlns="http://www.w3.org/2000/svg">
<path d="M9.46278 2.48884C8.82391 2.24927 8.11223 2.24958 7.08282 2.25004C6.20408 2.25003 5.32223 2.25006 4.74988 2.30052C4.16014 2.3525 3.64407 2.46246 3.17276 2.72548C2.56552 3.06435 2.06446 3.56541 1.72558 4.17266C1.46257 4.64396 1.35261 5.16004 1.30062 5.74978C1.25017 6.32212 1.25018 7.03085 1.25018 7.90958V11.0575C1.25017 13.3658 1.25016 15.1749 1.43993 16.5864C1.63417 18.0311 2.03951 19.1711 2.93432 20.0659C3.82913 20.9608 4.96915 21.3661 6.41389 21.5603C7.82538 21.7501 9.63441 21.7501 11.9428 21.7501H13.2924C15.0122 21.7501 16.3604 21.7501 17.4338 21.6409C18.5285 21.5295 19.4204 21.2984 20.1947 20.781C20.8226 20.3615 21.3616 19.8225 21.7811 19.1946C22.2985 18.4203 22.5296 17.5284 22.641 16.4337C22.7502 15.3603 22.7502 14.0121 22.7502 12.2923C22.7502 11.2733 22.7502 10.3689 22.6831 9.70956C22.6139 9.029 22.4671 8.4388 22.1182 7.91669C21.8446 7.50723 21.493 7.15566 21.0836 6.88207C20.5615 6.53321 19.9713 6.38636 19.2907 6.31713C18.6314 6.25006 17.8097 6.25007 16.7907 6.25008H16.6002C16.3173 6.25008 16.1759 6.25008 16.0881 6.33795C16.0002 6.42581 16.0002 6.56724 16.0002 6.85008V9.5C16.0002 9.68692 16.0002 9.78038 16.0404 9.85C16.0667 9.89561 16.1046 9.93348 16.1502 9.95981C16.2198 10 16.3133 10 16.5002 10C17.0525 10 17.5002 10.4477 17.5002 11C17.5002 11.5523 17.0525 12 16.5002 12C16.3133 12 16.2198 12 16.1502 12.0402C16.1046 12.0665 16.0667 12.1044 16.0404 12.15C16.0002 12.2196 16.0002 12.3131 16.0002 12.5V13.5C16.0002 13.6869 16.0002 13.7804 16.0404 13.85C16.0667 13.8956 16.1046 13.9335 16.1502 13.9598C16.2198 14 16.3133 14 16.5002 14C17.0525 14 17.5002 14.4477 17.5002 15C17.5002 15.5523 17.0525 16 16.5002 16H13.5002C12.9479 16 12.5002 15.5523 12.5002 15C12.5002 14.4477 12.9479 14 13.5002 14C13.6871 14 13.7806 14 13.8502 13.9598C13.8958 13.9335 13.9337 13.8956 13.96 13.85C14.0002 13.7804 14.0002 13.6869 14.0002 13.5V12.5C14.0002 12.3131 14.0002 12.2196 13.96 12.15C13.9337 12.1044 13.8958 12.0665 13.8502 12.0402C13.7806 12 13.6871 12 13.5002 12C12.9479 12 12.5002 11.5523 12.5002 11C12.5002 10.4477 12.9479 10 13.5002 10C13.6871 10 13.7806 10 13.8502 9.95981C13.8958 9.93348 13.9337 9.89561 13.96 9.85C14.0002 9.78038 14.0002 9.68692 14.0002 9.5V7.64374C14.0002 7.26719 14.0002 7.07892 13.9498 6.92632C13.8517 6.62885 13.6199 6.39454 13.3234 6.29328C13.1714 6.24134 12.9831 6.23936 12.6066 6.23539C12.5046 6.22825 12.435 6.15263 12.4129 6.11571C12.3411 6.00277 12.084 5.48916 11.9426 5.20644C11.4706 4.25129 10.8582 3.01213 9.46278 2.48884Z" fill="#141B34"/>
</svg>
