<svg width="24" height="24" viewBox="0 0 24 24" fill="none" xmlns="http://www.w3.org/2000/svg">
<path d="M7.785 3.30836C7.6039 3.224 7.38178 3.20266 6.32595 3.20266C5.55108 3.20266 5.04842 3.20402 4.66633 3.24586C4.30655 3.28526 4.15503 3.35212 4.05577 3.42092C3.81547 3.58752 3.5906 3.85344 3.42965 4.21173C3.33971 4.41195 3.27289 4.69081 3.23698 5.19683C3.20057 5.70988 3.2 6.37116 3.2 7.3211V10.4697C3.2 12.9208 3.20135 14.6797 3.34616 16.0178C3.48985 17.3455 3.76288 18.1107 4.19883 18.6523C4.61031 19.1635 5.15176 19.4591 6.1292 19.6223C7.15995 19.7945 8.5304 19.7976 10.5193 19.7976H11.5561C12.0946 19.7976 12.5311 20.2347 12.5311 20.7738C12.5311 21.313 12.0946 21.75 11.5561 21.75H10.4332H10.4331C8.55149 21.75 7.01783 21.7501 5.80834 21.5481C4.52712 21.3341 3.48373 20.8752 2.68053 19.8774C1.9018 18.91 1.56749 17.7063 1.40751 16.2281C1.24998 14.7725 1.24999 12.9077 1.25 10.5302V7.28462V7.28461C1.24999 6.37972 1.24999 5.64892 1.29188 5.05848C1.33484 4.45309 1.42574 3.91291 1.65124 3.41091C1.94002 2.76806 2.3801 2.20791 2.94567 1.81582C3.41168 1.49274 3.91944 1.36366 4.45431 1.30509C4.955 1.25026 5.77487 1.25012 6.485 1.25015C7.29125 1.24894 7.98437 1.2479 8.60763 1.53825C9.33078 1.87513 9.79993 2.43675 10.1323 2.9982C10.422 3.4874 10.6449 4.04472 10.8361 4.52279L10.8361 4.5228L11.1776 5.37194L15.4938 5.37194C16.3172 5.3719 17.0246 5.37187 17.6013 5.44475C18.2213 5.5231 18.7983 5.69625 19.3059 6.1176C19.6821 6.42982 19.9927 6.82051 20.2286 7.25912C20.6299 8.00529 20.7194 8.87747 20.7496 9.92641C20.7651 10.4653 20.3413 10.9148 19.8031 10.9303C19.2648 10.9459 18.8159 10.5216 18.8004 9.98268C18.7706 8.94682 18.6758 8.48987 18.5117 8.18478C18.3845 7.94833 18.2286 7.75941 18.0613 7.62057C17.9413 7.52096 17.7677 7.43362 17.3571 7.38173C16.9169 7.3261 16.3337 7.32429 15.435 7.32429H7.10403C6.56555 7.32429 6.12903 6.88725 6.12903 6.34812C6.12903 5.80899 6.56555 5.37194 7.10403 5.37194H9.07528C8.87161 4.86458 8.6633 4.34569 8.45492 3.99376C8.23849 3.62821 8.02646 3.42085 7.785 3.30836Z" fill="#141B34"/>
<path d="M17.3115 9.25616C18.4996 9.25614 19.4726 9.25611 20.2222 9.36334C21.0015 9.4748 21.6959 9.72145 22.1783 10.3435C22.9352 11.3196 22.8071 12.5253 22.5487 13.4745C22.3715 14.1254 21.8125 15.4779 21.5795 16.0325C21.139 17.2062 20.7897 18.1368 20.4356 18.8626C20.072 19.608 19.6756 20.1983 19.1093 20.6603C18.2623 21.3513 17.2535 21.604 16.3043 21.6973C15.6194 21.7647 14.8944 21.7522 14.2532 21.7411L9.87824 21.7336C8.15677 21.7336 6.78619 21.7336 5.73436 21.5895C4.65577 21.4417 3.7622 21.1252 3.1271 20.369C2.037 19.071 2.13896 17.4391 2.49769 16.0485C2.74554 15.0878 3.16582 14.0815 3.51266 13.2511C3.71832 12.7031 4.28266 11.2749 4.45801 10.9116C4.64224 10.5299 4.85626 10.1951 5.17532 9.92158C5.67313 9.4948 6.25454 9.34205 6.76778 9.28478C7.14597 9.24258 7.55312 9.24854 7.88588 9.25341L17.3115 9.25616Z" fill="#141B34"/>
</svg>
