<svg width="24" height="24" viewBox="0 0 24 24" fill="none" xmlns="http://www.w3.org/2000/svg">
<path d="M3.72368 13.75C4.26144 13.75 4.69737 13.3195 4.69737 12.7885L4.69738 11.7652C4.69737 11.4982 4.69754 10.8596 4.97816 10.3875C5.15109 10.0965 5.37251 9.85337 5.59996 9.72955C5.96647 9.53003 6.38666 9.41667 6.83333 9.41667C6.98046 9.41667 7.13864 9.42314 7.31624 9.43138L7.38206 9.43446C7.53697 9.44174 7.70556 9.44966 7.8737 9.45315C8.25379 9.46105 8.69733 9.44904 9.12548 9.33432C9.95945 9.11086 10.6109 8.45945 10.8343 7.62548C10.949 7.19733 10.961 6.75379 10.9532 6.3737C10.9497 6.20562 10.9417 6.03692 10.9345 5.88206L10.9314 5.81624C10.9231 5.63864 10.9167 5.48046 10.9167 5.33333C10.9167 4.86564 11.0409 4.42698 11.2583 4.04857C11.385 3.82798 11.6057 3.62609 11.9105 3.44878C12.3726 3.17987 12.926 3.17738 13.2642 3.17585C13.6023 3.17433 13.9591 3.17316 14.2572 3.17316C16.0914 3.17316 16.7582 3.18692 17.2614 3.36158C18.1337 3.66441 18.7997 4.29659 19.11 5.07103C19.1878 5.26511 19.2427 5.52002 19.2721 5.96153C19.3021 6.41159 19.3026 6.98607 19.3026 7.81394V12.7885C19.3026 13.3195 19.7386 13.75 20.2763 13.75C20.8141 13.75 21.25 13.3195 21.25 12.7885V7.78121C21.25 6.99374 21.25 6.35586 21.2153 5.83514C21.1795 5.29867 21.1039 4.82043 20.9208 4.36341C20.3922 3.04443 19.2841 2.02533 17.9072 1.54735C17.0482 1.24915 16.0155 1.24951 14.4607 1.25005L13.5134 1.25012L13.5 1.25L13.4649 1.25015C10.9565 1.25185 9.40174 1.28168 8.1118 1.72949C5.8915 2.50027 4.11806 4.13859 3.27491 6.24261C2.99393 6.94378 2.86942 7.69695 2.80918 8.60017C2.74999 9.48756 2.75 10.5838 2.75 11.9814V12.7885C2.75 13.3195 3.18593 13.75 3.72368 13.75Z" fill="#141B34"/>
<path fill-rule="evenodd" clip-rule="evenodd" d="M4.61413 15.2505C4.62669 15.2505 4.63922 15.2505 4.6517 15.2505H5.41949C6.65753 15.2505 7.6091 16.2872 7.6091 17.5005C7.6091 18.7138 6.65753 19.7505 5.41949 19.7505H4.25001V22.0005C4.25001 22.4147 3.91423 22.7505 3.50001 22.7505C3.0858 22.7505 2.75001 22.4147 2.75001 22.0005V17.2005C2.75001 17.1883 2.75001 17.1761 2.75001 17.1639C2.74994 16.9132 2.74988 16.6584 2.77726 16.4462C2.80837 16.2051 2.88623 15.9084 3.12756 15.6569C3.37305 15.4011 3.67004 15.3142 3.91579 15.2797C4.12564 15.2503 4.37583 15.2504 4.61413 15.2505ZM4.25001 18.2505H5.41949C5.7716 18.2505 6.1091 17.9441 6.1091 17.5005C6.1091 17.0569 5.7716 16.7505 5.41949 16.7505H4.6517C4.51307 16.7505 4.40504 16.7506 4.31249 16.753C4.29185 16.7535 4.27293 16.7542 4.25558 16.7549C4.25431 16.7812 4.25325 16.8109 4.25243 16.8447C4.25006 16.9426 4.25001 17.0564 4.25001 17.2005V18.2505Z" fill="#141B34"/>
<path fill-rule="evenodd" clip-rule="evenodd" d="M13.7215 15.2505C14.1357 15.2505 14.4715 15.5863 14.4715 16.0005V20.2225C14.4715 20.237 14.4715 20.2514 14.4715 20.2657C14.4715 20.714 14.4715 21.1107 14.4408 21.4028C14.425 21.5522 14.396 21.7365 14.3239 21.9093C14.2476 22.0919 14.086 22.344 13.7656 22.4607C13.4227 22.5856 13.116 22.4778 12.9205 22.344C12.753 22.2294 12.6299 22.0749 12.5465 21.9592C12.3817 21.7303 12.1959 21.395 11.992 21.0269C11.9844 21.0131 11.9767 20.9993 11.969 20.9854L10.4816 18.3012V22.0005C10.4816 22.4147 10.1458 22.7505 9.73157 22.7505C9.31736 22.7505 8.98157 22.4147 8.98157 22.0005V17.7785C8.98157 17.764 8.98157 17.7496 8.98157 17.7353C8.98154 17.287 8.98151 16.8903 9.01226 16.5982C9.02799 16.4488 9.05701 16.2644 9.12916 16.0917C9.20542 15.9091 9.36699 15.6569 9.68741 15.5402C10.0303 15.4153 10.337 15.5232 10.5325 15.657C10.7 15.7716 10.8232 15.9261 10.9065 16.0418C11.0713 16.2707 11.2571 16.606 11.461 16.974C11.4687 16.9878 11.4763 17.0017 11.484 17.0156L12.9715 19.6997V16.0005C12.9715 15.5863 13.3072 15.2505 13.7215 15.2505Z" fill="#141B34"/>
<path d="M18.7377 16.7502C18.2692 16.7502 17.8915 16.7521 17.6988 16.7795C17.6485 16.7733 17.5418 16.8084 17.5178 16.9977C17.4906 17.2117 17.4891 17.5088 17.4891 18.0003V20.0003C17.4891 20.4918 17.4906 20.789 17.5178 21.003C17.5309 21.0708 17.5855 21.2094 17.6988 21.2212C17.8915 21.2486 18.1632 21.2503 18.6316 21.2503C19.1 21.2503 19.3716 21.2486 19.5643 21.2212C19.7182 21.2067 19.7491 21.0697 19.7454 21.003C19.7679 20.8257 19.7728 20.5914 19.7738 20.2368C19.6272 20.2321 19.3377 20.2388 19.2112 20.2427C18.8013 20.3014 18.4211 20.0168 18.3623 19.6069C18.3035 19.1968 18.5881 18.8168 18.9982 18.7579C19.4082 18.6991 19.6591 18.7162 19.8922 18.7405C20.1107 18.7633 20.4164 18.8191 20.6882 18.9823C21.0002 19.1695 21.274 19.5105 21.274 20.0003L21.274 20.0434C21.2741 20.4777 21.2741 20.8721 21.2334 21.1923C21.1891 21.5405 21.0853 21.9126 20.7916 22.2229C20.4925 22.5391 20.124 22.6567 19.7753 22.7063C19.4643 22.7505 19.0838 22.7504 18.6773 22.7503C18.2707 22.7504 17.7988 22.7505 17.4878 22.7063C17.1391 22.6567 16.7706 22.5391 16.4715 22.2229C16.1779 21.9126 16.0741 21.5404 16.0298 21.1923C15.9891 20.8721 15.9891 20.4777 15.9891 20.0434L15.9891 20.0003V18.0003L15.9891 17.9573C15.9891 17.5229 15.9891 17.1285 16.0298 16.8084C16.0741 16.4602 16.1779 16.088 16.4715 15.7777C16.7706 15.4616 17.1391 15.3439 17.4878 15.2944C17.7988 15.2502 18.337 15.2499 18.7435 15.2499C19.1196 15.2481 19.654 15.2454 20.1021 15.4004C20.3775 15.4957 20.6604 15.6602 20.8808 15.9422C21.1003 16.223 21.2125 16.5623 21.2468 16.9308C21.2852 17.3433 20.9819 17.7087 20.5695 17.7471C20.1571 17.7855 19.7916 17.4823 19.7532 17.0698C19.739 16.9171 19.7026 16.8706 19.699 16.8659C19.6959 16.8619 19.6803 16.8417 19.6117 16.818C19.5323 16.7905 19.413 16.7691 19.2343 16.7586C19.0822 16.7497 18.9235 16.7499 18.7377 16.7502H18.7377Z" fill="#141B34"/>
</svg>
