<svg width="24" height="24" viewBox="0 0 24 24" fill="none" xmlns="http://www.w3.org/2000/svg">
<path d="M3.72368 13.75C4.26144 13.75 4.69737 13.3195 4.69737 12.7885L4.69738 11.7652C4.69737 11.4982 4.69754 10.8596 4.97816 10.3875C5.15109 10.0965 5.37251 9.85337 5.59996 9.72955C5.96647 9.53003 6.38666 9.41667 6.83333 9.41667C6.98046 9.41667 7.13864 9.42314 7.31624 9.43138L7.38206 9.43446C7.53697 9.44174 7.70556 9.44966 7.8737 9.45315C8.25379 9.46105 8.69733 9.44904 9.12548 9.33432C9.95945 9.11086 10.6109 8.45945 10.8343 7.62548C10.949 7.19733 10.961 6.75379 10.9532 6.3737C10.9497 6.20562 10.9417 6.03692 10.9345 5.88206L10.9314 5.81624C10.9231 5.63864 10.9167 5.48046 10.9167 5.33333C10.9167 4.86564 11.0409 4.42698 11.2583 4.04857C11.385 3.82798 11.6057 3.62609 11.9105 3.44878C12.3726 3.17987 12.926 3.17738 13.2642 3.17585C13.6023 3.17433 13.9591 3.17316 14.2572 3.17316C16.0914 3.17316 16.7582 3.18692 17.2614 3.36158C18.1337 3.66441 18.7997 4.29659 19.11 5.07103C19.1878 5.26511 19.2427 5.52002 19.2721 5.96153C19.3021 6.41159 19.3026 6.98607 19.3026 7.81394V12.7885C19.3026 13.3195 19.7386 13.75 20.2763 13.75C20.8141 13.75 21.25 13.3195 21.25 12.7885V7.78121C21.25 6.99374 21.25 6.35586 21.2153 5.83514C21.1795 5.29867 21.1039 4.82043 20.9208 4.36341C20.3922 3.04443 19.2841 2.02533 17.9072 1.54735C17.0482 1.24915 16.0155 1.24951 14.4607 1.25005L13.5134 1.25012L13.5 1.25L13.4649 1.25015C10.9565 1.25185 9.40174 1.28168 8.1118 1.72949C5.8915 2.50027 4.11806 4.13859 3.27491 6.24261C2.99393 6.94378 2.86942 7.69695 2.80918 8.60017C2.74999 9.48756 2.75 10.5838 2.75 11.9814V12.7885C2.75 13.3195 3.18593 13.75 3.72368 13.75Z" fill="#141B34"/>
<path fill-rule="evenodd" clip-rule="evenodd" d="M3.10136 15.3648C3.45222 15.1447 3.91512 15.2506 4.13528 15.6015L5.38233 17.589L6.62938 15.6015C6.84954 15.2506 7.31244 15.1447 7.6633 15.3648C8.01417 15.585 8.12013 16.0479 7.89998 16.3987L6.26774 19.0001L7.89998 21.6015C8.12013 21.9523 8.01417 22.4152 7.6633 22.6354C7.31244 22.8555 6.84954 22.7496 6.62938 22.3987L5.38233 20.4112L4.13528 22.3987C3.91512 22.7496 3.45222 22.8555 3.10136 22.6354C2.75049 22.4152 2.64453 21.9523 2.86468 21.6015L4.49692 19.0001L2.86468 16.3987C2.64453 16.0479 2.75049 15.585 3.10136 15.3648Z" fill="#141B34"/>
<path d="M12.4687 17.1877L13.1694 16.3222L13.183 16.3042C13.2882 16.1643 13.4102 16.0021 13.5258 15.886C13.6149 15.7965 13.9761 15.446 14.4886 15.6118C14.98 15.7708 15.0849 16.2419 15.1106 16.3626C15.1448 16.5233 15.1607 16.7265 15.1748 16.9065L15.1775 16.9415L15.5712 21.9409C15.6037 22.3538 15.2953 22.7149 14.8823 22.7474C14.4694 22.78 14.1083 22.4716 14.0758 22.0586L13.7549 17.9829L13.3625 18.4676L13.3484 18.485C13.2908 18.5564 13.205 18.6627 13.116 18.7452C13.0045 18.8486 12.7876 19.0118 12.4687 19.0118C12.1498 19.0118 11.9329 18.8486 11.8214 18.7452C11.7324 18.6627 11.6466 18.5564 11.589 18.485L11.589 18.485L11.5749 18.4676L11.1836 17.9843L10.8653 22.0582C10.8331 22.4711 10.4721 22.7797 10.0592 22.7475C9.64622 22.7152 9.33761 22.3543 9.36987 21.9413L9.76037 16.9429L9.76309 16.9079C9.77708 16.7277 9.79285 16.5244 9.82697 16.3637C9.85259 16.243 9.9572 15.7716 10.4488 15.6123C10.9615 15.4462 11.3229 15.797 11.4119 15.8865C11.5276 16.0026 11.6497 16.1649 11.755 16.3049L11.755 16.305L11.7685 16.3229L12.4687 17.1877Z" fill="#141B34"/>
<path fill-rule="evenodd" clip-rule="evenodd" d="M17.6765 15.25C18.0907 15.25 18.4265 15.5858 18.4265 16V20C18.4265 20.4914 18.4279 20.7889 18.455 21.0031C18.4676 21.1021 18.4826 21.1537 18.4922 21.1786C18.4942 21.1838 18.4959 21.1875 18.4971 21.1901C18.5117 21.1962 18.5503 21.2092 18.6322 21.2209C18.8232 21.2482 19.0927 21.25 19.5589 21.25H20.5C20.9143 21.25 21.25 21.5858 21.25 22C21.25 22.4142 20.9143 22.75 20.5 22.75H19.5589C19.5436 22.75 19.5283 22.75 19.5131 22.75C19.109 22.7501 18.73 22.7501 18.4201 22.7059C18.072 22.6561 17.7042 22.5379 17.406 22.2211C17.1139 21.9107 17.0109 21.5389 16.9669 21.1914C16.9264 20.8715 16.9265 20.4774 16.9265 20.0429C16.9265 20.0286 16.9265 20.0143 16.9265 20V16C16.9265 15.5858 17.2623 15.25 17.6765 15.25Z" fill="#141B34"/>
</svg>
