<svg width="24" height="24" viewBox="0 0 24 24" fill="none" xmlns="http://www.w3.org/2000/svg">
<path fill-rule="evenodd" clip-rule="evenodd" d="M11.9994 3C12.5517 3 12.9994 3.44772 12.9994 4L12.9994 20C12.9994 20.5523 12.5517 21 11.9994 21C11.4471 21 10.9994 20.5523 10.9994 20L10.9994 4C10.9994 3.44772 11.4471 3 11.9994 3Z" fill="#141B34"/>
<path d="M12 5.02786C11.8452 5.12116 11.5671 5.31675 11.3251 5.53062C10.8432 5.95637 10.2928 6.5431 9.76105 7.1556C9.23357 7.76313 8.74365 8.3736 8.38437 8.83397C8.20515 9.06363 7.90576 9.45995 7.80521 9.59308C7.47768 10.0377 6.85173 10.1327 6.40706 9.8052C5.96236 9.47769 5.86736 8.85169 6.19487 8.40699L6.19767 8.40328C6.30672 8.2589 6.62291 7.84028 6.80767 7.60352C7.18002 7.1264 7.69303 6.48686 8.25084 5.84439C8.80434 5.20689 9.4216 4.54362 10.0008 4.03187C10.2892 3.777 10.5918 3.53856 10.8906 3.35842C11.162 3.19484 11.5568 3.00002 12 3C12.4431 3.00002 12.838 3.19484 13.1094 3.35842C13.4082 3.53856 13.7108 3.777 13.9992 4.03187C14.5784 4.54362 15.1957 5.20689 15.7492 5.84439C16.307 6.48686 16.82 7.1264 17.1923 7.60352C17.3771 7.84028 17.6931 8.25863 17.8021 8.40301L17.8051 8.40699C18.1326 8.85169 18.0376 9.47769 17.5929 9.8052C17.1483 10.1327 16.5223 10.0377 16.1948 9.59308C16.0942 9.45995 15.7948 9.06363 15.6156 8.83397C15.2564 8.3736 14.7664 7.76313 14.2389 7.1556C13.7072 6.5431 13.1568 5.95637 12.6749 5.53062C12.4329 5.31675 12.1548 5.12116 12 5.02786Z" fill="#141B34"/>
</svg>
