<svg width="24" height="24" viewBox="0 0 24 24" fill="none" xmlns="http://www.w3.org/2000/svg">
<path fill-rule="evenodd" clip-rule="evenodd" d="M3.00067 11.9998C3.00067 11.4475 3.44839 10.9998 4.00067 10.9998L20.0007 10.9998C20.553 10.9998 21.0007 11.4475 21.0007 11.9998C21.0007 12.552 20.553 12.9998 20.0007 12.9998L4.00067 12.9998C3.44839 12.9998 3.00067 12.552 3.00067 11.9998Z" fill="#141B34"/>
<path d="M5.02853 11.9998C5.12183 12.1545 5.31742 12.4326 5.5313 12.6747C5.95704 13.1565 6.54377 13.7069 7.15627 14.2387C7.7638 14.7662 8.37427 15.2561 8.83464 15.6154C9.0643 15.7946 9.46062 16.094 9.59375 16.1945C10.0384 16.5221 10.1334 17.148 9.80587 17.5927C9.47836 18.0374 8.85236 18.1324 8.40767 17.8049L8.40395 17.8021C8.25957 17.693 7.84095 17.3768 7.6042 17.1921C7.12707 16.8197 6.48753 16.3067 5.84506 15.7489C5.20756 15.1954 4.54429 14.5782 4.03254 13.999C3.77767 13.7105 3.53923 13.408 3.3591 13.1092C3.19551 12.8378 3.00069 12.443 3.00067 11.9998C3.00069 11.5566 3.19551 11.1617 3.3591 10.8904C3.53923 10.5915 3.77767 10.289 4.03254 10.0005C4.54429 9.42136 5.20756 8.8041 5.84506 8.2506C6.48753 7.69279 7.12707 7.17977 7.6042 6.80743C7.84095 6.62267 8.2593 6.30668 8.40368 6.19763L8.40767 6.19462C8.85236 5.86711 9.47836 5.96212 9.80587 6.40682C10.1334 6.85149 10.0384 7.47744 9.59375 7.80496C9.46062 7.90552 9.0643 8.20491 8.83464 8.38413C8.37427 8.7434 7.7638 9.23333 7.15627 9.76081C6.54377 10.2926 5.95704 10.843 5.5313 11.3248C5.31742 11.5669 5.12183 11.845 5.02853 11.9998Z" fill="#141B34"/>
</svg>
