<svg width="24" height="24" viewBox="0 0 24 24" fill="none" xmlns="http://www.w3.org/2000/svg">
<path fill-rule="evenodd" clip-rule="evenodd" d="M12.0009 20.9999C12.5532 20.9999 13.0009 20.5522 13.0009 19.9999L13.0009 3.99986C13.0009 3.44758 12.5532 2.99986 12.0009 2.99986C11.4486 2.99986 11.0009 3.44758 11.0009 3.99986L11.0009 19.9999C11.0009 20.5522 11.4486 20.9999 12.0009 20.9999Z" fill="#141B34"/>
<path d="M12.0009 18.972C11.8461 18.8787 11.568 18.6831 11.326 18.4693C10.8441 18.0435 10.2938 17.4568 9.76197 16.8443C9.23449 16.2367 8.74456 15.6263 8.38529 15.1659C8.20607 14.9362 7.90668 14.5399 7.80612 14.4068C7.4786 13.9622 6.85265 13.8672 6.40798 14.1947C5.96328 14.5222 5.86827 15.1482 6.19578 15.5929L6.19859 15.5966C6.30764 15.741 6.62383 16.1596 6.80859 16.3964C7.18093 16.8735 7.69395 17.513 8.25176 18.1555C8.80526 18.793 9.42252 19.4563 10.0017 19.968C10.2901 20.2229 10.5927 20.4613 10.8915 20.6415C11.1629 20.805 11.5577 20.9999 12.0009 20.9999C12.4441 20.9999 12.839 20.805 13.1103 20.6415C13.4091 20.4613 13.7117 20.2229 14.0001 19.968C14.5793 19.4563 15.1966 18.793 15.7501 18.1555C16.3079 17.513 16.8209 16.8735 17.1932 16.3964C17.378 16.1596 17.694 15.7412 17.803 15.5969L17.806 15.5929C18.1336 15.1482 18.0386 14.5222 17.5939 14.1947C17.1492 13.8672 16.5232 13.9622 16.1957 14.4068C16.0952 14.5399 15.7958 14.9362 15.6165 15.1659C15.2573 15.6263 14.7673 16.2367 14.2399 16.8443C13.7081 17.4568 13.1577 18.0435 12.6759 18.4693C12.4338 18.6831 12.1557 18.8787 12.0009 18.972Z" fill="#141B34"/>
</svg>
