<svg width="24" height="24" viewBox="0 0 24 24" fill="none" xmlns="http://www.w3.org/2000/svg">
<path d="M9.77965 2.32271C10.9991 2.24165 11.2793 2.22786 12.5218 2.28388C12.9512 2.28944 13.166 2.29222 13.2543 2.41485L13.2609 2.42428C13.3445 2.5502 13.2651 2.76945 13.1064 3.20795C12.8758 3.84535 12.75 4.53298 12.75 5.24998C12.75 8.56369 15.4363 11.25 18.75 11.25C19.95 11.25 21.0676 10.8977 22.0053 10.291C22.3357 10.0772 22.5009 9.97027 22.6053 10.0271C22.7098 10.0839 22.7098 10.27 22.7098 10.6421V10.9467C22.7639 11.8016 22.7634 12.685 22.7082 13.5392C22.4103 18.149 18.787 21.8353 14.2204 22.1389C12.7601 22.2359 11.2369 22.2357 9.77965 22.1389C9.21472 22.1013 8.59978 21.9677 8.05839 21.7448L7.93811 21.6953C7.7944 21.6362 7.72254 21.6067 7.63749 21.6023C7.58316 21.5994 7.51656 21.6076 7.46455 21.6236C7.38314 21.6486 7.32003 21.6952 7.1938 21.7882C6.40136 22.3726 5.40092 22.7825 3.98117 22.7479L3.93544 22.7468C3.66155 22.7403 3.36961 22.7333 3.13152 22.6873C2.84475 22.6318 2.48996 22.4931 2.26791 22.1145C2.02623 21.7025 2.12313 21.2858 2.21688 21.0234C2.30536 20.7757 2.45874 20.4852 2.61542 20.1885L2.6369 20.1478C3.10323 19.2641 3.23314 18.5419 2.98381 18.0604C2.15148 16.804 1.40272 15.2556 1.2918 13.5392C1.23607 12.6768 1.23607 11.7848 1.2918 10.9223C1.58972 6.31256 5.213 2.62627 9.77965 2.32271Z" fill="#141B34"/>
<path d="M14.75 5.25C14.75 3.04086 16.5409 1.25 18.75 1.25C20.9591 1.25 22.75 3.04086 22.75 5.25C22.75 7.45914 20.9591 9.25 18.75 9.25C16.5409 9.25 14.75 7.45914 14.75 5.25Z" fill="#141B34"/>
</svg>
