<svg width="24" height="24" viewBox="0 0 24 24" fill="none" xmlns="http://www.w3.org/2000/svg">
<path d="M18.5931 8.19486C19.0378 8.52237 19.1328 9.14837 18.8052 9.59306C18.5509 9.93847 18.2964 10.2668 18.0732 10.5528C17.6277 11.1236 17.0144 11.8882 16.348 12.6556C15.686 13.4181 14.952 14.2064 14.2667 14.8119C13.9252 15.1136 13.5722 15.3911 13.2281 15.5986C12.9113 15.7895 12.4761 16 12 16C11.5239 16 11.0887 15.7895 10.7719 15.5986C10.4278 15.3911 10.0748 15.1136 9.73332 14.8119C9.04803 14.2064 8.31399 13.4181 7.65195 12.6556C6.9856 11.8882 6.37228 11.1236 5.92676 10.5528C5.70359 10.2668 5.44915 9.93847 5.19475 9.59307C4.86724 9.14837 4.96223 8.52237 5.40692 8.19486C5.58568 8.0632 5.79375 7.99983 5.99994 8L12 8L18.0001 8C18.2063 7.99983 18.4143 8.0632 18.5931 8.19486Z" fill="#141B34"/>
</svg>
