<svg width="24" height="24" viewBox="0 0 24 24" fill="none" xmlns="http://www.w3.org/2000/svg">
<path d="M18.5931 15.8051C19.0378 15.4776 19.1328 14.8516 18.8052 14.4069C18.5509 14.0615 18.2964 13.7332 18.0732 13.4472C17.6277 12.8764 17.0144 12.1118 16.348 11.3444C15.686 10.5819 14.952 9.79361 14.2667 9.18811C13.9252 8.88637 13.5722 8.60888 13.2281 8.4014C12.9113 8.21046 12.4761 8 12 8C11.5239 8 11.0887 8.21046 10.7719 8.4014C10.4278 8.60888 10.0748 8.88637 9.73332 9.18811C9.04803 9.79361 8.31399 10.5819 7.65195 11.3444C6.9856 12.1118 6.37228 12.8764 5.92676 13.4472C5.70359 13.7332 5.44915 14.0615 5.19475 14.4069C4.86724 14.8516 4.96223 15.4776 5.40692 15.8051C5.58568 15.9368 5.79375 16.0002 5.99994 16L12 16L18.0001 16C18.2063 16.0002 18.4143 15.9368 18.5931 15.8051Z" fill="#141B34"/>
</svg>
