<svg width="24" height="24" viewBox="0 0 24 24" fill="none" xmlns="http://www.w3.org/2000/svg">
<path d="M8.19541 5.40693C8.52292 4.96223 9.14892 4.86724 9.59361 5.19476C9.93902 5.44915 10.2674 5.70359 10.5533 5.92676C11.1242 6.37228 11.8887 6.9856 12.6562 7.65196C13.4187 8.31399 14.2069 9.04803 14.8124 9.73332C15.1142 10.0748 15.3917 10.4278 15.5992 10.7719C15.7901 11.0887 16.0005 11.5239 16.0005 12C16.0005 12.4761 15.7901 12.9113 15.5992 13.2281C15.3917 13.5722 15.1142 13.9252 14.8124 14.2667C14.2069 14.952 13.4187 15.686 12.6562 16.348C11.8887 17.0144 11.1242 17.6277 10.5533 18.0732C10.2674 18.2964 9.93902 18.5509 9.59362 18.8052C9.14892 19.1328 8.52292 19.0378 8.19541 18.5931C8.06375 18.4143 8.00038 18.2063 8.00055 18.0001L8.00055 12L8.00055 5.99994C8.00038 5.79375 8.06375 5.58568 8.19541 5.40693Z" fill="#141B34"/>
</svg>
