<svg width="24" height="24" viewBox="0 0 24 24" fill="none" xmlns="http://www.w3.org/2000/svg">
<path fill-rule="evenodd" clip-rule="evenodd" d="M22.1649 20.569C22.1078 20.346 22.019 20.0665 21.9137 19.735L21.4758 18.3563C22.2601 17.606 22.75 16.5477 22.75 15.375C22.75 13.0968 20.9032 11.25 18.625 11.25H18.375C16.0968 11.25 14.25 13.0968 14.25 15.375C14.25 16.5477 14.7399 17.606 15.5242 18.3563L15.0863 19.7349C14.981 20.0665 14.8922 20.346 14.8351 20.569C14.7808 20.7811 14.7251 21.0465 14.7621 21.3118C14.8731 22.1077 15.5353 22.7469 16.372 22.75C16.6508 22.751 16.9096 22.6473 17.1015 22.5611C17.306 22.4692 17.5799 22.3255 17.8761 22.17C18.172 22.0147 18.2334 21.9861 18.2866 21.9701C18.4263 21.928 18.5737 21.928 18.7134 21.9701C18.7666 21.9861 18.8279 22.0147 19.1238 22.17C19.4201 22.3255 19.694 22.4692 19.8985 22.5611C20.0904 22.6473 20.3492 22.751 20.628 22.75C21.4647 22.7469 22.1269 22.1077 22.2379 21.3118C22.2749 21.0465 22.2192 20.7811 22.1649 20.569ZM16.2881 20.941C16.3333 20.7644 16.4087 20.5262 16.5226 20.1674L16.8297 19.2006C17.3072 19.3936 17.829 19.4999 18.3749 19.4999H18.6249C19.1707 19.4999 19.6925 19.3936 20.1701 19.2006L20.4771 20.1674C20.5911 20.5262 20.6664 20.7644 20.7116 20.941C20.779 21.0911 20.8337 21.3516 20.513 21.1927C20.3556 21.122 20.0977 20.987 19.7744 20.8174C19.5507 20.6998 19.3548 20.5968 19.1464 20.5339C18.7242 20.4066 18.2755 20.4066 17.8534 20.5339C17.645 20.5968 17.4491 20.6998 17.2254 20.8174C16.9021 20.987 16.6442 21.122 16.4867 21.1927C16.2092 21.3296 16.2387 21.0819 16.2881 20.941Z" fill="#141B34"/>
<path d="M13 11C13 12.1046 12.1046 13 11 13C9.89543 13 9 12.1046 9 11C9 9.89543 9.89543 9 11 9C12.1046 9 13 9.89543 13 11Z" fill="#141B34"/>
<path fill-rule="evenodd" clip-rule="evenodd" d="M11.0957 3.2C6.72504 3.2 3.2 6.70213 3.2 11C3.2 12.7951 3.81492 14.4513 4.84955 15.7716L6.17444 14.4467C6.5552 14.0659 7.17253 14.0659 7.5533 14.4467C7.93406 14.8275 7.93406 15.4448 7.5533 15.8256L6.23299 17.1459C7.5721 18.1817 9.25927 18.8 11.0957 18.8C11.511 18.8 11.9182 18.7684 12.3151 18.7077C12.8473 18.6263 13.3449 18.9918 13.4263 19.524C13.5077 20.0563 13.1422 20.5538 12.6099 20.6353C12.1158 20.7109 11.6101 20.75 11.0957 20.75C8.44734 20.75 6.0393 19.713 4.26762 18.0243C4.21042 17.9874 4.15624 17.9439 4.10615 17.8939C4.05768 17.8454 4.01538 17.7931 3.97925 17.7379C2.2894 15.9887 1.25 13.6166 1.25 11C1.25 5.60528 5.66809 1.25 11.0957 1.25C15.8257 1.25 19.785 4.55492 20.7285 8.97435C20.8409 9.50096 20.5052 10.019 19.9786 10.1314C19.4519 10.2438 18.9339 9.90808 18.8215 9.38146C18.5623 8.16744 18.0165 7.0563 17.2567 6.12123L15.8253 7.55257C15.4446 7.93333 14.8272 7.93333 14.4465 7.55257C14.0657 7.1718 14.0657 6.55447 14.4465 6.17371L15.849 4.77117C14.5276 3.78543 12.8818 3.2 11.0957 3.2Z" fill="#141B34"/>
</svg>
