<svg width="24" height="24" viewBox="0 0 24 24" fill="none" xmlns="http://www.w3.org/2000/svg">
<path fill-rule="evenodd" clip-rule="evenodd" d="M10.7277 4.66985C10.4449 5.13414 10.3 5.82649 10.3 6.6C10.3 7.15228 9.85228 7.6 9.3 7.6C8.74771 7.6 8.3 7.15228 8.3 6.6C8.3 5.63893 8.47017 4.53128 9.01979 3.62921C9.60836 2.66323 10.5989 2 12 2C13.4011 2 14.3916 2.66323 14.9802 3.62921C15.5298 4.53129 15.7 5.63893 15.7 6.6C15.7 7.15229 15.2523 7.6 14.7 7.6C14.1477 7.6 13.7 7.15229 13.7 6.6C13.7 5.82649 13.5551 5.13414 13.2723 4.66985C13.0283 4.26948 12.6688 4 12 4C11.3312 4 10.9717 4.26948 10.7277 4.66985ZM3 4C3.55228 4 4 4.44772 4 5V5.25C4 6.43741 4.96259 7.4 6.15 7.4C6.70228 7.4 7.15 7.84772 7.15 8.4C7.15 8.95228 6.70228 9.4 6.15 9.4C3.85802 9.4 2 7.54198 2 5.25V5C2 4.44772 2.44772 4 3 4ZM21 4C21.5523 4 22 4.44772 22 5V5.25C22 7.54198 20.142 9.4 17.85 9.4C17.2977 9.4 16.85 8.95228 16.85 8.4C16.85 7.84772 17.2977 7.4 17.85 7.4C19.0374 7.4 20 6.43741 20 5.25V5C20 4.44772 20.4477 4 21 4ZM2 12.9C2 12.3477 2.44772 11.9 3 11.9H6.15C6.70228 11.9 7.15 12.3477 7.15 12.9C7.15 13.4523 6.70228 13.9 6.15 13.9H3C2.44772 13.9 2 13.4523 2 12.9ZM16.85 12.9C16.85 12.3477 17.2977 11.9 17.85 11.9H21C21.5523 11.9 22 12.3477 22 12.9C22 13.4523 21.5523 13.9 21 13.9H17.85C17.2977 13.9 16.85 13.4523 16.85 12.9ZM2 21C2 18.4595 4.05949 16.4 6.6 16.4C7.15229 16.4 7.6 16.8477 7.6 17.4C7.6 17.9523 7.15229 18.4 6.6 18.4C5.16406 18.4 4 19.5641 4 21C4 21.5523 3.55229 22 3 22C2.44772 22 2 21.5523 2 21ZM16.4 17.4C16.4 16.8477 16.8477 16.4 17.4 16.4C19.9405 16.4 22 18.4595 22 21C22 21.5523 21.5523 22 21 22C20.4477 22 20 21.5523 20 21C20 19.5641 18.8359 18.4 17.4 18.4C16.8477 18.4 16.4 17.9523 16.4 17.4Z" fill="#141B34"/>
<path fill-rule="evenodd" clip-rule="evenodd" d="M15.7706 6.12388C15.368 5.97372 14.9426 5.90994 14.451 5.87942C13.9706 5.8496 13.3797 5.84961 12.6386 5.84961H12.6386H11.3621H11.3621H11.3621C10.621 5.84961 10.0302 5.8496 9.54981 5.87942C9.05821 5.90994 8.63281 5.97372 8.23022 6.12388C7.04806 6.5648 6.11558 7.49728 5.67466 8.67944C5.5245 9.08203 5.46072 9.50743 5.4302 9.99903C5.40038 10.4794 5.40039 11.0703 5.40039 11.8114V11.8114V15.1496C5.40039 18.3097 7.62126 20.951 10.5873 21.598C10.88 21.6618 11.0264 21.6938 11.1382 21.6037C11.25 21.5136 11.25 21.3543 11.25 21.0357V16.5C11.25 16.0858 11.5858 15.75 12 15.75C12.4142 15.75 12.75 16.0858 12.75 16.5V21.0359C12.75 21.3545 12.75 21.5137 12.8618 21.6038C12.9736 21.6939 13.12 21.662 13.4126 21.5982C16.3791 20.9515 18.6004 18.31 18.6004 15.1496L18.6004 11.8113C18.6004 11.0702 18.6004 10.4794 18.5706 9.99903C18.5401 9.50743 18.4763 9.08203 18.3261 8.67944C17.8852 7.49728 16.9527 6.5648 15.7706 6.12388Z" fill="#141B34"/>
</svg>
