<svg width="24" height="24" viewBox="0 0 24 24" fill="none" xmlns="http://www.w3.org/2000/svg">
<path d="M5.08842 10.411C5.25004 10.7695 5.6068 11 6.00007 11L18.0001 11C18.3933 11 18.7501 10.7694 18.9117 10.4109C19.0733 10.0524 19.0098 9.63241 18.7494 9.33773L18.7478 9.33596C18.7121 9.29609 18.6106 9.18259 18.548 9.11355C18.421 8.97338 18.2385 8.77403 18.0148 8.53517C17.5683 8.05838 16.9535 7.41974 16.2854 6.77852C15.6216 6.14138 14.8851 5.48226 14.1975 4.97599C13.8543 4.72332 13.5019 4.49266 13.1607 4.32127C12.8401 4.16021 12.4306 4 12 4C11.5694 4 11.16 4.1602 10.8393 4.32126C10.4982 4.49265 10.1457 4.72332 9.80257 4.97599C9.11499 5.48226 8.37849 6.1414 7.71467 6.77854C7.04659 7.41977 6.43181 8.05841 5.9853 8.53521C5.76161 8.77408 5.57912 8.97343 5.45208 9.11359C5.38925 9.18292 5.28761 9.29656 5.25235 9.33599L5.25119 9.33729C4.99076 9.63198 4.9268 10.0524 5.08842 10.411Z" fill="#141B34"/>
<path d="M5.08842 13.589C5.25004 13.2305 5.6068 13 6.00007 13L18.0001 13C18.3933 13 18.7501 13.2306 18.9117 13.5891C19.0733 13.9476 19.0098 14.3676 18.7494 14.6623L18.7478 14.664C18.7121 14.7039 18.6106 14.8174 18.548 14.8865C18.421 15.0266 18.2385 15.226 18.0148 15.4648C17.5683 15.9416 16.9535 16.5803 16.2854 17.2215C15.6216 17.8586 14.8851 18.5177 14.1975 19.024C13.8543 19.2767 13.5019 19.5073 13.1607 19.6787C12.8401 19.8398 12.4306 20 12 20C11.5694 20 11.16 19.8398 10.8393 19.6787C10.4982 19.5073 10.1457 19.2767 9.80257 19.024C9.11499 18.5177 8.37849 17.8586 7.71467 17.2215C7.04659 16.5802 6.43181 15.9416 5.9853 15.4648C5.76161 15.2259 5.57912 15.0266 5.45208 14.8864C5.38925 14.8171 5.28761 14.7034 5.25235 14.664L5.25119 14.6627C4.99076 14.368 4.9268 13.9476 5.08842 13.589Z" fill="#141B34"/>
</svg>
