<svg width="24" height="24" viewBox="0 0 24 24" fill="none" xmlns="http://www.w3.org/2000/svg">
<path fill-rule="evenodd" clip-rule="evenodd" d="M6 7C6.55228 7 7 7.44772 7 8L7 16C7 16.5523 6.55229 17 6 17C5.44772 17 5 16.5523 5 16L5 8C5 7.44772 5.44772 7 6 7Z" fill="#141B34"/>
<path fill-rule="evenodd" clip-rule="evenodd" d="M14.5 7.03991C14.741 7.05436 14.9592 7.07402 15.1581 7.10077C15.8642 7.1957 16.1912 7.36307 16.4138 7.58564C16.6363 7.80821 16.8037 8.13523 16.8986 8.84129C16.9974 9.57611 16.9995 10.5574 16.9995 11.9999V17.9999C16.9995 18.5521 17.4473 18.9999 17.9995 18.9999C18.5518 18.9999 18.9995 18.5521 18.9995 17.9999L18.9995 11.9293C18.9996 10.5752 18.9996 9.45855 18.8808 8.57479C18.756 7.64696 18.4841 6.82754 17.828 6.17143C17.1719 5.51532 16.3524 5.24335 15.4246 5.11861C15.1415 5.08055 14.833 5.05469 14.5 5.03711L14.5 7.03991Z" fill="#141B34"/>
<path d="M14.5 4.4116C14.5001 4.23596 14.5003 4.02031 14.4782 3.84387L14.4778 3.84053C14.462 3.71408 14.3902 3.13804 13.8246 2.86368C13.2578 2.58872 12.7576 2.89065 12.6494 2.95597L12.181 3.29511C11.8051 3.58975 11.2907 3.99545 10.8997 4.37588C10.7046 4.56571 10.5033 4.78297 10.3445 5.01388C10.2033 5.21914 10 5.56933 10 6C10 6.43067 10.2033 6.78086 10.3445 6.98612C10.5033 7.21703 10.7046 7.43429 10.8997 7.62412C11.2907 8.00455 11.8051 8.41025 12.1809 8.70488L12.6494 9.04403C12.7576 9.10935 13.2578 9.41128 13.8246 9.13632C14.3902 8.86196 14.462 8.28592 14.4778 8.15947L14.4782 8.15613C14.5003 7.97969 14.5001 7.76403 14.5 7.5884L14.5 4.4116Z" fill="#141B34"/>
<path fill-rule="evenodd" clip-rule="evenodd" d="M3.25 18C3.25 16.4812 4.48122 15.25 6 15.25C7.51878 15.25 8.75 16.4812 8.75 18C8.75 19.5188 7.51878 20.75 6 20.75C4.48122 20.75 3.25 19.5188 3.25 18Z" fill="#141B34"/>
<path fill-rule="evenodd" clip-rule="evenodd" d="M3.25 6C3.25 4.48122 4.48122 3.25 6 3.25C7.51878 3.25 8.75 4.48122 8.75 6C8.75 7.51878 7.51878 8.75 6 8.75C4.48122 8.75 3.25 7.51878 3.25 6Z" fill="#141B34"/>
<path fill-rule="evenodd" clip-rule="evenodd" d="M15.25 18C15.25 16.4812 16.4812 15.25 18 15.25C19.5188 15.25 20.75 16.4812 20.75 18C20.75 19.5188 19.5188 20.75 18 20.75C16.4812 20.75 15.25 19.5188 15.25 18Z" fill="#141B34"/>
</svg>
