<svg width="24" height="24" viewBox="0 0 24 24" fill="none" xmlns="http://www.w3.org/2000/svg">
<path fill-rule="evenodd" clip-rule="evenodd" d="M12.8248 1.75C15.0005 1.74998 15.7352 1.74997 17.0953 1.93282C18.4997 2.12164 19.6535 2.52175 20.5659 3.43414C21.4782 4.34653 21.8784 5.50033 22.0672 6.90471C22.2311 8.12428 22.2481 10.047 22.2498 12L22.2434 13.5037C22.2348 15.2454 22.1955 16.6539 21.9904 17.7892C21.7815 18.9461 21.39 19.8839 20.6348 20.6391C19.7766 21.4973 18.6844 21.8843 17.3077 22.0694C15.9643 22.25 14.2436 22.25 12.0529 22.25H11.9385C9.74783 22.25 8.02716 22.25 6.68375 22.0694C5.30709 21.8843 4.21483 21.4973 3.35664 20.6391C2.60147 19.8839 2.20997 18.9461 2.00101 17.7892C1.79594 16.6539 1.75662 15.2454 1.74805 13.5037L1.75019 11.9999C1.75192 10.0469 1.76885 8.12426 1.93281 6.90471C2.12163 5.50033 2.52174 4.34653 3.43413 3.43414C4.34652 2.52175 5.50032 2.12164 6.9047 1.93282C8.26483 1.74996 9.99957 1.74998 12.1755 1.75H12.8248ZM20.085 7.17121C20.2407 8.32894 20.2495 10.2983 20.25 12.4499C20.25 12.6155 20.1157 12.75 19.95 12.75L16.5701 12.75C15.2899 12.75 14.4346 13.7898 14.0241 14.6123C13.7339 15.1938 13.1703 15.75 11.9957 15.75C10.8211 15.75 10.2576 15.1938 9.96734 14.6123C9.55684 13.7898 8.70157 12.75 7.42138 12.75L4.04999 12.75C3.88431 12.75 3.74998 12.6155 3.75002 12.4499C3.75049 10.2983 3.75933 8.32894 3.91498 7.17121C4.07398 5.9886 4.36949 5.3272 4.84834 4.84835C5.32719 4.3695 5.98859 4.07399 7.1712 3.91499C8.38257 3.75212 10.4825 3.75 12.75 3.75C15.0174 3.75 15.6174 3.75212 16.8288 3.91499C18.0114 4.07399 18.6728 4.3695 19.1516 4.84835C19.6305 5.3272 19.926 5.9886 20.085 7.17121Z" fill="#141B34"/>
</svg>
