<svg width="24" height="24" viewBox="0 0 24 24" fill="none" xmlns="http://www.w3.org/2000/svg">
<path fill-rule="evenodd" clip-rule="evenodd" d="M6.9434 1.25C5.13706 1.25 3.33776 2.50234 3.25445 4.53599C3.16108 6.81554 4.79014 8.26192 6.03013 9.3138C6.93668 10.0828 7.54569 10.6018 7.94992 11.0417C8.34231 11.4687 8.42644 11.7018 8.44301 11.8715C8.45136 11.957 8.45136 12.043 8.44301 12.1285C8.42644 12.2982 8.34231 12.5313 7.94992 12.9583C7.54569 13.3982 6.93668 13.9172 6.03013 14.6862L5.97883 14.7297C4.72262 15.7949 3.15847 17.1212 3.25445 19.464C3.33776 21.4977 5.13706 22.75 6.9434 22.75L17.0571 22.75C18.8634 22.75 20.6628 21.4977 20.7461 19.464C20.8021 18.0954 20.2969 16.7007 19.1905 15.7225C18.9147 15.4787 18.624 15.2351 18.3456 15.0019L18.3444 15.0008C18.2162 14.8935 18.0907 14.7883 17.9704 14.6862C17.0638 13.9172 16.4548 13.3982 16.0506 12.9583C15.6582 12.5313 15.5741 12.2982 15.5575 12.1285C15.5491 12.043 15.5491 11.957 15.5575 11.8715C15.5741 11.7018 15.6582 11.4687 16.0506 11.0417C16.4548 10.6018 17.0638 10.0828 17.9704 9.3138L17.9861 9.30048C19.2368 8.23957 20.842 6.87794 20.746 4.53599C20.6627 2.50234 18.8634 1.25 17.0571 1.25H6.9434ZM8.27105 20.1882C8.13138 20.4275 8.1044 20.7955 8.49416 20.7955L15.5072 20.7955C15.897 20.7955 15.87 20.4275 15.7303 20.1882C15.5103 19.8112 15.1531 19.5587 14.8735 19.361C14.0171 18.7491 13.1087 17.9997 12 18C10.8919 18.0003 9.98388 18.7494 9.12785 19.361C8.84823 19.5587 8.49108 19.8112 8.27105 20.1882Z" fill="#141B34"/>
</svg>
