<svg width="24" height="25" viewBox="0 0 24 25" fill="none" xmlns="http://www.w3.org/2000/svg">
<path fill-rule="evenodd" clip-rule="evenodd" d="M12 3.75C10.067 3.75 8.5 5.317 8.5 7.25V8.81016C9.61773 8.77048 10.7654 8.75 12 8.75C13.2346 8.75 14.3823 8.77048 15.5 8.81016V7.25C15.5 5.317 13.933 3.75 12 3.75ZM6.5 7.25V9.02712C4.93233 9.50686 3.74925 10.8861 3.52452 12.5552C3.37636 13.6556 3.25 14.8118 3.25 16C3.25 17.1882 3.37636 18.3444 3.52452 19.4448C3.79609 21.4618 5.46716 23.0555 7.52522 23.1501C8.95364 23.2158 10.4042 23.25 12 23.25C13.5958 23.25 15.0464 23.2158 16.4748 23.1501C18.5328 23.0555 20.2039 21.4618 20.4755 19.4448C20.6236 18.3444 20.75 17.1882 20.75 16C20.75 14.8118 20.6236 13.6556 20.4755 12.5552C20.2508 10.8861 19.0677 9.50686 17.5 9.02712V7.25C17.5 4.21243 15.0376 1.75 12 1.75C8.96243 1.75 6.5 4.21243 6.5 7.25ZM11.9933 14.5C11.1686 14.5 10.5 15.1716 10.5 16C10.5 16.8284 11.1686 17.5 11.9933 17.5H12.0067C12.8314 17.5 13.5 16.8284 13.5 16C13.5 15.1716 12.8314 14.5 12.0067 14.5H11.9933Z" fill="#141B34"/>
</svg>
