<svg width="24" height="25" viewBox="0 0 24 25" fill="none" xmlns="http://www.w3.org/2000/svg">
<path fill-rule="evenodd" clip-rule="evenodd" d="M12 1.75C6.06294 1.75 1.25 6.56294 1.25 12.5C1.25 18.4371 6.06294 23.25 12 23.25C17.9371 23.25 22.75 18.4371 22.75 12.5C22.75 6.56294 17.9371 1.75 12 1.75ZM9.5 11.25C9.5 9.86929 10.6193 8.75 12 8.75C13.3807 8.75 14.5 9.86929 14.5 11.25C14.5 12.2752 13.883 13.1562 13 13.542V16.25C13 16.8023 12.5523 17.25 12 17.25C11.4477 17.25 11 16.8023 11 16.25V13.542C10.117 13.1562 9.5 12.2752 9.5 11.25Z" fill="#141B34"/>
</svg>
