<svg width="24" height="24" viewBox="0 0 24 24" fill="none" xmlns="http://www.w3.org/2000/svg">
<path fill-rule="evenodd" clip-rule="evenodd" d="M2.25 17.1613L2.25 6.5V6.49996C2.25 5.70416 2.81527 5.21593 3.26541 4.91825C3.715 4.62095 4.35402 4.31828 5.07878 3.97502L5.14491 3.94369L7.99309 2.59441L8.19088 2.50063C9.75551 1.75846 10.8275 1.24996 12 1.24996C13.1725 1.24996 14.2445 1.75846 15.8091 2.50063L16.0069 2.5944L18.9212 3.975L18.9213 3.97503L18.9213 3.97506C19.646 4.31831 20.285 4.62096 20.7346 4.91825C21.1847 5.21593 21.75 5.70416 21.75 6.49996V6.5L21.75 17.1613C21.75 18.2817 20.9327 19.0268 19.9267 19.6305C18.9083 20.2416 17.1989 20.9637 15.3059 21.7633L15.3058 21.7634C13.8868 22.3633 12.972 22.75 12 22.75C11.028 22.75 10.1132 22.3633 8.69413 21.7633C6.80103 20.9637 5.09172 20.2416 4.07333 19.6305C3.06734 19.0268 2.25 18.2817 2.25 17.1613ZM12 3.15905C11.3303 3.15905 10.6847 3.44014 8.84245 4.31288L5.99428 5.66216C5.18359 6.04622 4.6757 6.28953 4.35735 6.49996C4.6757 6.71039 5.18359 6.9537 5.99428 7.33776L7.06862 7.84671L14.7148 4.10383C13.2059 3.39458 12.613 3.15905 12 3.15905ZM16.9314 5.15321L9.2852 8.8961C10.7941 9.60535 11.387 9.84087 12 9.84087C12.6697 9.84087 13.3153 9.55979 15.1575 8.68705L18.0057 7.33776C18.8164 6.95371 19.3243 6.71039 19.6427 6.49996C19.3243 6.28953 18.8164 6.04622 18.0057 5.66216L16.9314 5.15321ZM6.33557 11.3292C5.96509 11.1439 5.51459 11.2941 5.32934 11.6646C5.1441 12.0351 5.29427 12.4856 5.66475 12.6708L7.66475 13.6708C8.03524 13.856 8.48574 13.7059 8.67098 13.3354C8.85623 12.9649 8.70606 12.5144 8.33557 12.3292L6.33557 11.3292Z" fill="#141B34"/>
</svg>
