<svg width="24" height="24" viewBox="0 0 24 24" fill="none" xmlns="http://www.w3.org/2000/svg">
<path fill-rule="evenodd" clip-rule="evenodd" d="M6.99191 10.6388C7.18421 10.0914 7.53882 9.52676 8.31125 8.31966L9.80809 5.9805C9.9 5.83688 10.0587 5.75 10.2292 5.75H13.7708C13.9413 5.75 14.1 5.83688 14.1919 5.9805L15.6888 8.31966C16.4612 9.52675 16.8158 10.0914 17.0081 10.6388L16.9611 10.6618C16.752 10.764 16.5466 10.8628 16.3403 10.951C15.9178 11.1318 15.5525 11.2408 15.2434 11.2493C14.8186 11.2609 14.4493 11.1165 13.9255 10.8915L13.8658 10.8658L13.8657 10.8657L13.8656 10.8657L13.8655 10.8657C13.7416 10.8122 13.6079 10.7546 13.4648 10.6985C13.1629 10.5802 13.0119 10.521 12.881 10.6103C12.75 10.6996 12.75 10.8742 12.75 11.2236L12.75 22.1499C12.75 22.4327 12.75 22.5742 12.8379 22.662C12.9257 22.7499 13.0672 22.7499 13.35 22.7499H17.9872C17.9915 22.75 17.9957 22.75 18 22.75C18.4142 22.75 18.75 22.4142 18.75 22L18.75 13.576C18.7501 12.769 18.7502 12.1377 18.7083 11.5916C18.6901 11.3515 18.6639 11.1294 18.6264 10.9179C18.6249 10.9096 18.6233 10.9014 18.6216 10.8932C18.5908 10.7242 18.5528 10.5605 18.5057 10.3984C18.2607 9.55532 17.7889 8.81825 17.0154 7.6099L14.2658 3.31296L14.2658 3.31292C13.9153 2.76518 13.6083 2.28538 13.3171 1.9496C13.0109 1.59664 12.5936 1.25 12 1.25C11.4064 1.25 10.9891 1.59664 10.683 1.9496C10.3917 2.28538 10.0847 2.7652 9.73425 3.31295L6.9846 7.60989C6.21115 8.81825 5.73937 9.55532 5.49436 10.3984C5.44731 10.5603 5.40931 10.7237 5.37862 10.8924C5.37682 10.9009 5.37516 10.9094 5.37364 10.9179C5.33459 11.1378 5.30787 11.3691 5.28959 11.6202C5.25112 12.1423 5.24995 12.7429 5.25 13.4997C5.25 13.5383 5.25 13.5773 5.25 13.6168L5.25 21.9999C5.25 22.0321 5.25203 22.0637 5.25596 22.0948C5.30258 22.4643 5.61793 22.75 6.00002 22.75C6.00429 22.75 6.00855 22.75 6.01281 22.7499H10.65C10.9328 22.7499 11.0743 22.7499 11.1621 22.662C11.25 22.5742 11.25 22.4327 11.25 22.1499L11.25 11.2236C11.25 10.8743 11.25 10.6996 11.119 10.6103C10.9881 10.521 10.8371 10.5802 10.5352 10.6986C10.392 10.7547 10.2582 10.8123 10.1342 10.8658L10.0745 10.8915C9.55075 11.1165 9.18139 11.2609 8.75657 11.2493C8.44747 11.2408 8.08217 11.1318 7.65971 10.951C7.45346 10.8628 7.24797 10.764 7.03889 10.6618L6.99191 10.6388Z" fill="#141B34"/>
</svg>
