<svg width="24" height="24" viewBox="0 0 24 24" fill="none" xmlns="http://www.w3.org/2000/svg">
<path fill-rule="evenodd" clip-rule="evenodd" d="M19.8841 4.11599C20.3723 4.60415 20.3723 5.39561 19.8841 5.88376L5.88413 19.8838C5.39597 20.3719 4.60452 20.3719 4.11636 19.8838C3.62821 19.3956 3.62821 18.6041 4.11636 18.116L18.1164 4.11599C18.6045 3.62784 19.396 3.62784 19.8841 4.11599Z" fill="#141B34"/>
<path fill-rule="evenodd" clip-rule="evenodd" d="M4.11636 4.11599C4.60452 3.62784 5.39597 3.62784 5.88413 4.11599L19.8841 18.116C20.3723 18.6041 20.3723 19.3956 19.8841 19.8838C19.396 20.3719 18.6045 20.3719 18.1164 19.8838L4.11636 5.88376C3.62821 5.39561 3.62821 4.60415 4.11636 4.11599Z" fill="#141B34"/>
</svg>
