<svg width="24" height="24" viewBox="0 0 24 24" fill="none" xmlns="http://www.w3.org/2000/svg">
<path d="M10.7273 22H15C15.9293 22 16.394 22 16.7804 21.9231C18.3671 21.6075 19.6075 20.3671 19.9231 18.7804C20 18.394 20 17.9293 20 17V7.81818C20 6.12494 20 5.27832 19.732 4.60214C19.3012 3.5151 18.3902 2.65765 17.2352 2.2522C16.5168 2 15.6173 2 13.8182 2C10.6698 2 9.09563 2 7.83836 2.44135C5.81714 3.15088 4.22281 4.65142 3.46894 6.55375C3 7.73706 3 9.21865 3 12.1818V14.7273C3 17.7966 3 19.3313 3.8477 20.3971C4.09058 20.7025 4.37862 20.9736 4.70307 21.2022C5.83546 22 7.46607 22 10.7273 22Z" fill="#D4D7E0"/>
<path d="M3.46911 6.55162C3.06733 7.56549 3.00979 8.79833 3.00155 10.9944C3.33781 10.16 4.90511 8.49787 8.50018 8.49787C8.80159 8.49787 9.59225 8.19462 9.55133 6.55162C9.53453 5.05584 10.0838 2.08608 12.3964 1.99979C10.1643 2.00964 8.89048 2.06995 7.83854 2.43922C5.81731 3.14875 4.22299 4.64929 3.46911 6.55162Z" fill="white"/>
<path d="M21.0002 19.0826V15.9174C21.0002 14.1482 21.0002 13.2636 20.4601 13.0435C19.9199 12.8233 19.2842 13.4488 18.0128 14.6998C17.3509 15.351 16.9662 15.4911 16.0419 15.4911C15.2226 15.4911 14.813 15.4911 14.5187 15.6846C13.9152 16.0814 14.0002 16.8627 14.0002 17.5C14.0002 18.1373 13.9152 18.9186 14.5187 19.3154C14.813 19.5089 15.2226 19.5089 16.0419 19.5089C16.9662 19.5089 17.3509 19.649 18.0128 20.3002C19.2842 21.5512 19.9199 22.1767 20.4601 21.9565C21.0002 21.7364 21.0002 20.8518 21.0002 19.0826Z" fill="white"/>
<path d="M21.0002 19.0826V15.9174C21.0002 14.1482 21.0002 13.2636 20.4601 13.0435C19.9199 12.8233 19.2842 13.4488 18.0128 14.6998C17.3509 15.351 16.9662 15.4911 16.0419 15.4911C15.2226 15.4911 14.813 15.4911 14.5187 15.6846C13.9152 16.0814 14.0002 16.8627 14.0002 17.5C14.0002 18.1373 13.9152 18.9186 14.5187 19.3154C14.813 19.5089 15.2226 19.5089 16.0419 19.5089C16.9662 19.5089 17.3509 19.649 18.0128 20.3002C19.2842 21.5512 19.9199 22.1767 20.4601 21.9565C21.0002 21.7364 21.0002 20.8518 21.0002 19.0826Z" stroke="#141B34" stroke-width="1.5" stroke-linecap="round" stroke-linejoin="round"/>
<path d="M12 22H10.7273C7.46607 22 5.83546 22 4.70307 21.2022C4.37862 20.9736 4.09058 20.7025 3.8477 20.3971C3 19.3313 3 17.7966 3 14.7273V12.1818C3 9.21865 3 7.73706 3.46894 6.55375C4.22281 4.65142 5.81714 3.15088 7.83836 2.44135C9.09563 2 10.6698 2 13.8182 2C15.6173 2 16.5168 2 17.2352 2.2522C18.3902 2.65765 19.3012 3.5151 19.732 4.60214C20 5.27832 20 6.12494 20 7.81818V10" stroke="#141B34" stroke-width="1.5" stroke-linecap="round" stroke-linejoin="round"/>
<path d="M3 12C3 10.1591 4.49238 8.66667 6.33333 8.66667C6.99912 8.66667 7.78404 8.78333 8.43137 8.60988C9.00652 8.45576 9.45576 8.00652 9.60988 7.43136C9.78333 6.78404 9.66667 5.99912 9.66667 5.33333C9.66667 3.49238 11.1591 2 13 2" stroke="#141B34" stroke-width="1.5" stroke-linecap="round" stroke-linejoin="round"/>
</svg>
