<svg width="24" height="24" viewBox="0 0 24 24" fill="none" xmlns="http://www.w3.org/2000/svg">
<path d="M20.5 12.0142V7.82646C20.5 6.13082 20.5 5.283 20.232 4.60587C19.8012 3.51728 18.8902 2.65861 17.7352 2.25259C17.0168 2.00003 16.1173 2.00003 14.3182 2.00003H14.3182C11.1698 2.00003 9.59563 2.00003 8.33836 2.44201C6.31714 3.15255 4.72281 4.65521 3.96894 6.56024C3.5 7.74523 3.5 9.22892 3.5 12.1963V13H20.5V12.0142Z" fill="#D4D7E0"/>
<path d="M4.46716 6.55162C4.06537 7.56549 4.00784 8.79833 3.9996 10.9944C4.33585 10.16 5.90316 8.49787 9.49822 8.49787C9.79963 8.49787 10.5903 8.19462 10.5494 6.55162C10.5326 5.05584 11.0818 2.08608 13.3944 1.99979C11.1623 2.00964 9.88853 2.06995 8.83659 2.43922C6.81536 3.14875 5.22104 4.64929 4.46716 6.55162Z" fill="white"/>
<path d="M3.5 13V12.1963C3.5 9.22892 3.5 7.74523 3.96894 6.56024C4.72281 4.65521 6.31714 3.15255 8.33836 2.44201C9.59563 2.00003 11.1698 2.00003 14.3182 2.00003C16.1173 2.00003 17.0168 2.00003 17.7352 2.25259C18.8902 2.65861 19.8012 3.51728 20.232 4.60587C20.5 5.283 20.5 6.13082 20.5 7.82646V12.0142V13" stroke="#141B34" stroke-width="1.5" stroke-linecap="round" stroke-linejoin="round"/>
<path d="M3.5 12C3.5 10.1591 4.99238 8.66667 6.83333 8.66667C7.49912 8.66667 8.28404 8.78333 8.93137 8.60988C9.50652 8.45576 9.95576 8.00652 10.1099 7.43136C10.2833 6.78404 10.1667 5.99912 10.1667 5.33333C10.1667 3.49238 11.6591 2 13.5 2" stroke="#141B34" stroke-width="1.5" stroke-linecap="round" stroke-linejoin="round"/>
<path d="M3.5 12C3.5 10.1591 4.99238 8.66667 6.83333 8.66667C7.49912 8.66667 8.28404 8.78333 8.93137 8.60988C9.50652 8.45576 9.95576 8.00652 10.1099 7.43136C10.2833 6.78404 10.1667 5.99912 10.1667 5.33333C10.1667 3.49238 11.6591 2 13.5 2" stroke="#141B34" stroke-width="1.5" stroke-linecap="round" stroke-linejoin="round"/>
<path d="M7.5 17.2196C7.44458 16.0292 6.62155 16 5.50505 16C3.78514 16 3.5 16.406 3.5 18V20C3.5 21.594 3.78514 22 5.50505 22C6.62154 22 7.44458 21.9708 7.5 20.7804M20.5 16L18.7229 20.6947C18.3935 21.5649 18.2288 22 17.968 22C17.7071 22 17.5424 21.5649 17.213 20.6947L15.4359 16M12.876 16H11.6951C11.2231 16 10.9872 16 10.8011 16.0761C10.1672 16.3354 10.1758 16.9448 10.1758 17.5C10.1758 18.0553 10.1672 18.6647 10.8011 18.9239C10.9872 19 11.2232 19 11.6951 19C12.167 19 12.4029 19 12.5891 19.0761C13.2229 19.3354 13.2143 19.9447 13.2143 20.5C13.2143 21.0553 13.2229 21.6647 12.5891 21.9239C12.4029 22 12.167 22 11.6951 22H10.4089" stroke="#141B34" stroke-width="1.5" stroke-linecap="round"/>
</svg>
