<svg width="24" height="24" viewBox="0 0 24 24" fill="none" xmlns="http://www.w3.org/2000/svg">
<path d="M10.7273 22H15C15.9293 22 16.394 22 16.7804 21.9231C18.3671 21.6075 19.6075 20.3671 19.9231 18.7804C20 18.394 20 17.9293 20 17V7.81818C20 6.12494 20 5.27832 19.732 4.60214C19.3012 3.5151 18.3902 2.65765 17.2352 2.2522C16.5168 2 15.6173 2 13.8182 2C10.6698 2 9.09563 2 7.83836 2.44135C5.81714 3.15088 4.22281 4.65142 3.46894 6.55375C3 7.73706 3 9.21865 3 12.1818V14.7273C3 17.7966 3 19.3313 3.8477 20.3971C4.09058 20.7025 4.37862 20.9736 4.70307 21.2022C5.83546 22 7.46607 22 10.7273 22Z" fill="#D4D7E0"/>
<path d="M3.46716 6.55162C3.06537 7.56549 3.00784 8.79833 2.9996 10.9944C3.33585 10.16 4.90316 8.49787 8.49822 8.49787C8.79963 8.49787 9.5903 8.19462 9.54938 6.55162C9.53257 5.05584 10.0818 2.08608 12.3944 1.99979C10.1623 2.00964 8.88853 2.06995 7.83659 2.43922C5.81536 3.14875 4.22104 4.64929 3.46716 6.55162Z" fill="white"/>
<circle cx="16.5" cy="18.5" r="3.5" fill="white"/>
<path d="M20 12.1822V7.81855C20 6.12531 20 5.27869 19.732 4.60251C19.3012 3.51547 18.3902 2.65802 17.2352 2.25257C16.5168 2.00037 15.6173 2.00037 13.8182 2.00037C10.6698 2.00037 9.09563 2.00037 7.83836 2.44172C5.81714 3.15125 4.22281 4.65179 3.46894 6.55412C3 7.73743 3 9.21901 3 12.1822V14.7276C3 17.797 3 19.3317 3.8477 20.3975C4.09058 20.7028 4.37862 20.9739 4.70307 21.2025C5.74797 21.9387 7.21706 21.9956 10 22" stroke="#141B34" stroke-width="1.5" stroke-linecap="round" stroke-linejoin="round"/>
<path d="M3 12C3 10.1591 4.49238 8.66667 6.33333 8.66667C6.99912 8.66667 7.78404 8.78333 8.43137 8.60988C9.00652 8.45576 9.45576 8.00652 9.60988 7.43136C9.78333 6.78404 9.66667 5.99912 9.66667 5.33333C9.66667 3.49238 11.1591 2 13 2" stroke="#141B34" stroke-width="1.5" stroke-linecap="round" stroke-linejoin="round"/>
<path d="M12 17L13.0228 17.5944C13.5374 15.7277 15.5114 14.6199 17.4318 15.1201C18.4149 15.3761 19.1934 16.0039 19.6501 16.806M21 20L19.9774 19.4056C19.4628 21.2723 17.4888 22.3801 15.5684 21.8799C14.6081 21.6298 13.8431 21.0251 13.3824 20.2496" stroke="#141B34" stroke-width="1.5" stroke-linecap="round" stroke-linejoin="round"/>
</svg>
