<svg width="24" height="24" viewBox="0 0 24 24" fill="none" xmlns="http://www.w3.org/2000/svg">
<path d="M17.7352 2.25486C17.0168 2.00266 16.1173 2.00266 14.3182 2.00266C11.1698 2.00266 9.59563 2.00266 8.33836 2.44401C6.31714 3.15355 4.72282 4.65408 3.96894 6.55641C3.5 7.73972 3.5 9.22131 3.5 12.1845L3.5 13.0156L20.5 13.0156L20.5 7.82084C20.5 6.1276 20.5 5.28098 20.232 4.6048C19.8012 3.51776 18.8902 2.66031 17.7352 2.25486Z" fill="#D4D7E0"/>
<path d="M6.83333 8.66667C4.99238 8.66667 3.5 10.1591 3.5 12C3.16667 10.5 3 6.9 5 4.5C6.16667 3.33333 9.5 1.2 13.5 2C11.6591 2 10.1667 3.49238 10.1667 5.33333C10.1667 5.99912 10.2833 6.78404 10.1099 7.43136C9.95576 8.00652 9.50652 8.45576 8.93137 8.60988C8.28404 8.78333 7.49912 8.66667 6.83333 8.66667Z" fill="white"/>
<path d="M5.5 16H4.7C4.13431 16 3.85147 16 3.67574 16.1757C3.5 16.3515 3.5 16.6343 3.5 17.2V19H5.5C6.32843 19 7 18.3284 7 17.5C7 16.6716 6.32843 16 5.5 16Z" fill="white"/>
<path d="M10 17C10 16.6624 9.96665 16.2728 10.3 16.0804C10.4392 16 10.6262 16 11 16C12.6569 16 14 17.3431 14 19C14 20.6569 12.6569 22 11 22C10.6262 22 10.4392 22 10.3 21.9196C9.96665 21.7272 10 21.3376 10 21V17Z" fill="white"/>
<path d="M3.5 13V12.1963C3.5 9.22892 3.5 7.74523 3.96894 6.56024C4.72281 4.65521 6.31714 3.15255 8.33836 2.44201C9.59563 2.00003 11.1698 2.00003 14.3182 2.00003C16.1173 2.00003 17.0168 2.00003 17.7352 2.25259C18.8902 2.65861 19.8012 3.51728 20.232 4.60587C20.5 5.283 20.5 6.13082 20.5 7.82646V12.0142V13" stroke="#141B34" stroke-width="1.5" stroke-linecap="round" stroke-linejoin="round"/>
<path d="M3.5 12C3.5 10.1591 4.99238 8.66667 6.83333 8.66667C7.49912 8.66667 8.28404 8.78333 8.93137 8.60988C9.50652 8.45576 9.95576 8.00652 10.1099 7.43136C10.2833 6.78404 10.1667 5.99912 10.1667 5.33333C10.1667 3.49238 11.6591 2 13.5 2" stroke="#141B34" stroke-width="1.5" stroke-linecap="round" stroke-linejoin="round"/>
<path d="M3.5 22V19M3.5 19V17.2C3.5 16.6343 3.5 16.3515 3.67574 16.1757C3.85147 16 4.13431 16 4.7 16H5.5C6.32843 16 7 16.6716 7 17.5C7 18.3284 6.32843 19 5.5 19H3.5ZM20.5 16H19C18.0572 16 17.5858 16 17.2929 16.2929C17 16.5858 17 17.0572 17 18V19M17 22V19M17 19H19.5M14 19C14 20.6569 12.6569 22 11 22C10.6262 22 10.4392 22 10.3 21.9196C9.96665 21.7272 10 21.3376 10 21V17C10 16.6624 9.96665 16.2728 10.3 16.0804C10.4392 16 10.6262 16 11 16C12.6569 16 14 17.3431 14 19Z" stroke="#141B34" stroke-width="1.5" stroke-linecap="round" stroke-linejoin="round"/>
</svg>
