<svg width="24" height="25" viewBox="0 0 24 25" fill="none" xmlns="http://www.w3.org/2000/svg">
<path fill-rule="evenodd" clip-rule="evenodd" d="M11.9981 1.75C10.3168 1.75 8.94996 2.31794 7.75783 2.93555C7.3976 3.12217 7.06295 3.30678 6.74316 3.48319L6.74312 3.48321L6.7431 3.48322C5.96064 3.91486 5.26717 4.2974 4.5056 4.54039C4.05832 4.6831 3.66209 4.80951 3.38117 4.9196C3.11675 5.02321 2.8025 5.1652 2.57954 5.41299C2.37926 5.63558 2.27636 5.88547 2.20814 6.1245C2.14621 6.34148 2.09328 6.63523 2.04249 6.91705C0.804551 13.7827 3.51154 20.287 10.122 22.8179C10.7718 23.0667 11.2503 23.25 12.0014 23.25C12.7524 23.25 13.2309 23.0667 13.8807 22.8179C20.4909 20.2869 23.1952 13.7824 21.9569 6.917C21.9061 6.63515 21.8532 6.34133 21.7912 6.12434C21.723 5.88529 21.6201 5.63537 21.4197 5.41278C21.1967 5.16499 20.8825 5.02304 20.618 4.91946C20.3371 4.80941 19.9409 4.68307 19.4937 4.54044C18.7317 4.29744 18.0376 3.91479 17.2546 3.48309L17.2545 3.48308L17.2544 3.48301C16.9345 3.30664 16.5998 3.1221 16.2395 2.93554C15.0467 2.31795 13.6794 1.75 11.9981 1.75ZM13 7.5C13 6.94772 12.5523 6.5 12 6.5C11.4477 6.5 11 6.94772 11 7.5V9.5C11 10.0523 11.4477 10.5 12 10.5C12.5523 10.5 13 10.0523 13 9.5V7.5Z" fill="#141B34"/>
</svg>
