<svg width="24" height="24" viewBox="0 0 24 24" fill="none" xmlns="http://www.w3.org/2000/svg">
<path d="M18.8416 11.491H19.5916V11.4713L19.5906 11.4516L18.8416 11.491ZM18.8416 14H18.0916V14.279L18.2739 14.4901L18.8416 14ZM21 19V19.75H21.75V19H21ZM21 16.5H21.75C21.75 16.32 21.6853 16.1461 21.5677 16.0099L21 16.5ZM5.15837 11.491L4.4094 11.4516L4.40837 11.4713V11.491H5.15837ZM5.15837 14L5.72607 14.4901L5.90837 14.279V14H5.15837ZM3 19H2.25V19.75H3V19ZM3 16.5L2.4323 16.0099C2.3147 16.1461 2.25 16.32 2.25 16.5H3ZM12 5.75C15.2449 5.75 17.9221 8.28999 18.0927 11.5304L19.5906 11.4516C19.3781 7.41446 16.0427 4.25 12 4.25V5.75ZM18.0916 11.491V14H19.5916V11.491H18.0916ZM18.2739 14.4901L20.4323 16.9901L21.5677 16.0099L19.4093 13.5099L18.2739 14.4901ZM20.25 16.5V19H21.75V16.5H20.25ZM12 4.25C7.95728 4.25 4.62189 7.41446 4.4094 11.4516L5.90733 11.5304C6.07788 8.28999 8.75507 5.75 12 5.75V4.25ZM4.40837 11.491V14H5.90837V11.491H4.40837ZM3 19.75H21V18.25H3V19.75ZM4.59067 13.5099L2.4323 16.0099L3.5677 16.9901L5.72607 14.4901L4.59067 13.5099ZM2.25 16.5V19H3.75V16.5H2.25Z" fill="#141B34"/>
<path d="M10.5 3.5C10.5 4.32843 11.1716 5 12 5C12.8284 5 13.5 4.32843 13.5 3.5C13.5 2.67157 12.8284 2 12 2C11.1716 2 10.5 2.67157 10.5 3.5Z" stroke="#141B34" stroke-width="1.5" stroke-linejoin="round"/>
<path d="M15 19C15 20.6569 13.6569 22 12 22C10.3431 22 9 20.6569 9 19" stroke="#141B34" stroke-width="1.5" stroke-linejoin="round"/>
</svg>
