<svg width="24" height="24" viewBox="0 0 24 24" fill="none" xmlns="http://www.w3.org/2000/svg">
<path d="M21.5 22L21.2628 22.7115C21.52 22.7972 21.8033 22.7375 22.004 22.5554C22.2047 22.3733 22.2915 22.097 22.2311 21.8328L21.5 22ZM15.5 22L14.7689 21.8328C14.7085 22.097 14.7953 22.3733 14.996 22.5554C15.1967 22.7375 15.48 22.7972 15.7372 22.7115L15.5 22ZM18.5 21L18.7372 20.2885L18.5 20.2094L18.2628 20.2885L18.5 21ZM18.375 12.75H18.625V11.25H18.375V12.75ZM18.625 18H18.375V19.5H18.625V18ZM18.625 12.75C20.0747 12.75 21.25 13.9253 21.25 15.375H22.75C22.75 13.0968 20.9032 11.25 18.625 11.25V12.75ZM18.375 11.25C16.0968 11.25 14.25 13.0968 14.25 15.375H15.75C15.75 13.9253 16.9253 12.75 18.375 12.75V11.25ZM21.25 15.375C21.25 16.2474 20.8252 17.0205 20.1678 17.499L21.0507 18.7117C22.0791 17.963 22.75 16.7473 22.75 15.375H21.25ZM20.1678 17.499C19.7348 17.8142 19.2027 18 18.625 18V19.5C19.5305 19.5 20.3698 19.2074 21.0507 18.7117L20.1678 17.499ZM18.375 18C17.7973 18 17.2652 17.8142 16.8322 17.499L15.9493 18.7117C16.6302 19.2074 17.4695 19.5 18.375 19.5V18ZM16.8322 17.499C16.1748 17.0205 15.75 16.2474 15.75 15.375H14.25C14.25 16.7473 14.9209 17.963 15.9493 18.7117L16.8322 17.499ZM19.8781 18.2726L20.7689 22.1672L22.2311 21.8328L21.3404 17.9382L19.8781 18.2726ZM16.2311 22.1672L17.1219 18.2726L15.6596 17.9382L14.7689 21.8328L16.2311 22.1672ZM21.7372 21.2885L18.7372 20.2885L18.2628 21.7115L21.2628 22.7115L21.7372 21.2885ZM18.2628 20.2885L15.2628 21.2885L15.7372 22.7115L18.7372 21.7115L18.2628 20.2885Z" fill="#141B34"/>
<path d="M13 11C13 12.1046 12.1046 13 11 13C9.89543 13 9 12.1046 9 11C9 9.89543 9.89543 9 11 9C12.1046 9 13 9.89543 13 11Z" stroke="#141B34" stroke-width="1.5" stroke-linejoin="round"/>
<path d="M20 9.13119C19.1303 5.05749 15.4752 2 11.0982 2C6.0734 2 2 6.02944 2 11C2 15.9706 6.0734 20 11.0982 20C11.5749 20 12.0431 19.9637 12.5 19.8938" stroke="#141B34" stroke-width="1.5" stroke-linejoin="round"/>
<path d="M17.3633 4.63574L15.242 6.75706" stroke="#141B34" stroke-width="1.5" stroke-linejoin="round"/>
<path d="M6.75781 15.2422L4.63649 17.3635" stroke="#141B34" stroke-width="1.5" stroke-linejoin="round"/>
</svg>
