<svg width="24" height="24" viewBox="0 0 24 24" fill="none" xmlns="http://www.w3.org/2000/svg">
<path d="M6.15 15.15H6.9H6.15ZM17.85 15.15H18.6H17.85ZM12.6136 6.6V5.85H12.6136L12.6136 6.6ZM15.5081 6.82698L15.7702 6.12427L15.5081 6.82698ZM17.85 11.8364H17.1H17.85ZM17.623 8.94193L18.3257 8.67983L17.623 8.94193ZM11.3864 6.6V7.35H11.3864L11.3864 6.6ZM8.49193 6.82698L8.22983 6.12427L8.49193 6.82698ZM6.15 11.8364H5.4H6.15ZM6.37698 8.94193L5.67427 8.67983L6.37698 8.94193ZM3 5.25H3.75H3ZM11.3864 7.35L12.6136 7.35L12.6136 5.85L11.3864 5.85L11.3864 7.35ZM17.1 11.8364L17.1 15.15H18.6L18.6 11.8364H17.1ZM6.9 15.15L6.9 11.8364H5.4L5.4 15.15H6.9ZM12 20.25C9.18335 20.25 6.9 17.9667 6.9 15.15H5.4C5.4 18.7951 8.35492 21.75 12 21.75V20.25ZM17.1 15.15C17.1 17.9667 14.8167 20.25 12 20.25V21.75C15.6451 21.75 18.6 18.7951 18.6 15.15H17.1ZM12.6136 7.35C13.3849 7.35 13.9292 7.35034 14.3576 7.37693C14.7801 7.40316 15.04 7.45287 15.246 7.52969L15.7702 6.12427C15.3676 5.97411 14.9422 5.91033 14.4506 5.87981C13.9649 5.84966 13.3663 5.85 12.6136 5.85V7.35ZM18.6 11.8364C18.6 11.0837 18.6003 10.4851 18.5702 9.99942C18.5397 9.50782 18.4759 9.08242 18.3257 8.67983L16.9203 9.20403C16.9971 9.41 17.0468 9.66986 17.0731 10.0924C17.0997 10.5208 17.1 11.0651 17.1 11.8364H18.6ZM11.3864 5.85C10.6337 5.85 10.0351 5.84966 9.54942 5.87981C9.05782 5.91033 8.63242 5.97411 8.22983 6.12427L8.75403 7.52969C8.96 7.45287 9.21986 7.40316 9.64236 7.37693C10.0708 7.35034 10.6151 7.35 11.3864 7.35V5.85ZM6.9 11.8364C6.9 11.0651 6.90034 10.5208 6.92693 10.0924C6.95316 9.66986 7.00287 9.41 7.07969 9.20403L5.67427 8.67983C5.52411 9.08242 5.46033 9.50782 5.42981 9.99942C5.39966 10.4851 5.4 11.0837 5.4 11.8364H6.9ZM17.85 13.65H21V12.15H17.85V13.65ZM6.15 12.15H3V13.65H6.15V12.15ZM3.75 5.25V5H2.25V5.25H3.75ZM6.15 7.65C4.82452 7.65 3.75 6.57548 3.75 5.25H2.25C2.25 7.40391 3.99609 9.15 6.15 9.15V7.65ZM21.75 5.25V5H20.25V5.25H21.75ZM17.85 9.15C20.0039 9.15 21.75 7.40391 21.75 5.25H20.25C20.25 6.57548 19.1755 7.65 17.85 7.65V9.15ZM6.6 16.65C4.19756 16.65 2.25 18.5976 2.25 21H3.75C3.75 19.426 5.02599 18.15 6.6 18.15V16.65ZM17.4 18.15C18.974 18.15 20.25 19.426 20.25 21H21.75C21.75 18.5976 19.8024 16.65 17.4 16.65V18.15ZM12.75 21V16.5H11.25V21H12.75ZM15.246 7.52969C15.871 7.7628 16.3895 8.20565 16.7182 8.77499L18.0172 8.02501C17.5156 7.15607 16.7242 6.48011 15.7702 6.12427L15.246 7.52969ZM16.7182 8.77499C16.7968 8.91111 16.8645 9.05448 16.9203 9.20403L18.3257 8.67983C18.2407 8.45173 18.1372 8.23287 18.0172 8.02501L16.7182 8.77499ZM17.85 7.65H17.3677V9.15H17.85V7.65ZM8.22983 6.12427C7.27578 6.48011 6.48442 7.15608 5.98275 8.02501L7.2818 8.77499C7.6105 8.20565 8.12903 7.7628 8.75403 7.52969L8.22983 6.12427ZM5.98275 8.02501C5.86275 8.23287 5.75934 8.45173 5.67427 8.67983L7.07969 9.20403C7.13547 9.05449 7.20322 8.91111 7.2818 8.77499L5.98275 8.02501ZM6.15 9.15H6.63228V7.65H6.15V9.15ZM15.25 6.5V5.5H13.75V6.5H15.25ZM8.75 5.5V6.5H10.25V5.5H8.75ZM12 2.25C10.2051 2.25 8.75 3.70507 8.75 5.5H10.25C10.25 4.5335 11.0335 3.75 12 3.75V2.25ZM15.25 5.5C15.25 3.70507 13.7949 2.25 12 2.25V3.75C12.9665 3.75 13.75 4.5335 13.75 5.5H15.25Z" fill="#141B34"/>
</svg>
