<svg width="24" height="24" viewBox="0 0 24 24" fill="none" xmlns="http://www.w3.org/2000/svg">
<path d="M9 15H8.25V15.75H9V15ZM9 11.5L8.46967 10.9697L8.25 11.1893V11.5H9ZM12.5 15V15.75H12.8107L13.0303 15.5303L12.5 15ZM18.5 2L19.0303 1.46967C18.8897 1.32902 18.6989 1.25 18.5 1.25C18.3011 1.25 18.1103 1.32902 17.9697 1.46967L18.5 2ZM22 5.5L22.5303 6.03033C22.8232 5.73744 22.8232 5.26256 22.5303 4.96967L22 5.5ZM9.75 15V11.5H8.25V15H9.75ZM9 15.75H12.5V14.25H9V15.75ZM9.53033 12.0303L19.0303 2.53033L17.9697 1.46967L8.46967 10.9697L9.53033 12.0303ZM17.9697 2.53033L21.4697 6.03033L22.5303 4.96967L19.0303 1.46967L17.9697 2.53033ZM21.4697 4.96967L11.9697 14.4697L13.0303 15.5303L22.5303 6.03033L21.4697 4.96967Z" fill="#141B34"/>
<path d="M6 15H3.75C2.7835 15 2 15.7835 2 16.75C2 17.7165 2.7835 18.5 3.75 18.5H13.25C14.2165 18.5 15 19.2835 15 20.25C15 21.2165 14.2165 22 13.25 22H11" stroke="#141B34" stroke-width="1.5" stroke-linejoin="round"/>
</svg>
