<svg width="24" height="24" viewBox="0 0 24 24" fill="none" xmlns="http://www.w3.org/2000/svg">
<path d="M19.75 22V22.75H21.25V22H19.75ZM3.5 22H2.75C2.75 22.4142 3.08579 22.75 3.5 22.75V22ZM20.5 2H21.25C21.25 1.58579 20.9142 1.25 20.5 1.25V2ZM10.5 2V1.25H10.1893L9.96967 1.46967L10.5 2ZM3.5 9L2.96967 8.46967L2.75 8.68934V9H3.5ZM10.5 9V9.75H11.25V9H10.5ZM19.75 2V22H21.25V2H19.75ZM20.5 1.25H10.5V2.75H20.5V1.25ZM2.75 9V22H4.25V9H2.75ZM9.96967 1.46967L2.96967 8.46967L4.03033 9.53033L11.0303 2.53033L9.96967 1.46967ZM9.75 2V9H11.25V2H9.75ZM10.5 8.25H3.5V9.75H10.5V8.25ZM10 21.25H3.5V22.75H10V21.25Z" fill="#141B34"/>
<path d="M12.5 19.0991V22H17V19.0991C17 18.304 16.5185 17.5772 15.7562 17.2216C15.1228 16.9261 14.3772 16.9261 13.7438 17.2216C12.9815 17.5772 12.5 18.304 12.5 19.0991Z" stroke="#141B34" stroke-width="1.5" stroke-linecap="round"/>
<path d="M16 5.5H18M13 7.5H15M16 9.6H18M13 12H15M16 14H18" stroke="#141B34" stroke-width="1.5" stroke-linejoin="round"/>
</svg>
