<svg width="24" height="24" viewBox="0 0 24 24" fill="none" xmlns="http://www.w3.org/2000/svg">
<path d="M22 21V21.75C22.4142 21.75 22.75 21.4142 22.75 21H22ZM2 21H1.25C1.25 21.4142 1.58579 21.75 2 21.75V21ZM22 7H22.75C22.75 6.58579 22.4142 6.25 22 6.25V7ZM9 3.00001L9.6 2.55001L9.375 2.25001L9 2.25001L9 3.00001ZM2 3L2 2.25C1.80109 2.25 1.61032 2.32902 1.46967 2.46967C1.32902 2.61032 1.25 2.80109 1.25 3H2ZM22 20.25H2V21.75H22V20.25ZM7 7.75H22V6.25H7V7.75ZM8.4 3.45001L11.4 7.45L12.6 6.55L9.6 2.55001L8.4 3.45001ZM2.75 21V3H1.25V21H2.75ZM9 2.25001L2 2.25L2 3.75L9 3.75001L9 2.25001ZM21.25 7V21H22.75V7H21.25Z" fill="#141B34"/>
</svg>
