<svg width="24" height="24" viewBox="0 0 24 24" fill="none" xmlns="http://www.w3.org/2000/svg">
<path d="M20 8H20.75C20.75 7.58579 20.4142 7.25 20 7.25V8ZM8 5L8.57617 4.51986L8.35128 4.25H8V5ZM2 5V4.25C1.58579 4.25 1.25 4.58579 1.25 5H2ZM6 8.75H20V7.25H6V8.75ZM7.42383 5.48014L9.92383 8.48014L11.0762 7.51986L8.57617 4.51986L7.42383 5.48014ZM2.75 22V5H1.25V22H2.75ZM8 4.25H2V5.75H8V4.25ZM19.25 8V12H20.75V8H19.25Z" fill="#141B34"/>
<path d="M2 22H18L22 12H6L2 22Z" stroke="#141B34" stroke-width="1.5" stroke-linecap="round" stroke-linejoin="round"/>
<path d="M20.5112 5V5.75H20.0187L19.823 5.29813L20.5112 5ZM21.0711 5L21.7741 5.26123L21.5925 5.75H21.0711V5ZM19.823 5.29813C19.1714 3.794 17.6867 2.75 15.9663 2.75V1.25C18.3115 1.25 20.321 2.67419 21.1994 4.70187L19.823 5.29813ZM15.9663 2.75C14.5929 2.75 13.3715 3.41411 12.6015 4.44797L11.3985 3.55203C12.4374 2.157 14.0959 1.25 15.9663 1.25V2.75ZM20.5112 4.25H21.0711V5.75H20.5112V4.25ZM20.368 4.73877L21.297 2.23877L22.703 2.76123L21.7741 5.26123L20.368 4.73877Z" fill="#141B34"/>
</svg>
