<svg width="24" height="24" viewBox="0 0 24 24" fill="none" xmlns="http://www.w3.org/2000/svg">
<path d="M18.9999 8.5V6.50008L5.00146 6.5V8.5" stroke="#141B34" stroke-width="1.5" stroke-linejoin="round"/>
<path d="M16.5015 4.5V2.50008L7.50146 2.5V4.5" stroke="#141B34" stroke-width="1.5" stroke-linejoin="round"/>
<path d="M6.00146 21.5L5.27789 21.6973L5.42862 22.25H6.00146L6.00146 21.5ZM3.00146 10.5V9.75C2.76771 9.75 2.54732 9.85899 2.40543 10.0448C2.26355 10.2305 2.21639 10.4718 2.27789 10.6973L3.00146 10.5ZM18.0015 21.5V22.25H18.5744L18.7251 21.6973L18.0015 21.5ZM21.0001 10.5L21.7236 10.6973C21.7851 10.4717 21.7379 10.2305 21.5961 10.0447C21.4542 9.85897 21.2338 9.75 21.0001 9.75V10.5ZM6.72504 21.3027L3.72504 10.3027L2.27789 10.6973L5.27789 21.6973L6.72504 21.3027ZM18.7251 21.6973L21.7236 10.6973L20.2765 10.3027L17.2779 21.3027L18.7251 21.6973ZM3.00146 11.25H21.0001V9.75H3.00146V11.25ZM6.00146 22.25L18.0015 22.25V20.75L6.00147 20.75L6.00146 22.25Z" fill="#141B34"/>
</svg>
