<svg width="24" height="24" viewBox="0 0 24 24" fill="none" xmlns="http://www.w3.org/2000/svg">
<path d="M21 18L21.3046 18.6854L21.75 18.4874V18H21ZM12 22L11.6954 22.6854C11.8893 22.7715 12.1107 22.7715 12.3046 22.6854L12 22ZM3 18H2.25L2.25 18.4874L2.6954 18.6854L3 18ZM21.75 6C21.75 5.58579 21.4142 5.25 21 5.25C20.5858 5.25 20.25 5.58579 20.25 6L21.75 6ZM3.75 6C3.75 5.58579 3.41421 5.25 3 5.25C2.58579 5.25 2.25 5.58579 2.25 6H3.75ZM12.75 10C12.75 9.58579 12.4142 9.25 12 9.25C11.5858 9.25 11.25 9.58579 11.25 10H12.75ZM21.75 18V6L20.25 6V18H21.75ZM3.75 18C3.75 17.9992 3.75 17.9984 3.75 17.9976C3.75 17.9968 3.75 17.9959 3.75 17.995C3.75 17.994 3.75 17.9931 3.75 17.992C3.75 17.991 3.75 17.99 3.75 17.9889C3.75 17.9878 3.75 17.9866 3.75 17.9855C3.75 17.9843 3.75 17.9831 3.75 17.9818C3.75 17.9805 3.75 17.9792 3.75 17.9779C3.75 17.9765 3.75 17.9752 3.75 17.9737C3.75 17.9723 3.75 17.9708 3.75 17.9693C3.75 17.9678 3.75 17.9662 3.75 17.9646C3.75 17.963 3.75 17.9614 3.75 17.9597C3.75 17.9581 3.75 17.9563 3.75 17.9546C3.75 17.9528 3.75 17.951 3.75 17.9492C3.75 17.9473 3.75 17.9455 3.75 17.9435C3.75 17.9416 3.75 17.9396 3.75 17.9376C3.75 17.9356 3.75 17.9336 3.75 17.9315C3.75 17.9294 3.75 17.9273 3.75 17.9251C3.75 17.923 3.75 17.9208 3.75 17.9185C3.75 17.9163 3.75 17.914 3.75 17.9117C3.75 17.9094 3.75 17.907 3.75 17.9046C3.75 17.9022 3.75 17.8998 3.75 17.8973C3.75 17.8948 3.75 17.8923 3.75 17.8897C3.75 17.8872 3.75 17.8846 3.75 17.8819C3.75 17.8793 3.75 17.8766 3.75 17.8739C3.75 17.8712 3.75 17.8685 3.75 17.8657C3.75 17.8629 3.75 17.86 3.75 17.8572C3.75 17.8543 3.75 17.8514 3.75 17.8485C3.75 17.8455 3.75 17.8425 3.75 17.8395C3.75 17.8365 3.75 17.8334 3.75 17.8303C3.75 17.8272 3.75 17.8241 3.75 17.8209C3.75 17.8178 3.75 17.8145 3.75 17.8113C3.75 17.8081 3.75 17.8048 3.75 17.8014C3.75 17.7981 3.75 17.7948 3.75 17.7914C3.75 17.788 3.75 17.7845 3.75 17.7811C3.75 17.7776 3.75 17.7741 3.75 17.7705C3.75 17.767 3.75 17.7634 3.75 17.7598C3.75 17.7562 3.75 17.7525 3.75 17.7488C3.75 17.7451 3.75 17.7414 3.75 17.7376C3.75 17.7339 3.75 17.7301 3.75 17.7262C3.75 17.7224 3.75 17.7185 3.75 17.7146C3.75 17.7107 3.75 17.7068 3.75 17.7028C3.75 17.6988 3.75 17.6948 3.75 17.6907C3.75 17.6867 3.75 17.6826 3.75 17.6785C3.75 17.6743 3.75 17.6702 3.75 17.666C3.75 17.6618 3.75 17.6576 3.75 17.6533C3.75 17.649 3.75 17.6447 3.75 17.6404C3.75 17.6361 3.75 17.6317 3.75 17.6273C3.75 17.6229 3.75 17.6184 3.75 17.614C3.75 17.6095 3.75 17.605 3.75 17.6004C3.75 17.5959 3.75 17.5913 3.75 17.5867C3.75 17.5821 3.75 17.5774 3.75 17.5727C3.75 17.5681 3.75 17.5634 3.75 17.5586C3.75 17.5539 3.75 17.5491 3.75 17.5443C3.75 17.5394 3.75 17.5346 3.75 17.5297C3.75 17.5248 3.75 17.5199 3.75 17.5149C3.75 17.51 3.75 17.505 3.75 17.5C3.75 17.495 3.75 17.4899 3.75 17.4848C3.75 17.4797 3.75 17.4746 3.75 17.4695C3.75 17.4643 3.75 17.4591 3.75 17.4539C3.75 17.4487 3.75 17.4435 3.75 17.4382C3.75 17.4329 3.75 17.4276 3.75 17.4222C3.75 17.4169 3.75 17.4115 3.75 17.4061C3.75 17.4007 3.75 17.3952 3.75 17.3898C3.75 17.3843 3.75 17.3788 3.75 17.3732C3.75 17.3677 3.75 17.3621 3.75 17.3565C3.75 17.3509 3.75 17.3453 3.75 17.3396C3.75 17.3339 3.75 17.3282 3.75 17.3225C3.75 17.3168 3.75 17.311 3.75 17.3052C3.75 17.2994 3.75 17.2936 3.75 17.2878C3.75 17.2819 3.75 17.276 3.75 17.2701C3.75 17.2642 3.75 17.2582 3.75 17.2523C3.75 17.2463 3.75 17.2403 3.75 17.2342C3.75 17.2282 3.75 17.2221 3.75 17.216C3.75 17.2099 3.75 17.2038 3.75 17.1976C3.75 17.1915 3.75 17.1853 3.75 17.179C3.75 17.1728 3.75 17.1666 3.75 17.1603C3.75 17.154 3.75 17.1477 3.75 17.1413C3.75 17.135 3.75 17.1286 3.75 17.1222C3.75 17.1158 3.75 17.1094 3.75 17.1029C3.75 17.0965 3.75 17.09 3.75 17.0835C3.75 17.077 3.75 17.0704 3.75 17.0638C3.75 17.0572 3.75 17.0506 3.75 17.044C3.75 17.0374 3.75 17.0307 3.75 17.024C3.75 17.0173 3.75 17.0106 3.75 17.0039C3.75 16.9971 3.75 16.9903 3.75 16.9835C3.75 16.9767 3.75 16.9699 3.75 16.963C3.75 16.9562 3.75 16.9493 3.75 16.9423C3.75 16.9354 3.75 16.9285 3.75 16.9215C3.75 16.9145 3.75 16.9075 3.75 16.9005C3.75 16.8935 3.75 16.8864 3.75 16.8793C3.75 16.8722 3.75 16.8651 3.75 16.858C3.75 16.8508 3.75 16.8437 3.75 16.8365C3.75 16.8293 3.75 16.8221 3.75 16.8148C3.75 16.8076 3.75 16.8003 3.75 16.793C3.75 16.7857 3.75 16.7783 3.75 16.771C3.75 16.7636 3.75 16.7562 3.75 16.7488C3.75 16.7414 3.75 16.734 3.75 16.7265C3.75 16.7191 3.75 16.7116 3.75 16.7041C3.75 16.6965 3.75 16.689 3.75 16.6814C3.75 16.6739 3.75 16.6663 3.75 16.6587C3.75 16.651 3.75 16.6434 3.75 16.6357C3.75 16.6281 3.75 16.6204 3.75 16.6126C3.75 16.6049 3.75 16.5972 3.75 16.5894C3.75 16.5816 3.75 16.5738 3.75 16.566C3.75 16.5582 3.75 16.5503 3.75 16.5425C3.75 16.5346 3.75 16.5267 3.75 16.5188C3.75 16.5108 3.75 16.5029 3.75 16.4949C3.75 16.4869 3.75 16.479 3.75 16.4709C3.75 16.4629 3.75 16.4549 3.75 16.4468C3.75 16.4387 3.75 16.4306 3.75 16.4225C3.75 16.4144 3.75 16.4063 3.75 16.3981C3.75 16.3899 3.75 16.3817 3.75 16.3735C3.75 16.3653 3.75 16.3571 3.75 16.3488C3.75 16.3405 3.75 16.3323 3.75 16.3239C3.75 16.3156 3.75 16.3073 3.75 16.299C3.75 16.2906 3.75 16.2822 3.75 16.2738C3.75 16.2654 3.75 16.257 3.75 16.2485C3.75 16.2401 3.75 16.2316 3.75 16.2231C3.75 16.2146 3.75 16.2061 3.75 16.1976C3.75 16.189 3.75 16.1805 3.75 16.1719C3.75 16.1633 3.75 16.1547 3.75 16.1461C3.75 16.1375 3.75 16.1288 3.75 16.1201C3.75 16.1115 3.75 16.1028 3.75 16.0941C3.75 16.0853 3.75 16.0766 3.75 16.0678C3.75 16.0591 3.75 16.0503 3.75 16.0415C3.75 16.0327 3.75 16.0239 3.75 16.015C3.75 16.0062 3.75 15.9973 3.75 15.9884C3.75 15.9795 3.75 15.9706 3.75 15.9617C3.75 15.9528 3.75 15.9438 3.75 15.9348C3.75 15.9259 3.75 15.9169 3.75 15.9079C3.75 15.8988 3.75 15.8898 3.75 15.8808C3.75 15.8717 3.75 15.8626 3.75 15.8535C3.75 15.8444 3.75 15.8353 3.75 15.8262C3.75 15.817 3.75 15.8079 3.75 15.7987C3.75 15.7895 3.75 15.7803 3.75 15.7711C3.75 15.7619 3.75 15.7527 3.75 15.7434C3.75 15.7341 3.75 15.7249 3.75 15.7156C3.75 15.7063 3.75 15.697 3.75 15.6876C3.75 15.6783 3.75 15.6689 3.75 15.6596C3.75 15.6502 3.75 15.6408 3.75 15.6314C3.75 15.622 3.75 15.6125 3.75 15.6031C3.75 15.5936 3.75 15.5842 3.75 15.5747C3.75 15.5652 3.75 15.5557 3.75 15.5462C3.75 15.5367 3.75 15.5271 3.75 15.5176C3.75 15.508 3.75 15.4984 3.75 15.4888C3.75 15.4792 3.75 15.4696 3.75 15.46C3.75 15.4503 3.75 15.4407 3.75 15.431C3.75 15.4213 3.75 15.4117 3.75 15.402C3.75 15.3923 3.75 15.3825 3.75 15.3728C3.75 15.363 3.75 15.3533 3.75 15.3435C3.75 15.3337 3.75 15.324 3.75 15.3141C3.75 15.3043 3.75 15.2945 3.75 15.2847C3.75 15.2748 3.75 15.265 3.75 15.2551C3.75 15.2452 3.75 15.2353 3.75 15.2254C3.75 15.2155 3.75 15.2056 3.75 15.1956C3.75 15.1857 3.75 15.1757 3.75 15.1657C3.75 15.1558 3.75 15.1458 3.75 15.1358C3.75 15.1258 3.75 15.1157 3.75 15.1057C3.75 15.0957 3.75 15.0856 3.75 15.0755C3.75 15.0655 3.75 15.0554 3.75 15.0453C3.75 15.0352 3.75 15.025 3.75 15.0149C3.75 15.0048 3.75 14.9946 3.75 14.9845C3.75 14.9743 3.75 14.9641 3.75 14.9539C3.75 14.9437 3.75 14.9335 3.75 14.9233C3.75 14.9131 3.75 14.9028 3.75 14.8926C3.75 14.8823 3.75 14.872 3.75 14.8618C3.75 14.8515 3.75 14.8412 3.75 14.8309C3.75 14.8206 3.75 14.8102 3.75 14.7999C3.75 14.7895 3.75 14.7792 3.75 14.7688C3.75 14.7584 3.75 14.7481 3.75 14.7377C3.75 14.7273 3.75 14.7169 3.75 14.7064C3.75 14.696 3.75 14.6856 3.75 14.6751C3.75 14.6647 3.75 14.6542 3.75 14.6437C3.75 14.6332 3.75 14.6227 3.75 14.6122C3.75 14.6017 3.75 14.5912 3.75 14.5807C3.75 14.5701 3.75 14.5596 3.75 14.549C3.75 14.5385 3.75 14.5279 3.75 14.5173C3.75 14.5067 3.75 14.4961 3.75 14.4855C3.75 14.4749 3.75 14.4643 3.75 14.4537C3.75 14.443 3.75 14.4324 3.75 14.4217C3.75 14.4111 3.75 14.4004 3.75 14.3897C3.75 14.379 3.75 14.3683 3.75 14.3576C3.75 14.3469 3.75 14.3362 3.75 14.3255C3.75 14.3147 3.75 14.304 3.75 14.2932C3.75 14.2825 3.75 14.2717 3.75 14.2609C3.75 14.2502 3.75 14.2394 3.75 14.2286C3.75 14.2178 3.75 14.207 3.75 14.1961C3.75 14.1853 3.75 14.1745 3.75 14.1636C3.75 14.1528 3.75 14.1419 3.75 14.1311C3.75 14.1202 3.75 14.1093 3.75 14.0985C3.75 14.0876 3.75 14.0767 3.75 14.0658C3.75 14.0549 3.75 14.0439 3.75 14.033C3.75 14.0221 3.75 14.0111 3.75 14.0002C3.75 13.9893 3.75 13.9783 3.75 13.9673C3.75 13.9564 3.75 13.9454 3.75 13.9344C3.75 13.9234 3.75 13.9124 3.75 13.9014C3.75 13.8904 3.75 13.8794 3.75 13.8684C3.75 13.8573 3.75 13.8463 3.75 13.8353C3.75 13.8242 3.75 13.8132 3.75 13.8021C3.75 13.791 3.75 13.78 3.75 13.7689C3.75 13.7578 3.75 13.7467 3.75 13.7356C3.75 13.7245 3.75 13.7134 3.75 13.7023C3.75 13.6912 3.75 13.6801 3.75 13.669C3.75 13.6578 3.75 13.6467 3.75 13.6355C3.75 13.6244 3.75 13.6132 3.75 13.6021C3.75 13.5909 3.75 13.5797 3.75 13.5686C3.75 13.5574 3.75 13.5462 3.75 13.535C3.75 13.5238 3.75 13.5126 3.75 13.5014C3.75 13.4902 3.75 13.479 3.75 13.4678C3.75 13.4565 3.75 13.4453 3.75 13.4341C3.75 13.4228 3.75 13.4116 3.75 13.4003C3.75 13.3891 3.75 13.3778 3.75 13.3666C3.75 13.3553 3.75 13.344 3.75 13.3327C3.75 13.3215 3.75 13.3102 3.75 13.2989C3.75 13.2876 3.75 13.2763 3.75 13.265C3.75 13.2537 3.75 13.2424 3.75 13.2311C3.75 13.2197 3.75 13.2084 3.75 13.1971C3.75 13.1858 3.75 13.1744 3.75 13.1631C3.75 13.1518 3.75 13.1404 3.75 13.1291C3.75 13.1177 3.75 13.1063 3.75 13.095C3.75 13.0836 3.75 13.0723 3.75 13.0609C3.75 13.0495 3.75 13.0381 3.75 13.0267C3.75 13.0154 3.75 13.004 3.75 12.9926C3.75 12.9812 3.75 12.9698 3.75 12.9584C3.75 12.947 3.75 12.9356 3.75 12.9242C3.75 12.9128 3.75 12.9013 3.75 12.8899C3.75 12.8785 3.75 12.8671 3.75 12.8556C3.75 12.8442 3.75 12.8328 3.75 12.8213C3.75 12.8099 3.75 12.7985 3.75 12.787C3.75 12.7756 3.75 12.7641 3.75 12.7527C3.75 12.7412 3.75 12.7298 3.75 12.7183C3.75 12.7068 3.75 12.6954 3.75 12.6839C3.75 12.6724 3.75 12.661 3.75 12.6495C3.75 12.638 3.75 12.6265 3.75 12.6151C3.75 12.6036 3.75 12.5921 3.75 12.5806C3.75 12.5691 3.75 12.5576 3.75 12.5461C3.75 12.5347 3.75 12.5232 3.75 12.5117C3.75 12.5002 3.75 12.4887 3.75 12.4772C3.75 12.4657 3.75 12.4542 3.75 12.4427C3.75 12.4312 3.75 12.4196 3.75 12.4081C3.75 12.3966 3.75 12.3851 3.75 12.3736C3.75 12.3621 3.75 12.3506 3.75 12.3391C3.75 12.3275 3.75 12.316 3.75 12.3045C3.75 12.293 3.75 12.2815 3.75 12.2699C3.75 12.2584 3.75 12.2469 3.75 12.2354C3.75 12.2238 3.75 12.2123 3.75 12.2008C3.75 12.1893 3.75 12.1777 3.75 12.1662C3.75 12.1547 3.75 12.1431 3.75 12.1316C3.75 12.1201 3.75 12.1085 3.75 12.097C3.75 12.0855 3.75 12.0739 3.75 12.0624C3.75 12.0509 3.75 12.0394 3.75 12.0278C3.75 12.0163 3.75 12.0048 3.75 11.9932C3.75 11.9817 3.75 11.9702 3.75 11.9586C3.75 11.9471 3.75 11.9356 3.75 11.924C3.75 11.9125 3.75 11.901 3.75 11.8894C3.75 11.8779 3.75 11.8664 3.75 11.8548C3.75 11.8433 3.75 11.8318 3.75 11.8203C3.75 11.8087 3.75 11.7972 3.75 11.7857C3.75 11.7741 3.75 11.7626 3.75 11.7511C3.75 11.7396 3.75 11.728 3.75 11.7165C3.75 11.705 3.75 11.6935 3.75 11.682C3.75 11.6705 3.75 11.6589 3.75 11.6474C3.75 11.6359 3.75 11.6244 3.75 11.6129C3.75 11.6014 3.75 11.5899 3.75 11.5784C3.75 11.5668 3.75 11.5553 3.75 11.5438C3.75 11.5323 3.75 11.5208 3.75 11.5093C3.75 11.4978 3.75 11.4863 3.75 11.4749C3.75 11.4634 3.75 11.4519 3.75 11.4404C3.75 11.4289 3.75 11.4174 3.75 11.4059C3.75 11.3944 3.75 11.383 3.75 11.3715C3.75 11.36 3.75 11.3485 3.75 11.3371C3.75 11.3256 3.75 11.3141 3.75 11.3027C3.75 11.2912 3.75 11.2798 3.75 11.2683C3.75 11.2568 3.75 11.2454 3.75 11.2339C3.75 11.2225 3.75 11.2111 3.75 11.1996C3.75 11.1882 3.75 11.1767 3.75 11.1653C3.75 11.1539 3.75 11.1424 3.75 11.131C3.75 11.1196 3.75 11.1082 3.75 11.0968C3.75 11.0853 3.75 11.0739 3.75 11.0625C3.75 11.0511 3.75 11.0397 3.75 11.0283C3.75 11.0169 3.75 11.0055 3.75 10.9942C3.75 10.9828 3.75 10.9714 3.75 10.96C3.75 10.9486 3.75 10.9373 3.75 10.9259C3.75 10.9145 3.75 10.9032 3.75 10.8918C3.75 10.8805 3.75 10.8691 3.75 10.8578C3.75 10.8464 3.75 10.8351 3.75 10.8238C3.75 10.8124 3.75 10.8011 3.75 10.7898C3.75 10.7785 3.75 10.7671 3.75 10.7558C3.75 10.7445 3.75 10.7332 3.75 10.7219C3.75 10.7106 3.75 10.6993 3.75 10.6881C3.75 10.6768 3.75 10.6655 3.75 10.6542C3.75 10.643 3.75 10.6317 3.75 10.6204C3.75 10.6092 3.75 10.5979 3.75 10.5867C3.75 10.5754 3.75 10.5642 3.75 10.553C3.75 10.5418 3.75 10.5305 3.75 10.5193C3.75 10.5081 3.75 10.4969 3.75 10.4857C3.75 10.4745 3.75 10.4633 3.75 10.4521C3.75 10.4409 3.75 10.4298 3.75 10.4186C3.75 10.4074 3.75 10.3963 3.75 10.3851C3.75 10.374 3.75 10.3628 3.75 10.3517C3.75 10.3406 3.75 10.3294 3.75 10.3183C3.75 10.3072 3.75 10.2961 3.75 10.285C3.75 10.2739 3.75 10.2628 3.75 10.2517C3.75 10.2406 3.75 10.2295 3.75 10.2185C3.75 10.2074 3.75 10.1964 3.75 10.1853C3.75 10.1743 3.75 10.1632 3.75 10.1522C3.75 10.1412 3.75 10.1301 3.75 10.1191C3.75 10.1081 3.75 10.0971 3.75 10.0861C3.75 10.0751 3.75 10.0641 3.75 10.0532C3.75 10.0422 3.75 10.0312 3.75 10.0203C3.75 10.0093 3.75 9.99838 3.75 9.98744C3.75 9.97651 3.75 9.96559 3.75 9.95467C3.75 9.94376 3.75 9.93286 3.75 9.92196C3.75 9.91107 3.75 9.90019 3.75 9.88932C3.75 9.87844 3.75 9.86758 3.75 9.85673C3.75 9.84588 3.75 9.83504 3.75 9.82421C3.75 9.81339 3.75 9.80257 3.75 9.79176C3.75 9.78096 3.75 9.77016 3.75 9.75938C3.75 9.74859 3.75 9.73782 3.75 9.72706C3.75 9.7163 3.75 9.70555 3.75 9.69481C3.75 9.68407 3.75 9.67334 3.75 9.66263C3.75 9.65191 3.75 9.64121 3.75 9.63052C3.75 9.61983 3.75 9.60915 3.75 9.59848C3.75 9.58782 3.75 9.57716 3.75 9.56652C3.75 9.55588 3.75 9.54525 3.75 9.53463C3.75 9.52401 3.75 9.51341 3.75 9.50281C3.75 9.49222 3.75 9.48164 3.75 9.47107C3.75 9.46051 3.75 9.44995 3.75 9.43941C3.75 9.42887 3.75 9.41834 3.75 9.40783C3.75 9.39731 3.75 9.38681 3.75 9.37632C3.75 9.36583 3.75 9.35536 3.75 9.34489C3.75 9.33443 3.75 9.32398 3.75 9.31355C3.75 9.30311 3.75 9.29269 3.75 9.28229C3.75 9.27188 3.75 9.26149 3.75 9.25111C3.75 9.24073 3.75 9.23036 3.75 9.22001C3.75 9.20966 3.75 9.19932 3.75 9.189C3.75 9.17868 3.75 9.16837 3.75 9.15808C3.75 9.14778 3.75 9.1375 3.75 9.12724C3.75 9.11697 3.75 9.10672 3.75 9.09649C3.75 9.08625 3.75 9.07603 3.75 9.06583C3.75 9.05562 3.75 9.04543 3.75 9.03526C3.75 9.02508 3.75 9.01493 3.75 9.00478C3.75 8.99464 3.75 8.98451 3.75 8.97439C3.75 8.96428 3.75 8.95418 3.75 8.9441C3.75 8.93402 3.75 8.92395 3.75 8.9139C3.75 8.90385 3.75 8.89382 3.75 8.8838C3.75 8.87378 3.75 8.86378 3.75 8.85379C3.75 8.84381 3.75 8.83384 3.75 8.82388C3.75 8.81393 3.75 8.80399 3.75 8.79407C3.75 8.78415 3.75 8.77425 3.75 8.76436C3.75 8.75447 3.75 8.7446 3.75 8.73475C3.75 8.72489 3.75 8.71506 3.75 8.70524C3.75 8.69542 3.75 8.68561 3.75 8.67583C3.75 8.66604 3.75 8.65627 3.75 8.64652C3.75 8.63677 3.75 8.62704 3.75 8.61732C3.75 8.60761 3.75 8.59791 3.75 8.58823C3.75 8.57855 3.75 8.56889 3.75 8.55924C3.75 8.5496 3.75 8.53997 3.75 8.53036C3.75 8.52075 3.75 8.51116 3.75 8.50159C3.75 8.49202 3.75 8.48246 3.75 8.47293C3.75 8.46339 3.75 8.45387 3.75 8.44437C3.75 8.43488 3.75 8.4254 3.75 8.41593C3.75 8.40647 3.75 8.39703 3.75 8.38761C3.75 8.37818 3.75 8.36878 3.75 8.35939C3.75 8.35001 3.75 8.34064 3.75 8.3313C3.75 8.32195 3.75 8.31262 3.75 8.30331C3.75 8.294 3.75 8.28471 3.75 8.27545C3.75 8.26618 3.75 8.25693 3.75 8.2477C3.75 8.23847 3.75 8.22926 3.75 8.22007C3.75 8.21088 3.75 8.20171 3.75 8.19256C3.75 8.18341 3.75 8.17428 3.75 8.16517C3.75 8.15606 3.75 8.14697 3.75 8.1379C3.75 8.12883 3.75 8.11978 3.75 8.11075C3.75 8.10173 3.75 8.09272 3.75 8.08373C3.75 8.07475 3.75 8.06578 3.75 8.05684C3.75 8.04789 3.75 8.03897 3.75 8.03007C3.75 8.02117 3.75 8.01228 3.75 8.00343C3.75 7.99457 3.75 7.98573 3.75 7.97691C3.75 7.96809 3.75 7.9593 3.75 7.95052C3.75 7.94175 3.75 7.933 3.75 7.92427C3.75 7.91554 3.75 7.90683 3.75 7.89814C3.75 7.88946 3.75 7.88079 3.75 7.87215C3.75 7.86351 3.75 7.85489 3.75 7.84629C3.75 7.83769 3.75 7.82912 3.75 7.82056C3.75 7.81201 3.75 7.80348 3.75 7.79497C3.75 7.78647 3.75 7.77798 3.75 7.76952C3.75 7.76106 3.75 7.75262 3.75 7.7442C3.75 7.73579 3.75 7.72739 3.75 7.71902C3.75 7.71065 3.75 7.70231 3.75 7.69398C3.75 7.68566 3.75 7.67736 3.75 7.66908C3.75 7.66081 3.75 7.65255 3.75 7.64432C3.75 7.6361 3.75 7.62789 3.75 7.61971C3.75 7.61153 3.75 7.60337 3.75 7.59524C3.75 7.5871 3.75 7.57899 3.75 7.57091C3.75 7.56282 3.75 7.55476 3.75 7.54672C3.75 7.53869 3.75 7.53067 3.75 7.52269C3.75 7.5147 3.75 7.50673 3.75 7.4988C3.75 7.49086 3.75 7.48294 3.75 7.47506C3.75 7.46717 3.75 7.4593 3.75 7.45146C3.75 7.44362 3.75 7.43581 3.75 7.42802C3.75 7.42023 3.75 7.41247 3.75 7.40473C3.75 7.39699 3.75 7.38928 3.75 7.38159C3.75 7.37391 3.75 7.36625 3.75 7.35861C3.75 7.35097 3.75 7.34336 3.75 7.33578C3.75 7.3282 3.75 7.32064 3.75 7.31311C3.75 7.30557 3.75 7.29807 3.75 7.29059C3.75 7.28311 3.75 7.27566 3.75 7.26823C3.75 7.2608 3.75 7.2534 3.75 7.24603C3.75 7.23865 3.75 7.23131 3.75 7.22399C3.75 7.21667 3.75 7.20937 3.75 7.20211C3.75 7.19484 3.75 7.1876 3.75 7.18039C3.75 7.17317 3.75 7.16599 3.75 7.15883C3.75 7.15167 3.75 7.14454 3.75 7.13744C3.75 7.13033 3.75 7.12326 3.75 7.11621C3.75 7.10916 3.75 7.10214 3.75 7.09515C3.75 7.08815 3.75 7.08119 3.75 7.07425C3.75 7.06731 3.75 7.0604 3.75 7.05352C3.75 7.04664 3.75 7.03979 3.75 7.03296C3.75 7.02614 3.75 7.01934 3.75 7.01257C3.75 7.00581 3.75 6.99907 3.75 6.99236C3.75 6.98564 3.75 6.97896 3.75 6.97231C3.75 6.96566 3.75 6.95903 3.75 6.95244C3.75 6.94584 3.75 6.93927 3.75 6.93274C3.75 6.9262 3.75 6.91969 3.75 6.91321C3.75 6.90673 3.75 6.90028 3.75 6.89386C3.75 6.88744 3.75 6.88105 3.75 6.87469C3.75 6.86833 3.75 6.862 3.75 6.8557C3.75 6.84939 3.75 6.84312 3.75 6.83688C3.75 6.83064 3.75 6.82443 3.75 6.81825C3.75 6.81206 3.75 6.80591 3.75 6.79979C3.75 6.79367 3.75 6.78758 3.75 6.78152C3.75 6.77546 3.75 6.76943 3.75 6.76343C3.75 6.75743 3.75 6.75146 3.75 6.74553C3.75 6.73959 3.75 6.73368 3.75 6.72781C3.75 6.72193 3.75 6.71609 3.75 6.71027C3.75 6.70446 3.75 6.69868 3.75 6.69293C3.75 6.68718 3.75 6.68146 3.75 6.67577C3.75 6.67008 3.75 6.66443 3.75 6.6588C3.75 6.65318 3.75 6.64758 3.75 6.64202C3.75 6.63646 3.75 6.63093 3.75 6.62544C3.75 6.61994 3.75 6.61447 3.75 6.60904C3.75 6.60361 3.75 6.59821 3.75 6.59284C3.75 6.58747 3.75 6.58214 3.75 6.57683C3.75 6.57153 3.75 6.56626 3.75 6.56102C3.75 6.55578 3.75 6.55058 3.75 6.54541C3.75 6.54023 3.75 6.53509 3.75 6.52999C3.75 6.52488 3.75 6.51981 3.75 6.51477C3.75 6.50973 3.75 6.50472 3.75 6.49975C3.75 6.49477 3.75 6.48983 3.75 6.48493C3.75 6.48002 3.75 6.47515 3.75 6.47031C3.75 6.46547 3.75 6.46067 3.75 6.45589C3.75 6.45112 3.75 6.44639 3.75 6.44168C3.75 6.43698 3.75 6.43231 3.75 6.42767C3.75 6.42304 3.75 6.41844 3.75 6.41387C3.75 6.40931 3.75 6.40477 3.75 6.40028C3.75 6.39578 3.75 6.39132 3.75 6.38689C3.75 6.38246 3.75 6.37807 3.75 6.37371C3.75 6.36935 3.75 6.36503 3.75 6.36074C3.75 6.35645 3.75 6.3522 3.75 6.34798C3.75 6.34376 3.75 6.33958 3.75 6.33543C3.75 6.33129 3.75 6.32717 3.75 6.3231C3.75 6.31902 3.75 6.31498 3.75 6.31098C3.75 6.30697 3.75 6.303 3.75 6.29907C3.75 6.29514 3.75 6.29124 3.75 6.28738C3.75 6.28352 3.75 6.2797 3.75 6.27591C3.75 6.27212 3.75 6.26837 3.75 6.26465C3.75 6.26094 3.75 6.25726 3.75 6.25361C3.75 6.24997 3.75 6.24637 3.75 6.2428C3.75 6.23923 3.75 6.2357 3.75 6.2322C3.75 6.22871 3.75 6.22525 3.75 6.22183C3.75 6.21841 3.75 6.21502 3.75 6.21168C3.75 6.20833 3.75 6.20502 3.75 6.20175C3.75 6.19848 3.75 6.19524 3.75 6.19205C3.75 6.18885 3.75 6.18569 3.75 6.18257C3.75 6.17945 3.75 6.17636 3.75 6.17332C3.75 6.17027 3.75 6.16727 3.75 6.1643C3.75 6.16133 3.75 6.1584 3.75 6.15551C3.75 6.15261 3.75 6.14976 3.75 6.14694C3.75 6.14413 3.75 6.14135 3.75 6.13861C3.75 6.13587 3.75 6.13317 3.75 6.13051C3.75 6.12785 3.75 6.12523 3.75 6.12265C3.75 6.12006 3.75 6.11752 3.75 6.11501C3.75 6.11251 3.75 6.11004 3.75 6.10762C3.75 6.10519 3.75 6.1028 3.75 6.10046C3.75 6.09811 3.75 6.0958 3.75 6.09353C3.75 6.09127 3.75 6.08904 3.75 6.08685C3.75 6.08466 3.75 6.08251 3.75 6.0804C3.75 6.07829 3.75 6.07623 3.75 6.0742C3.75 6.07217 3.75 6.07018 3.75 6.06823C3.75 6.06629 3.75 6.06438 3.75 6.06251C3.75 6.06064 3.75 6.05882 3.75 6.05703C3.75 6.05525 3.75 6.0535 3.75 6.0518C3.75 6.05009 3.75 6.04843 3.75 6.04681C3.75 6.04519 3.75 6.04361 3.75 6.04207C3.75 6.04053 3.75 6.03903 3.75 6.03757C3.75 6.03611 3.75 6.0347 3.75 6.03333C3.75 6.03195 3.75 6.03062 3.75 6.02933C3.75 6.02804 3.75 6.02679 3.75 6.02558C3.75 6.02437 3.75 6.02321 3.75 6.02209C3.75 6.02096 3.75 6.01988 3.75 6.01884C3.75 6.0178 3.75 6.01681 3.75 6.01585C3.75 6.0149 3.75 6.01399 3.75 6.01312C3.75 6.01225 3.75 6.01142 3.75 6.01064C3.75 6.00986 3.75 6.00912 3.75 6.00842C3.75 6.00772 3.75 6.00707 3.75 6.00645C3.75 6.00584 3.75 6.00527 3.75 6.00475C3.75 6.00422 3.75 6.00374 3.75 6.0033C3.75 6.00286 3.75 6.00247 3.75 6.00212C3.75 6.00176 3.75 6.00146 3.75 6.00119C3.75 6.00093 3.75 6.00071 3.75 6.00053C3.75 6.00035 3.75 6.00022 3.75 6.00013C3.75 6.00004 3.75 6 3 6C2.25 6 2.25 6.00004 2.25 6.00013C2.25 6.00022 2.25 6.00035 2.25 6.00053C2.25 6.00071 2.25 6.00093 2.25 6.00119C2.25 6.00146 2.25 6.00176 2.25 6.00212C2.25 6.00247 2.25 6.00286 2.25 6.0033C2.25 6.00374 2.25 6.00422 2.25 6.00475C2.25 6.00527 2.25 6.00584 2.25 6.00645C2.25 6.00707 2.25 6.00772 2.25 6.00842C2.25 6.00912 2.25 6.00986 2.25 6.01064C2.25 6.01142 2.25 6.01225 2.25 6.01312C2.25 6.01399 2.25 6.0149 2.25 6.01585C2.25 6.01681 2.25 6.0178 2.25 6.01884C2.25 6.01988 2.25 6.02096 2.25 6.02209C2.25 6.02321 2.25 6.02437 2.25 6.02558C2.25 6.02679 2.25 6.02804 2.25 6.02933C2.25 6.03062 2.25 6.03195 2.25 6.03333C2.25 6.0347 2.25 6.03611 2.25 6.03757C2.25 6.03903 2.25 6.04053 2.25 6.04207C2.25 6.04361 2.25 6.04519 2.25 6.04681C2.25 6.04843 2.25 6.05009 2.25 6.0518C2.25 6.0535 2.25 6.05525 2.25 6.05703C2.25 6.05882 2.25 6.06064 2.25 6.06251C2.25 6.06438 2.25 6.06629 2.25 6.06823C2.25 6.07018 2.25 6.07217 2.25 6.0742C2.25 6.07623 2.25 6.07829 2.25 6.0804C2.25 6.08251 2.25 6.08466 2.25 6.08685C2.25 6.08904 2.25 6.09127 2.25 6.09353C2.25 6.0958 2.25 6.09811 2.25 6.10046C2.25 6.1028 2.25 6.10519 2.25 6.10762C2.25 6.11004 2.25 6.11251 2.25 6.11501C2.25 6.11752 2.25 6.12006 2.25 6.12265C2.25 6.12523 2.25 6.12785 2.25 6.13051C2.25 6.13317 2.25 6.13587 2.25 6.13861C2.25 6.14135 2.25 6.14413 2.25 6.14694C2.25 6.14976 2.25 6.15261 2.25 6.15551C2.25 6.1584 2.25 6.16133 2.25 6.1643C2.25 6.16727 2.25 6.17027 2.25 6.17332C2.25 6.17636 2.25 6.17945 2.25 6.18257C2.25 6.18569 2.25 6.18885 2.25 6.19205C2.25 6.19524 2.25 6.19848 2.25 6.20175C2.25 6.20502 2.25 6.20833 2.25 6.21168C2.25 6.21502 2.25 6.21841 2.25 6.22183C2.25 6.22525 2.25 6.22871 2.25 6.2322C2.25 6.2357 2.25 6.23923 2.25 6.2428C2.25 6.24637 2.25 6.24997 2.25 6.25361C2.25 6.25726 2.25 6.26094 2.25 6.26465C2.25 6.26837 2.25 6.27212 2.25 6.27591C2.25 6.2797 2.25 6.28352 2.25 6.28738C2.25 6.29124 2.25 6.29514 2.25 6.29907C2.25 6.303 2.25 6.30697 2.25 6.31098C2.25 6.31498 2.25 6.31902 2.25 6.3231C2.25 6.32717 2.25 6.33129 2.25 6.33543C2.25 6.33958 2.25 6.34376 2.25 6.34798C2.25 6.3522 2.25 6.35645 2.25 6.36074C2.25 6.36503 2.25 6.36935 2.25 6.37371C2.25 6.37807 2.25 6.38246 2.25 6.38689C2.25 6.39132 2.25 6.39578 2.25 6.40028C2.25 6.40477 2.25 6.40931 2.25 6.41387C2.25 6.41844 2.25 6.42304 2.25 6.42767C2.25 6.43231 2.25 6.43698 2.25 6.44168C2.25 6.44639 2.25 6.45112 2.25 6.45589C2.25 6.46067 2.25 6.46547 2.25 6.47031C2.25 6.47515 2.25 6.48002 2.25 6.48493C2.25 6.48983 2.25 6.49477 2.25 6.49975C2.25 6.50472 2.25 6.50973 2.25 6.51477C2.25 6.51981 2.25 6.52488 2.25 6.52999C2.25 6.53509 2.25 6.54023 2.25 6.54541C2.25 6.55058 2.25 6.55578 2.25 6.56102C2.25 6.56626 2.25 6.57153 2.25 6.57683C2.25 6.58214 2.25 6.58747 2.25 6.59284C2.25 6.59821 2.25 6.60361 2.25 6.60904C2.25 6.61447 2.25 6.61994 2.25 6.62544C2.25 6.63093 2.25 6.63646 2.25 6.64202C2.25 6.64758 2.25 6.65318 2.25 6.6588C2.25 6.66443 2.25 6.67008 2.25 6.67577C2.25 6.68146 2.25 6.68718 2.25 6.69293C2.25 6.69868 2.25 6.70446 2.25 6.71027C2.25 6.71609 2.25 6.72193 2.25 6.72781C2.25 6.73368 2.25 6.73959 2.25 6.74553C2.25 6.75146 2.25 6.75743 2.25 6.76343C2.25 6.76943 2.25 6.77546 2.25 6.78152C2.25 6.78758 2.25 6.79367 2.25 6.79979C2.25 6.80591 2.25 6.81206 2.25 6.81825C2.25 6.82443 2.25 6.83064 2.25 6.83688C2.25 6.84312 2.25 6.84939 2.25 6.8557C2.25 6.862 2.25 6.86833 2.25 6.87469C2.25 6.88105 2.25 6.88744 2.25 6.89386C2.25 6.90028 2.25 6.90673 2.25 6.91321C2.25 6.91969 2.25 6.9262 2.25 6.93274C2.25 6.93927 2.25 6.94584 2.25 6.95244C2.25 6.95903 2.25 6.96566 2.25 6.97231C2.25 6.97896 2.25 6.98564 2.25 6.99236C2.25 6.99907 2.25 7.00581 2.25 7.01257C2.25 7.01934 2.25 7.02614 2.25 7.03296C2.25 7.03979 2.25 7.04664 2.25 7.05352C2.25 7.0604 2.25 7.06731 2.25 7.07425C2.25 7.08119 2.25 7.08815 2.25 7.09515C2.25 7.10214 2.25 7.10916 2.25 7.11621C2.25 7.12326 2.25 7.13033 2.25 7.13744C2.25 7.14454 2.25 7.15167 2.25 7.15883C2.25 7.16599 2.25 7.17317 2.25 7.18039C2.25 7.1876 2.25 7.19484 2.25 7.20211C2.25 7.20937 2.25 7.21667 2.25 7.22399C2.25 7.23131 2.25 7.23865 2.25 7.24603C2.25 7.2534 2.25 7.2608 2.25 7.26823C2.25 7.27566 2.25 7.28311 2.25 7.29059C2.25 7.29807 2.25 7.30557 2.25 7.31311C2.25 7.32064 2.25 7.3282 2.25 7.33578C2.25 7.34336 2.25 7.35097 2.25 7.35861C2.25 7.36625 2.25 7.37391 2.25 7.38159C2.25 7.38928 2.25 7.39699 2.25 7.40473C2.25 7.41247 2.25 7.42023 2.25 7.42802C2.25 7.43581 2.25 7.44362 2.25 7.45146C2.25 7.4593 2.25 7.46717 2.25 7.47506C2.25 7.48294 2.25 7.49086 2.25 7.4988C2.25 7.50673 2.25 7.5147 2.25 7.52269C2.25 7.53067 2.25 7.53869 2.25 7.54672C2.25 7.55476 2.25 7.56282 2.25 7.57091C2.25 7.57899 2.25 7.5871 2.25 7.59524C2.25 7.60337 2.25 7.61153 2.25 7.61971C2.25 7.62789 2.25 7.6361 2.25 7.64432C2.25 7.65255 2.25 7.66081 2.25 7.66908C2.25 7.67736 2.25 7.68566 2.25 7.69398C2.25 7.70231 2.25 7.71065 2.25 7.71902C2.25 7.72739 2.25 7.73579 2.25 7.7442C2.25 7.75262 2.25 7.76106 2.25 7.76952C2.25 7.77798 2.25 7.78647 2.25 7.79497C2.25 7.80348 2.25 7.81201 2.25 7.82056C2.25 7.82912 2.25 7.83769 2.25 7.84629C2.25 7.85489 2.25 7.86351 2.25 7.87215C2.25 7.88079 2.25 7.88946 2.25 7.89814C2.25 7.90683 2.25 7.91554 2.25 7.92427C2.25 7.933 2.25 7.94175 2.25 7.95052C2.25 7.9593 2.25 7.96809 2.25 7.97691C2.25 7.98573 2.25 7.99457 2.25 8.00343C2.25 8.01228 2.25 8.02117 2.25 8.03007C2.25 8.03897 2.25 8.04789 2.25 8.05684C2.25 8.06578 2.25 8.07475 2.25 8.08373C2.25 8.09272 2.25 8.10173 2.25 8.11075C2.25 8.11978 2.25 8.12883 2.25 8.1379C2.25 8.14697 2.25 8.15606 2.25 8.16517C2.25 8.17428 2.25 8.18341 2.25 8.19256C2.25 8.20171 2.25 8.21088 2.25 8.22007C2.25 8.22926 2.25 8.23847 2.25 8.2477C2.25 8.25693 2.25 8.26618 2.25 8.27545C2.25 8.28471 2.25 8.294 2.25 8.30331C2.25 8.31262 2.25 8.32195 2.25 8.3313C2.25 8.34064 2.25 8.35001 2.25 8.35939C2.25 8.36878 2.25 8.37818 2.25 8.38761C2.25 8.39703 2.25 8.40647 2.25 8.41593C2.25 8.4254 2.25 8.43488 2.25 8.44437C2.25 8.45387 2.25 8.46339 2.25 8.47293C2.25 8.48246 2.25 8.49202 2.25 8.50159C2.25 8.51116 2.25 8.52075 2.25 8.53036C2.25 8.53997 2.25 8.5496 2.25 8.55924C2.25 8.56889 2.25 8.57855 2.25 8.58823C2.25 8.59791 2.25 8.60761 2.25 8.61732C2.25 8.62704 2.25 8.63677 2.25 8.64652C2.25 8.65627 2.25 8.66604 2.25 8.67583C2.25 8.68561 2.25 8.69542 2.25 8.70524C2.25 8.71506 2.25 8.72489 2.25 8.73475C2.25 8.7446 2.25 8.75447 2.25 8.76436C2.25 8.77425 2.25 8.78415 2.25 8.79407C2.25 8.80399 2.25 8.81393 2.25 8.82388C2.25 8.83384 2.25 8.84381 2.25 8.85379C2.25 8.86378 2.25 8.87378 2.25 8.8838C2.25 8.89382 2.25 8.90385 2.25 8.9139C2.25 8.92395 2.25 8.93402 2.25 8.9441C2.25 8.95418 2.25 8.96428 2.25 8.97439C2.25 8.98451 2.25 8.99464 2.25 9.00478C2.25 9.01493 2.25 9.02508 2.25 9.03526C2.25 9.04543 2.25 9.05562 2.25 9.06583C2.25 9.07603 2.25 9.08625 2.25 9.09649C2.25 9.10672 2.25 9.11697 2.25 9.12724C2.25 9.1375 2.25 9.14778 2.25 9.15808C2.25 9.16837 2.25 9.17868 2.25 9.189C2.25 9.19932 2.25 9.20966 2.25 9.22001C2.25 9.23036 2.25 9.24073 2.25 9.25111C2.25 9.26149 2.25 9.27188 2.25 9.28229C2.25 9.29269 2.25 9.30311 2.25 9.31355C2.25 9.32398 2.25 9.33443 2.25 9.34489C2.25 9.35536 2.25 9.36583 2.25 9.37632C2.25 9.38681 2.25 9.39731 2.25 9.40783C2.25 9.41834 2.25 9.42887 2.25 9.43941C2.25 9.44995 2.25 9.46051 2.25 9.47107C2.25 9.48164 2.25 9.49222 2.25 9.50281C2.25 9.51341 2.25 9.52401 2.25 9.53463C2.25 9.54525 2.25 9.55588 2.25 9.56652C2.25 9.57716 2.25 9.58782 2.25 9.59848C2.25 9.60915 2.25 9.61983 2.25 9.63052C2.25 9.64121 2.25 9.65191 2.25 9.66263C2.25 9.67334 2.25 9.68407 2.25 9.69481C2.25 9.70555 2.25 9.7163 2.25 9.72706C2.25 9.73782 2.25 9.74859 2.25 9.75938C2.25 9.77016 2.25 9.78096 2.25 9.79176C2.25 9.80257 2.25 9.81339 2.25 9.82421C2.25 9.83504 2.25 9.84588 2.25 9.85673C2.25 9.86758 2.25 9.87844 2.25 9.88932C2.25 9.90019 2.25 9.91107 2.25 9.92196C2.25 9.93286 2.25 9.94376 2.25 9.95467C2.25 9.96559 2.25 9.97651 2.25 9.98744C2.25 9.99838 2.25 10.0093 2.25 10.0203C2.25 10.0312 2.25 10.0422 2.25 10.0532C2.25 10.0641 2.25 10.0751 2.25 10.0861C2.25 10.0971 2.25 10.1081 2.25 10.1191C2.25 10.1301 2.25 10.1412 2.25 10.1522C2.25 10.1632 2.25 10.1743 2.25 10.1853C2.25 10.1964 2.25 10.2074 2.25 10.2185C2.25 10.2295 2.25 10.2406 2.25 10.2517C2.25 10.2628 2.25 10.2739 2.25 10.285C2.25 10.2961 2.25 10.3072 2.25 10.3183C2.25 10.3294 2.25 10.3406 2.25 10.3517C2.25 10.3628 2.25 10.374 2.25 10.3851C2.25 10.3963 2.25 10.4074 2.25 10.4186C2.25 10.4298 2.25 10.4409 2.25 10.4521C2.25 10.4633 2.25 10.4745 2.25 10.4857C2.25 10.4969 2.25 10.5081 2.25 10.5193C2.25 10.5305 2.25 10.5418 2.25 10.553C2.25 10.5642 2.25 10.5754 2.25 10.5867C2.25 10.5979 2.25 10.6092 2.25 10.6204C2.25 10.6317 2.25 10.643 2.25 10.6542C2.25 10.6655 2.25 10.6768 2.25 10.6881C2.25 10.6993 2.25 10.7106 2.25 10.7219C2.25 10.7332 2.25 10.7445 2.25 10.7558C2.25 10.7671 2.25 10.7785 2.25 10.7898C2.25 10.8011 2.25 10.8124 2.25 10.8238C2.25 10.8351 2.25 10.8464 2.25 10.8578C2.25 10.8691 2.25 10.8805 2.25 10.8918C2.25 10.9032 2.25 10.9145 2.25 10.9259C2.25 10.9373 2.25 10.9486 2.25 10.96C2.25 10.9714 2.25 10.9828 2.25 10.9942C2.25 11.0055 2.25 11.0169 2.25 11.0283C2.25 11.0397 2.25 11.0511 2.25 11.0625C2.25 11.0739 2.25 11.0853 2.25 11.0968C2.25 11.1082 2.25 11.1196 2.25 11.131C2.25 11.1424 2.25 11.1539 2.25 11.1653C2.25 11.1767 2.25 11.1882 2.25 11.1996C2.25 11.2111 2.25 11.2225 2.25 11.2339C2.25 11.2454 2.25 11.2568 2.25 11.2683C2.25 11.2798 2.25 11.2912 2.25 11.3027C2.25 11.3141 2.25 11.3256 2.25 11.3371C2.25 11.3485 2.25 11.36 2.25 11.3715C2.25 11.383 2.25 11.3944 2.25 11.4059C2.25 11.4174 2.25 11.4289 2.25 11.4404C2.25 11.4519 2.25 11.4634 2.25 11.4749C2.25 11.4863 2.25 11.4978 2.25 11.5093C2.25 11.5208 2.25 11.5323 2.25 11.5438C2.25 11.5553 2.25 11.5668 2.25 11.5784C2.25 11.5899 2.25 11.6014 2.25 11.6129C2.25 11.6244 2.25 11.6359 2.25 11.6474C2.25 11.6589 2.25 11.6705 2.25 11.682C2.25 11.6935 2.25 11.705 2.25 11.7165C2.25 11.728 2.25 11.7396 2.25 11.7511C2.25 11.7626 2.25 11.7741 2.25 11.7857C2.25 11.7972 2.25 11.8087 2.25 11.8203C2.25 11.8318 2.25 11.8433 2.25 11.8548C2.25 11.8664 2.25 11.8779 2.25 11.8894C2.25 11.901 2.25 11.9125 2.25 11.924C2.25 11.9356 2.25 11.9471 2.25 11.9586C2.25 11.9702 2.25 11.9817 2.25 11.9932C2.25 12.0048 2.25 12.0163 2.25 12.0278C2.25 12.0394 2.25 12.0509 2.25 12.0624C2.25 12.0739 2.25 12.0855 2.25 12.097C2.25 12.1085 2.25 12.1201 2.25 12.1316C2.25 12.1431 2.25 12.1547 2.25 12.1662C2.25 12.1777 2.25 12.1893 2.25 12.2008C2.25 12.2123 2.25 12.2238 2.25 12.2354C2.25 12.2469 2.25 12.2584 2.25 12.2699C2.25 12.2815 2.25 12.293 2.25 12.3045C2.25 12.316 2.25 12.3275 2.25 12.3391C2.25 12.3506 2.25 12.3621 2.25 12.3736C2.25 12.3851 2.25 12.3966 2.25 12.4081C2.25 12.4196 2.25 12.4312 2.25 12.4427C2.25 12.4542 2.25 12.4657 2.25 12.4772C2.25 12.4887 2.25 12.5002 2.25 12.5117C2.25 12.5232 2.25 12.5347 2.25 12.5461C2.25 12.5576 2.25 12.5691 2.25 12.5806C2.25 12.5921 2.25 12.6036 2.25 12.6151C2.25 12.6265 2.25 12.638 2.25 12.6495C2.25 12.661 2.25 12.6724 2.25 12.6839C2.25 12.6954 2.25 12.7068 2.25 12.7183C2.25 12.7298 2.25 12.7412 2.25 12.7527C2.25 12.7641 2.25 12.7756 2.25 12.787C2.25 12.7985 2.25 12.8099 2.25 12.8213C2.25 12.8328 2.25 12.8442 2.25 12.8556C2.25 12.8671 2.25 12.8785 2.25 12.8899C2.25 12.9013 2.25 12.9128 2.25 12.9242C2.25 12.9356 2.25 12.947 2.25 12.9584C2.25 12.9698 2.25 12.9812 2.25 12.9926C2.25 13.004 2.25 13.0154 2.25 13.0267C2.25 13.0381 2.25 13.0495 2.25 13.0609C2.25 13.0723 2.25 13.0836 2.25 13.095C2.25 13.1063 2.25 13.1177 2.25 13.1291C2.25 13.1404 2.25 13.1518 2.25 13.1631C2.25 13.1744 2.25 13.1858 2.25 13.1971C2.25 13.2084 2.25 13.2197 2.25 13.2311C2.25 13.2424 2.25 13.2537 2.25 13.265C2.25 13.2763 2.25 13.2876 2.25 13.2989C2.25 13.3102 2.25 13.3215 2.25 13.3327C2.25 13.344 2.25 13.3553 2.25 13.3666C2.25 13.3778 2.25 13.3891 2.25 13.4003C2.25 13.4116 2.25 13.4228 2.25 13.4341C2.25 13.4453 2.25 13.4565 2.25 13.4678C2.25 13.479 2.25 13.4902 2.25 13.5014C2.25 13.5126 2.25 13.5238 2.25 13.535C2.25 13.5462 2.25 13.5574 2.25 13.5686C2.25 13.5797 2.25 13.5909 2.25 13.6021C2.25 13.6132 2.25 13.6244 2.25 13.6355C2.25 13.6467 2.25 13.6578 2.25 13.669C2.25 13.6801 2.25 13.6912 2.25 13.7023C2.25 13.7134 2.25 13.7245 2.25 13.7356C2.25 13.7467 2.25 13.7578 2.25 13.7689C2.25 13.78 2.25 13.791 2.25 13.8021C2.25 13.8132 2.25 13.8242 2.25 13.8353C2.25 13.8463 2.25 13.8573 2.25 13.8684C2.25 13.8794 2.25 13.8904 2.25 13.9014C2.25 13.9124 2.25 13.9234 2.25 13.9344C2.25 13.9454 2.25 13.9564 2.25 13.9673C2.25 13.9783 2.25 13.9893 2.25 14.0002C2.25 14.0111 2.25 14.0221 2.25 14.033C2.25 14.0439 2.25 14.0549 2.25 14.0658C2.25 14.0767 2.25 14.0876 2.25 14.0985C2.25 14.1093 2.25 14.1202 2.25 14.1311C2.25 14.1419 2.25 14.1528 2.25 14.1636C2.25 14.1745 2.25 14.1853 2.25 14.1961C2.25 14.207 2.25 14.2178 2.25 14.2286C2.25 14.2394 2.25 14.2502 2.25 14.2609C2.25 14.2717 2.25 14.2825 2.25 14.2932C2.25 14.304 2.25 14.3147 2.25 14.3255C2.25 14.3362 2.25 14.3469 2.25 14.3576C2.25 14.3683 2.25 14.379 2.25 14.3897C2.25 14.4004 2.25 14.4111 2.25 14.4217C2.25 14.4324 2.25 14.443 2.25 14.4537C2.25 14.4643 2.25 14.4749 2.25 14.4855C2.25 14.4961 2.25 14.5067 2.25 14.5173C2.25 14.5279 2.25 14.5385 2.25 14.549C2.25 14.5596 2.25 14.5701 2.25 14.5807C2.25 14.5912 2.25 14.6017 2.25 14.6122C2.25 14.6227 2.25 14.6332 2.25 14.6437C2.25 14.6542 2.25 14.6647 2.25 14.6751C2.25 14.6856 2.25 14.696 2.25 14.7064C2.25 14.7169 2.25 14.7273 2.25 14.7377C2.25 14.7481 2.25 14.7584 2.25 14.7688C2.25 14.7792 2.25 14.7895 2.25 14.7999C2.25 14.8102 2.25 14.8206 2.25 14.8309C2.25 14.8412 2.25 14.8515 2.25 14.8618C2.25 14.872 2.25 14.8823 2.25 14.8926C2.25 14.9028 2.25 14.9131 2.25 14.9233C2.25 14.9335 2.25 14.9437 2.25 14.9539C2.25 14.9641 2.25 14.9743 2.25 14.9845C2.25 14.9946 2.25 15.0048 2.25 15.0149C2.25 15.025 2.25 15.0352 2.25 15.0453C2.25 15.0554 2.25 15.0655 2.25 15.0755C2.25 15.0856 2.25 15.0957 2.25 15.1057C2.25 15.1157 2.25 15.1258 2.25 15.1358C2.25 15.1458 2.25 15.1558 2.25 15.1657C2.25 15.1757 2.25 15.1857 2.25 15.1956C2.25 15.2056 2.25 15.2155 2.25 15.2254C2.25 15.2353 2.25 15.2452 2.25 15.2551C2.25 15.265 2.25 15.2748 2.25 15.2847C2.25 15.2945 2.25 15.3043 2.25 15.3141C2.25 15.324 2.25 15.3337 2.25 15.3435C2.25 15.3533 2.25 15.363 2.25 15.3728C2.25 15.3825 2.25 15.3923 2.25 15.402C2.25 15.4117 2.25 15.4213 2.25 15.431C2.25 15.4407 2.25 15.4503 2.25 15.46C2.25 15.4696 2.25 15.4792 2.25 15.4888C2.25 15.4984 2.25 15.508 2.25 15.5176C2.25 15.5271 2.25 15.5367 2.25 15.5462C2.25 15.5557 2.25 15.5652 2.25 15.5747C2.25 15.5842 2.25 15.5936 2.25 15.6031C2.25 15.6125 2.25 15.622 2.25 15.6314C2.25 15.6408 2.25 15.6502 2.25 15.6596C2.25 15.6689 2.25 15.6783 2.25 15.6876C2.25 15.697 2.25 15.7063 2.25 15.7156C2.25 15.7249 2.25 15.7341 2.25 15.7434C2.25 15.7527 2.25 15.7619 2.25 15.7711C2.25 15.7803 2.25 15.7895 2.25 15.7987C2.25 15.8079 2.25 15.817 2.25 15.8262C2.25 15.8353 2.25 15.8444 2.25 15.8535C2.25 15.8626 2.25 15.8717 2.25 15.8808C2.25 15.8898 2.25 15.8988 2.25 15.9079C2.25 15.9169 2.25 15.9259 2.25 15.9348C2.25 15.9438 2.25 15.9528 2.25 15.9617C2.25 15.9706 2.25 15.9795 2.25 15.9884C2.25 15.9973 2.25 16.0062 2.25 16.015C2.25 16.0239 2.25 16.0327 2.25 16.0415C2.25 16.0503 2.25 16.0591 2.25 16.0678C2.25 16.0766 2.25 16.0853 2.25 16.0941C2.25 16.1028 2.25 16.1115 2.25 16.1201C2.25 16.1288 2.25 16.1375 2.25 16.1461C2.25 16.1547 2.25 16.1633 2.25 16.1719C2.25 16.1805 2.25 16.189 2.25 16.1976C2.25 16.2061 2.25 16.2146 2.25 16.2231C2.25 16.2316 2.25 16.2401 2.25 16.2485C2.25 16.257 2.25 16.2654 2.25 16.2738C2.25 16.2822 2.25 16.2906 2.25 16.299C2.25 16.3073 2.25 16.3156 2.25 16.3239C2.25 16.3323 2.25 16.3405 2.25 16.3488C2.25 16.3571 2.25 16.3653 2.25 16.3735C2.25 16.3817 2.25 16.3899 2.25 16.3981C2.25 16.4063 2.25 16.4144 2.25 16.4225C2.25 16.4306 2.25 16.4387 2.25 16.4468C2.25 16.4549 2.25 16.4629 2.25 16.4709C2.25 16.479 2.25 16.4869 2.25 16.4949C2.25 16.5029 2.25 16.5108 2.25 16.5188C2.25 16.5267 2.25 16.5346 2.25 16.5425C2.25 16.5503 2.25 16.5582 2.25 16.566C2.25 16.5738 2.25 16.5816 2.25 16.5894C2.25 16.5972 2.25 16.6049 2.25 16.6126C2.25 16.6204 2.25 16.6281 2.25 16.6357C2.25 16.6434 2.25 16.651 2.25 16.6587C2.25 16.6663 2.25 16.6739 2.25 16.6814C2.25 16.689 2.25 16.6965 2.25 16.7041C2.25 16.7116 2.25 16.7191 2.25 16.7265C2.25 16.734 2.25 16.7414 2.25 16.7488C2.25 16.7562 2.25 16.7636 2.25 16.771C2.25 16.7783 2.25 16.7857 2.25 16.793C2.25 16.8003 2.25 16.8076 2.25 16.8148C2.25 16.8221 2.25 16.8293 2.25 16.8365C2.25 16.8437 2.25 16.8508 2.25 16.858C2.25 16.8651 2.25 16.8722 2.25 16.8793C2.25 16.8864 2.25 16.8935 2.25 16.9005C2.25 16.9075 2.25 16.9145 2.25 16.9215C2.25 16.9285 2.25 16.9354 2.25 16.9423C2.25 16.9493 2.25 16.9562 2.25 16.963C2.25 16.9699 2.25 16.9767 2.25 16.9835C2.25 16.9903 2.25 16.9971 2.25 17.0039C2.25 17.0106 2.25 17.0173 2.25 17.024C2.25 17.0307 2.25 17.0374 2.25 17.044C2.25 17.0506 2.25 17.0572 2.25 17.0638C2.25 17.0704 2.25 17.077 2.25 17.0835C2.25 17.09 2.25 17.0965 2.25 17.1029C2.25 17.1094 2.25 17.1158 2.25 17.1222C2.25 17.1286 2.25 17.135 2.25 17.1413C2.25 17.1477 2.25 17.154 2.25 17.1603C2.25 17.1666 2.25 17.1728 2.25 17.179C2.25 17.1853 2.25 17.1915 2.25 17.1976C2.25 17.2038 2.25 17.2099 2.25 17.216C2.25 17.2221 2.25 17.2282 2.25 17.2342C2.25 17.2403 2.25 17.2463 2.25 17.2523C2.25 17.2582 2.25 17.2642 2.25 17.2701C2.25 17.276 2.25 17.2819 2.25 17.2878C2.25 17.2936 2.25 17.2994 2.25 17.3052C2.25 17.311 2.25 17.3168 2.25 17.3225C2.25 17.3282 2.25 17.3339 2.25 17.3396C2.25 17.3453 2.25 17.3509 2.25 17.3565C2.25 17.3621 2.25 17.3677 2.25 17.3732C2.25 17.3788 2.25 17.3843 2.25 17.3898C2.25 17.3952 2.25 17.4007 2.25 17.4061C2.25 17.4115 2.25 17.4169 2.25 17.4222C2.25 17.4276 2.25 17.4329 2.25 17.4382C2.25 17.4435 2.25 17.4487 2.25 17.4539C2.25 17.4591 2.25 17.4643 2.25 17.4695C2.25 17.4746 2.25 17.4797 2.25 17.4848C2.25 17.4899 2.25 17.495 2.25 17.5C2.25 17.505 2.25 17.51 2.25 17.5149C2.25 17.5199 2.25 17.5248 2.25 17.5297C2.25 17.5346 2.25 17.5394 2.25 17.5443C2.25 17.5491 2.25 17.5539 2.25 17.5586C2.25 17.5634 2.25 17.5681 2.25 17.5727C2.25 17.5774 2.25 17.5821 2.25 17.5867C2.25 17.5913 2.25 17.5959 2.25 17.6004C2.25 17.605 2.25 17.6095 2.25 17.614C2.25 17.6184 2.25 17.6229 2.25 17.6273C2.25 17.6317 2.25 17.6361 2.25 17.6404C2.25 17.6447 2.25 17.649 2.25 17.6533C2.25 17.6576 2.25 17.6618 2.25 17.666C2.25 17.6702 2.25 17.6743 2.25 17.6785C2.25 17.6826 2.25 17.6867 2.25 17.6907C2.25 17.6948 2.25 17.6988 2.25 17.7028C2.25 17.7068 2.25 17.7107 2.25 17.7146C2.25 17.7185 2.25 17.7224 2.25 17.7262C2.25 17.7301 2.25 17.7339 2.25 17.7376C2.25 17.7414 2.25 17.7451 2.25 17.7488C2.25 17.7525 2.25 17.7562 2.25 17.7598C2.25 17.7634 2.25 17.767 2.25 17.7705C2.25 17.7741 2.25 17.7776 2.25 17.7811C2.25 17.7845 2.25 17.788 2.25 17.7914C2.25 17.7948 2.25 17.7981 2.25 17.8014C2.25 17.8048 2.25 17.8081 2.25 17.8113C2.25 17.8145 2.25 17.8178 2.25 17.8209C2.25 17.8241 2.25 17.8272 2.25 17.8303C2.25 17.8334 2.25 17.8365 2.25 17.8395C2.25 17.8425 2.25 17.8455 2.25 17.8485C2.25 17.8514 2.25 17.8543 2.25 17.8572C2.25 17.86 2.25 17.8629 2.25 17.8657C2.25 17.8685 2.25 17.8712 2.25 17.8739C2.25 17.8766 2.25 17.8793 2.25 17.8819C2.25 17.8846 2.25 17.8872 2.25 17.8897C2.25 17.8923 2.25 17.8948 2.25 17.8973C2.25 17.8998 2.25 17.9022 2.25 17.9046C2.25 17.907 2.25 17.9094 2.25 17.9117C2.25 17.914 2.25 17.9163 2.25 17.9185C2.25 17.9208 2.25 17.923 2.25 17.9251C2.25 17.9273 2.25 17.9294 2.25 17.9315C2.25 17.9336 2.25 17.9356 2.25 17.9376C2.25 17.9396 2.25 17.9416 2.25 17.9435C2.25 17.9455 2.25 17.9473 2.25 17.9492C2.25 17.951 2.25 17.9528 2.25 17.9546C2.25 17.9563 2.25 17.9581 2.25 17.9597C2.25 17.9614 2.25 17.963 2.25 17.9646C2.25 17.9662 2.25 17.9678 2.25 17.9693C2.25 17.9708 2.25 17.9723 2.25 17.9737C2.25 17.9752 2.25 17.9765 2.25 17.9779C2.25 17.9792 2.25 17.9805 2.25 17.9818C2.25 17.9831 2.25 17.9843 2.25 17.9855C2.25 17.9866 2.25 17.9878 2.25 17.9889C2.25 17.99 2.25 17.991 2.25 17.992C2.25 17.9931 2.25 17.994 2.25 17.995C2.25 17.9959 2.25 17.9968 2.25 17.9976C2.25 17.9984 2.25 17.9992 2.25 18H3.75ZM12.75 22L12.75 10H11.25L11.25 22H12.75ZM20.6954 17.3146L11.6954 21.3146L12.3046 22.6854L21.3046 18.6854L20.6954 17.3146ZM12.3046 21.3146L3.3046 17.3146L2.6954 18.6854L11.6954 22.6854L12.3046 21.3146Z" fill="#141B34"/>
<path d="M12 10L21 6L12 2L3 6L12 10Z" stroke="#141B34" stroke-width="1.5" stroke-linecap="round" stroke-linejoin="round"/>
<path d="M16.5 4L7.5 8" stroke="#141B34" stroke-width="1.5" stroke-linejoin="round"/>
<path d="M6 12L8 13" stroke="#141B34" stroke-width="1.5" stroke-linejoin="round"/>
</svg>
