<svg width="24" height="24" viewBox="0 0 24 24" fill="none" xmlns="http://www.w3.org/2000/svg">
<path d="M6 11L5.37596 10.584L5.25 10.7729V11H6ZM12 2L12.624 1.58397C12.4849 1.37533 12.2508 1.25 12 1.25C11.7492 1.25 11.5151 1.37533 11.376 1.58397L12 2ZM18 11H18.75V10.7729L18.624 10.584L18 11ZM6.75 22V11H5.25V22H6.75ZM6.62404 11.416L12.624 2.41603L11.376 1.58397L5.37596 10.584L6.62404 11.416ZM18.75 22V11H17.25V22H18.75ZM18.624 10.584L12.624 1.58397L11.376 2.41603L17.376 11.416L18.624 10.584Z" fill="#141B34"/>
<path d="M18 11H6" stroke="#141B34" stroke-width="1.5"/>
<path d="M12 11L12 22" stroke="#141B34" stroke-width="1.5" stroke-linejoin="round"/>
<path d="M9.5 6H14.5" stroke="#141B34" stroke-width="1.5" stroke-linejoin="round"/>
</svg>
