<svg width="24" height="24" viewBox="0 0 24 24" fill="none" xmlns="http://www.w3.org/2000/svg">
<path d="M8 22V15H16V22" stroke="#141B34" stroke-width="1.5" stroke-linejoin="round"/>
<path d="M9.5 7H14.5" stroke="#141B34" stroke-width="1.5" stroke-linejoin="round"/>
<path d="M3 2V1.25C2.58579 1.25 2.25 1.58579 2.25 2H3ZM15 2L15.4801 1.42383L15.2715 1.25H15V2ZM3 22H2.25C2.25 22.4142 2.58579 22.75 3 22.75V22ZM21 22V22.75C21.4142 22.75 21.75 22.4142 21.75 22H21ZM21 6.99997H21.75V6.64869L21.4801 6.42381L21 6.99997ZM20.25 6.99997V22H21.75V6.99997H20.25ZM3.75 22V2H2.25V22H3.75ZM14.5199 2.57617L20.5199 7.57614L21.4801 6.42381L15.4801 1.42383L14.5199 2.57617ZM3 2.75H15V1.25H3V2.75ZM21 21.25H3V22.75H21V21.25Z" fill="#141B34"/>
</svg>
