<svg width="24" height="24" viewBox="0 0 24 24" fill="none" xmlns="http://www.w3.org/2000/svg">
<path d="M18.5002 7C18.5002 6.17157 17.8286 5.5 17.0002 5.5C16.1718 5.5 15.5002 6.17157 15.5002 7C15.5002 7.82843 16.1718 8.5 17.0002 8.5C17.8286 8.5 18.5002 7.82843 18.5002 7Z" stroke="#141B34" stroke-width="1.5" stroke-linejoin="round"/>
<path d="M22 2.00001H22.75C22.75 1.5858 22.4142 1.25001 22 1.25001V2.00001ZM22 12L22.5303 12.5304L22.75 12.3107V12H22ZM12 22L11.4697 22.5303C11.7626 22.8232 12.2375 22.8232 12.5304 22.5303L12 22ZM2 12L1.46967 11.4697C1.32902 11.6103 1.25 11.8011 1.25 12C1.25 12.1989 1.32902 12.3897 1.46967 12.5303L2 12ZM12 2.00001V1.25001H11.6893L11.4697 1.46968L12 2.00001ZM21.25 2.00001V12H22.75V2.00001H21.25ZM21.4697 11.4697L11.4697 21.4697L12.5304 22.5303L22.5303 12.5304L21.4697 11.4697ZM12.5304 21.4697L2.53033 11.4697L1.46967 12.5303L11.4697 22.5303L12.5304 21.4697ZM22 1.25001H12V2.75001H22V1.25001ZM11.4697 1.46968L1.46967 11.4697L2.53033 12.5303L12.5303 2.53034L11.4697 1.46968Z" fill="#141B34"/>
<path d="M7.98239 13L10.9824 16" stroke="#141B34" stroke-width="1.5" stroke-linejoin="round"/>
</svg>
