<svg width="24" height="24" viewBox="0 0 24 24" fill="none" xmlns="http://www.w3.org/2000/svg">
<path d="M15 7L15.3859 6.35688L15 6.12536L14.6141 6.35688L15 7ZM20 10H20.75V9.57536L20.3859 9.35688L20 10ZM20 22V22.75C20.4142 22.75 20.75 22.4142 20.75 22H20ZM10 10L9.61413 9.35688L9.25 9.57536V10H10ZM10 22H9.25C9.25 22.4142 9.58579 22.75 10 22.75V22ZM14.6141 7.64312L19.6141 10.6431L20.3859 9.35688L15.3859 6.35688L14.6141 7.64312ZM19.25 10V22H20.75V10H19.25ZM14.6141 6.35688L9.61413 9.35688L10.3859 10.6431L15.3859 7.64312L14.6141 6.35688ZM9.25 10V22H10.75V10H9.25ZM20 21.25H10V22.75H20V21.25Z" fill="#141B34"/>
<path d="M12.7198 6L13.2593 5.47899L12.9467 5.1553L12.514 5.2788L12.7198 6ZM7.11277 7.60032L6.90693 6.87912L6.4986 6.99567L6.38845 7.40577L7.11277 7.60032ZM4 19.1896L3.27567 18.995C3.16823 19.3951 3.40542 19.8064 3.80545 19.9139L4 19.1896ZM13.4605 7.84659C13.7483 8.14454 14.2231 8.15281 14.521 7.86506C14.819 7.57732 14.8272 7.10251 14.5395 6.80456L13.4605 7.84659ZM9.80545 21.5254C10.2055 21.6329 10.6169 21.3957 10.7243 20.9957C10.8318 20.5956 10.5946 20.1842 10.1945 20.0768L9.80545 21.5254ZM12.514 5.2788L6.90693 6.87912L7.31861 8.32152L12.9257 6.7212L12.514 5.2788ZM6.38845 7.40577L3.27567 18.995L4.72433 19.3841L7.8371 7.79487L6.38845 7.40577ZM12.1803 6.52101L13.4605 7.84659L14.5395 6.80456L13.2593 5.47899L12.1803 6.52101ZM10.1945 20.0768L4.19455 18.4652L3.80545 19.9139L9.80545 21.5254L10.1945 20.0768Z" fill="#141B34"/>
<path d="M14.4947 10C15.336 9.44058 16.0828 8.54291 16.5468 7.42653C17.5048 5.12162 16.8944 2.75724 15.1836 2.14554C13.4727 1.53383 11.3091 2.90644 10.3512 5.21135C10.191 5.59667 10.0747 5.98366 10 6.36383" stroke="#141B34" stroke-width="1.5"/>
</svg>
