<svg width="24" height="24" viewBox="0 0 24 24" fill="none" xmlns="http://www.w3.org/2000/svg">
<path d="M2 13.5V3.50002L7 3.5V13.5H2Z" stroke="#141B34" stroke-width="1.5" stroke-linecap="round" stroke-linejoin="round"/>
<path d="M14 20.5L13.4678 21.0285C13.6083 21.17 13.7993 21.2497 13.9987 21.25C14.1981 21.2504 14.3894 21.1713 14.5303 21.0303L14 20.5ZM7 13.4513H6.25C6.25 13.6493 6.32831 13.8393 6.46783 13.9798L7 13.4513ZM19 3.5L19.7181 3.28352L19.5572 2.75H19V3.5ZM7 3.5V2.75C6.58579 2.75 6.25 3.08579 6.25 3.5H7ZM22 13.4513V14.2013C22.2373 14.2013 22.4605 14.089 22.602 13.8986C22.7435 13.7081 22.7866 13.462 22.7181 13.2348L22 13.4513ZM14.5 13.4513V12.7013H13.4948L13.7811 13.6649L14.5 13.4513ZM16 18.5L16.5303 19.0303C16.7249 18.8357 16.7973 18.5502 16.7189 18.2864L16 18.5ZM14.5322 19.9715L7.53217 12.9228L6.46783 13.9798L13.4678 21.0285L14.5322 19.9715ZM19 2.75H7V4.25H19V2.75ZM18.2819 3.71648L21.2819 13.6678L22.7181 13.2348L19.7181 3.28352L18.2819 3.71648ZM22 12.7013H14.5V14.2013H22V12.7013ZM13.7811 13.6649L15.2811 18.7136L16.7189 18.2864L15.2189 13.2377L13.7811 13.6649ZM15.4697 17.9697L13.4697 19.9697L14.5303 21.0303L16.5303 19.0303L15.4697 17.9697ZM6.25 3.5V13.4513H7.75V3.5H6.25Z" fill="#141B34"/>
</svg>
