<svg width="24" height="24" viewBox="0 0 24 24" fill="none" xmlns="http://www.w3.org/2000/svg">
<path d="M2 10.5V20.5H7V10.5H2Z" stroke="#141B34" stroke-width="1.5" stroke-linecap="round" stroke-linejoin="round"/>
<path d="M14 3.5L14.5303 2.96967C14.3894 2.8287 14.1981 2.74966 13.9987 2.75C13.7993 2.75035 13.6083 2.83005 13.4678 2.97151L14 3.5ZM7 10.5487L6.46783 10.0202C6.32831 10.1607 6.25 10.3507 6.25 10.5487H7ZM19 20.5L19 21.25H19.5572L19.7181 20.7165L19 20.5ZM7 20.5H6.25C6.25 20.9142 6.58579 21.25 7 21.25L7 20.5ZM22 10.5487L22.7181 10.7652C22.7866 10.538 22.7435 10.2919 22.602 10.1014C22.4605 9.91099 22.2373 9.79872 22 9.79872V10.5487ZM14.5 10.5487L13.7811 10.3351L13.4948 11.2987H14.5V10.5487ZM16 5.5L16.7189 5.7136C16.7973 5.4498 16.7249 5.16426 16.5303 4.96967L16 5.5ZM13.4678 2.97151L6.46783 10.0202L7.53217 11.0772L14.5322 4.02849L13.4678 2.97151ZM19 19.75L7 19.75L7 21.25L19 21.25L19 19.75ZM19.7181 20.7165L22.7181 10.7652L21.2819 10.3322L18.2819 20.2835L19.7181 20.7165ZM22 9.79872H14.5V11.2987H22V9.79872ZM15.2189 10.7623L16.7189 5.7136L15.2811 5.2864L13.7811 10.3351L15.2189 10.7623ZM16.5303 4.96967L14.5303 2.96967L13.4697 4.03033L15.4697 6.03033L16.5303 4.96967ZM7.75 20.5V10.5487H6.25V20.5H7.75Z" fill="#141B34"/>
</svg>
