<svg width="24" height="24" viewBox="0 0 24 24" fill="none" xmlns="http://www.w3.org/2000/svg">
<path d="M15.0056 6.01007L14.4743 5.48079L15.0056 6.01007ZM15.0081 8.98767L14.4776 9.51782L15.0081 8.98767ZM17.9896 8.98831L18.5198 9.51868L18.5199 9.51868L17.9896 8.98831ZM20.9612 6.0171L21.6439 5.7064L21.1958 4.722L20.431 5.48673L20.9612 6.0171ZM17.9717 3.03227L18.503 3.56155L19.2661 2.79549L18.2813 2.34916L17.9717 3.03227ZM6.49804 21.5002L5.96771 22.0306C6.10837 22.1712 6.29913 22.2502 6.49804 22.2502C6.69696 22.2502 6.88772 22.1712 7.02837 22.0306L6.49804 21.5002ZM2.49805 17.5002L1.96772 16.9699C1.67482 17.2628 1.67482 17.7377 1.96772 18.0305L2.49805 17.5002ZM13.7552 14.2431L13.9726 13.5253L13.5426 13.395L13.2248 13.7128L13.7552 14.2431ZM9.75473 10.2435L10.2851 10.7739L10.6029 10.456L10.4725 10.0259L9.75473 10.2435ZM14.4743 5.48079C13.3622 6.59726 13.3637 8.40317 14.4776 9.51782L15.5386 8.45753C15.0093 7.92791 15.0086 7.06983 15.537 6.53935L14.4743 5.48079ZM17.4593 8.45794C16.9288 8.98831 16.0688 8.98812 15.5386 8.45753L14.4776 9.51782C15.5935 10.6345 17.4035 10.6349 18.5198 9.51868L17.4593 8.45794ZM20.7475 8.5C20.7475 11.3995 18.397 13.75 15.4975 13.75V15.25C19.2254 15.25 22.2475 12.2279 22.2475 8.5H20.7475ZM10.2475 8.5C10.2475 5.60051 12.598 3.25 15.4975 3.25V1.75C11.7696 1.75 8.74747 4.77208 8.74747 8.5H10.2475ZM20.2786 6.3278C20.5795 6.98882 20.7475 7.72378 20.7475 8.5H22.2475C22.2475 7.50515 22.0318 6.55864 21.6439 5.7064L20.2786 6.3278ZM20.431 5.48673L17.4593 8.45794L18.5199 9.51868L21.4915 6.54747L20.431 5.48673ZM15.4975 3.25C16.2707 3.25 17.003 3.41669 17.6621 3.71539L18.2813 2.34916C17.4316 1.96405 16.4885 1.75 15.4975 1.75V3.25ZM17.4403 2.50299L14.4743 5.48079L15.537 6.53935L18.503 3.56155L17.4403 2.50299ZM1.96772 18.0305L5.96771 22.0306L7.02837 20.9699L3.02838 16.9699L1.96772 18.0305ZM13.2248 13.7128L5.96771 20.9699L7.02837 22.0306L14.2855 14.7734L13.2248 13.7128ZM15.4975 13.75C14.966 13.75 14.4543 13.6713 13.9726 13.5253L13.5377 14.9609C14.1588 15.1491 14.817 15.25 15.4975 15.25V13.75ZM10.4725 10.0259C10.3263 9.54394 10.2475 9.03186 10.2475 8.5H8.74747C8.74747 9.18093 8.84854 9.83962 9.037 10.4612L10.4725 10.0259ZM3.02838 18.0305L10.2851 10.7739L9.2244 9.71321L1.96772 16.9699L3.02838 18.0305Z" fill="#141B34"/>
<path d="M6.50634 17.4971L6.5 17.5034" stroke="#141B34" stroke-width="1.5" stroke-linecap="square" stroke-linejoin="round"/>
</svg>
