<svg width="24" height="24" viewBox="0 0 24 24" fill="none" xmlns="http://www.w3.org/2000/svg">
<path d="M4 9V8.25H3.25V9H4ZM4 22H3.25V22.75H4V22ZM20 22V22.75H20.75V22H20ZM20 9H20.75V8.25H20V9ZM3.25 9V22H4.75V9H3.25ZM4 22.75H20V21.25H4V22.75ZM19.25 9V22H20.75V9H19.25ZM20 8.25H4V9.75H20V8.25ZM8.25 9V6.5H6.75V9H8.25ZM8.25 6.5C8.25 4.42893 9.92893 2.75 12 2.75V1.25C9.10051 1.25 6.75 3.6005 6.75 6.5H8.25ZM12 2.75C13.5684 2.75 14.8672 3.97342 15.2885 5.23717L16.7115 4.76283C16.1328 3.02658 14.3503 1.25 12 1.25V2.75Z" fill="#141B34"/>
<path d="M11.9961 15.5H12.0051" stroke="#141B34" stroke-width="2" stroke-linecap="square" stroke-linejoin="round"/>
</svg>
