<svg width="24" height="24" viewBox="0 0 24 24" fill="none" xmlns="http://www.w3.org/2000/svg">
<path opacity="0.4" d="M5 7.5L5 13.5C5 16.3284 5 17.7426 5.87868 18.6213C6.75736 19.5 8.17157 19.5 11 19.5H14M14 19.5C14 20.2002 12.0057 21.5085 11.5 22M14 19.5C14 18.7998 12.0057 17.4915 11.5 17" stroke="#141B34" stroke-width="1.5" stroke-linecap="round" stroke-linejoin="round"/>
<path opacity="0.4" d="M13 5V5.75V5ZM18.1213 5.87868L18.6517 5.34835L18.6517 5.34835L18.1213 5.87868ZM13.0227 3.03781C13.3198 2.74911 13.3265 2.27428 13.0378 1.97726C12.7491 1.68023 12.2743 1.67349 11.9773 1.96219L13.0227 3.03781ZM11.9773 8.03781C12.2743 8.32651 12.7491 8.31977 13.0378 8.02274C13.3265 7.72572 13.3198 7.25089 13.0227 6.96219L11.9773 8.03781ZM13 4.25H10V5.75H13V4.25ZM19.75 11C19.75 9.60699 19.7516 8.48678 19.6335 7.60825C19.5125 6.70814 19.2536 5.95027 18.6517 5.34835L17.591 6.40901C17.8678 6.68577 18.0482 7.07434 18.1469 7.80812C18.2484 8.56347 18.25 9.56458 18.25 11H19.75ZM13 5.75C14.4354 5.75 15.4365 5.75159 16.1919 5.85315C16.9257 5.9518 17.3142 6.13225 17.591 6.40901L18.6517 5.34835C18.0497 4.74643 17.2919 4.48754 16.3918 4.36652C15.5132 4.24841 14.393 4.25 13 4.25V5.75ZM10.75 5C10.75 5.08323 10.7233 5.11162 10.7479 5.06557C10.7694 5.02547 10.8132 4.96014 10.8905 4.86939C11.0456 4.68727 11.274 4.47377 11.5452 4.24394C11.8132 4.01689 12.0975 3.79493 12.3593 3.58933C12.604 3.3971 12.8612 3.19487 13.0227 3.03781L11.9773 1.96219C11.886 2.05089 11.7042 2.19651 11.4328 2.40971C11.1784 2.60952 10.8693 2.85056 10.5755 3.09954C10.285 3.34574 9.98316 3.62131 9.74854 3.89679C9.63096 4.03483 9.51499 4.19043 9.42541 4.35782C9.33902 4.51926 9.25 4.74171 9.25 5H10.75ZM13.0227 6.96219C12.8612 6.80513 12.604 6.6029 12.3593 6.41067C12.0975 6.20507 11.8132 5.98311 11.5452 5.75606C11.274 5.52623 11.0456 5.31273 10.8905 5.13061C10.8132 5.03986 10.7694 4.97453 10.7479 4.93443C10.7233 4.88838 10.75 4.91677 10.75 5H9.25C9.25 5.25829 9.33902 5.48074 9.42541 5.64218C9.51499 5.80957 9.63096 5.96517 9.74854 6.10321C9.98316 6.37869 10.285 6.65426 10.5755 6.90046C10.8693 7.14944 11.1784 7.39048 11.4328 7.59029C11.7042 7.80349 11.886 7.94911 11.9773 8.03781L13.0227 6.96219ZM18.25 11V17H19.75V11H18.25Z" fill="#141B34"/>
<path d="M20.25 19C20.25 19.6904 19.6904 20.25 19 20.25V21.75C20.5188 21.75 21.75 20.5188 21.75 19H20.25ZM19 20.25C18.3096 20.25 17.75 19.6904 17.75 19H16.25C16.25 20.5188 17.4812 21.75 19 21.75V20.25ZM17.75 19C17.75 18.3096 18.3096 17.75 19 17.75V16.25C17.4812 16.25 16.25 17.4812 16.25 19H17.75ZM19 17.75C19.6904 17.75 20.25 18.3096 20.25 19H21.75C21.75 17.4812 20.5188 16.25 19 16.25V17.75Z" fill="#141B34"/>
<circle cx="5" cy="5" r="2" stroke="#141B34" stroke-width="1.5"/>
</svg>
