<svg width="24" height="24" viewBox="0 0 24 24" fill="none" xmlns="http://www.w3.org/2000/svg">
<path opacity="0.4" d="M6 8L6 16" stroke="#141B34" stroke-width="1.5" stroke-linecap="round" stroke-linejoin="round"/>
<circle cx="6" cy="18" r="2" stroke="#141B34" stroke-width="1.5"/>
<circle cx="6" cy="6" r="2" stroke="#141B34" stroke-width="1.5"/>
<path opacity="0.4" d="M12 6V5.25H12L12 6ZM17.1213 6.87868L16.591 7.40901V7.40901L17.1213 6.87868ZM14.0227 4.03781C14.3198 3.74911 14.3265 3.27428 14.0378 2.97726C13.7491 2.68023 13.2743 2.67349 12.9773 2.96219L14.0227 4.03781ZM12.9773 9.03781C13.2743 9.32651 13.7491 9.31977 14.0378 9.02274C14.3265 8.72572 14.3198 8.25089 14.0227 7.96219L12.9773 9.03781ZM12 5.25L11 5.25L11 6.75L12 6.75L12 5.25ZM18.75 12C18.75 10.607 18.7516 9.48678 18.6335 8.60825C18.5125 7.70814 18.2536 6.95026 17.6517 6.34835L16.591 7.40901C16.8678 7.68577 17.0482 8.07434 17.1469 8.80812C17.2484 9.56347 17.25 10.5646 17.25 12H18.75ZM12 6.75C13.4354 6.75 14.4365 6.75159 15.1919 6.85314C15.9257 6.9518 16.3142 7.13224 16.591 7.40901L17.6517 6.34835C17.0497 5.74643 16.2919 5.48754 15.3918 5.36652C14.5132 5.2484 13.393 5.25 12 5.25V6.75ZM11.75 6C11.75 6.08323 11.7233 6.11162 11.7479 6.06557C11.7694 6.02547 11.8132 5.96014 11.8905 5.86939C12.0456 5.68727 12.274 5.47377 12.5452 5.24394C12.8132 5.01689 13.0975 4.79493 13.3593 4.58933C13.604 4.3971 13.8612 4.19487 14.0227 4.03781L12.9773 2.96219C12.886 3.05089 12.7042 3.19651 12.4328 3.40971C12.1784 3.60953 11.8693 3.85056 11.5755 4.09954C11.285 4.34574 10.9832 4.62131 10.7485 4.89679C10.631 5.03483 10.515 5.19043 10.4254 5.35782C10.339 5.51926 10.25 5.74171 10.25 6H11.75ZM14.0227 7.96219C13.8612 7.80513 13.604 7.6029 13.3593 7.41067C13.0975 7.20507 12.8132 6.98311 12.5452 6.75606C12.274 6.52623 12.0456 6.31273 11.8905 6.13061C11.8132 6.03986 11.7694 5.97453 11.7479 5.93443C11.7233 5.88838 11.75 5.91677 11.75 6H10.25C10.25 6.25829 10.339 6.48074 10.4254 6.64218C10.515 6.80957 10.631 6.96517 10.7485 7.10321C10.9832 7.37869 11.285 7.65426 11.5755 7.90046C11.8693 8.14944 12.1784 8.39047 12.4328 8.59029C12.7042 8.80349 12.886 8.94911 12.9773 9.03781L14.0227 7.96219ZM17.25 12V16H18.75V12H17.25Z" fill="#141B34"/>
<path d="M19.25 18C19.25 18.6904 18.6904 19.25 18 19.25V20.75C19.5188 20.75 20.75 19.5188 20.75 18H19.25ZM18 19.25C17.3096 19.25 16.75 18.6904 16.75 18H15.25C15.25 19.5188 16.4812 20.75 18 20.75V19.25ZM16.75 18C16.75 17.3096 17.3096 16.75 18 16.75V15.25C16.4812 15.25 15.25 16.4812 15.25 18H16.75ZM18 16.75C18.6904 16.75 19.25 17.3096 19.25 18H20.75C20.75 16.4812 19.5188 15.25 18 15.25V16.75Z" fill="#141B34"/>
</svg>
