<svg width="24" height="24" viewBox="0 0 24 24" fill="none" xmlns="http://www.w3.org/2000/svg">
<path d="M16.999 19.5L17.3964 18.864L17.2141 18.75H16.999V19.5ZM16.999 15.5V16.25H17.2141L17.3964 16.1361L16.999 15.5ZM13.999 15.5V14.75C13.5848 14.75 13.249 15.0858 13.249 15.5H13.999ZM13.999 19.5H13.249C13.249 19.9142 13.5848 20.25 13.999 20.25V19.5ZM21.0002 22.0001L20.6028 22.6361C20.834 22.7806 21.1254 22.7882 21.3638 22.656C21.6022 22.5239 21.7502 22.2727 21.7502 22.0001H21.0002ZM21.0002 13H21.7502C21.7502 12.7274 21.6022 12.4762 21.3638 12.344C21.1254 12.2119 20.834 12.2195 20.6028 12.3639L21.0002 13ZM20.2502 13V22.0001H21.7502V13H20.2502ZM21.3976 21.364L17.3964 18.864L16.6016 20.136L20.6028 22.6361L21.3976 21.364ZM17.3964 16.1361L21.3976 13.6361L20.6028 12.3639L16.6016 14.8639L17.3964 16.1361ZM16.999 18.75H13.999V20.25H16.999V18.75ZM13.999 16.25H16.999V14.75H13.999V16.25ZM13.249 15.5V19.5H14.749V15.5H13.249Z" fill="#141B34"/>
<path d="M3 22H2.25C2.25 22.4142 2.58579 22.75 3 22.75V22ZM20 2H20.75C20.75 1.58579 20.4142 1.25 20 1.25V2ZM10 2V1.25H9.68934L9.46967 1.46967L10 2ZM3 9L2.46967 8.46967L2.25 8.68934V9H3ZM10 9V9.75H10.75V9H10ZM12 21.25H3V22.75H12V21.25ZM20 1.25H10V2.75H20V1.25ZM2.25 9V22H3.75V9H2.25ZM9.46967 1.46967L2.46967 8.46967L3.53033 9.53033L10.5303 2.53033L9.46967 1.46967ZM9.25 2V9H10.75V2H9.25ZM10 8.25H3V9.75H10V8.25ZM19.25 2V10H20.75V2H19.25Z" fill="#141B34"/>
</svg>
