<svg width="24" height="24" viewBox="0 0 24 24" fill="none" xmlns="http://www.w3.org/2000/svg">
<path d="M3 22H2.25C2.25 22.4142 2.58579 22.75 3 22.75V22ZM20 2H20.75C20.75 1.58579 20.4142 1.25 20 1.25V2ZM10 2V1.25H9.68934L9.46967 1.46967L10 2ZM3 9L2.46967 8.46967L2.25 8.68934V9H3ZM10 9V9.75H10.75V9H10ZM10 21.25H3V22.75H10V21.25ZM20 1.25H10V2.75H20V1.25ZM2.25 9V22H3.75V9H2.25ZM9.46967 1.46967L2.46967 8.46967L3.53033 9.53033L10.5303 2.53033L9.46967 1.46967ZM9.25 2V9H10.75V2H9.25ZM10 8.25H3V9.75H10V8.25ZM19.25 2V11H20.75V2H19.25Z" fill="#141B34"/>
<path d="M13 22H12.25V22.75H13V22ZM13 19.5L12.4697 18.9697L12.25 19.1893V19.5H13ZM15.5 22V22.75H15.8107L16.0303 22.5303L15.5 22ZM18.5 14L19.0303 13.4697C18.7374 13.1768 18.2626 13.1768 17.9697 13.4697L18.5 14ZM21 16.5L21.5303 17.0303C21.8232 16.7374 21.8232 16.2626 21.5303 15.9697L21 16.5ZM13.75 22V19.5H12.25V22H13.75ZM13 22.75H15.5V21.25H13V22.75ZM13.5303 20.0303L19.0303 14.5303L17.9697 13.4697L12.4697 18.9697L13.5303 20.0303ZM17.9697 14.5303L20.4697 17.0303L21.5303 15.9697L19.0303 13.4697L17.9697 14.5303ZM20.4697 15.9697L14.9697 21.4697L16.0303 22.5303L21.5303 17.0303L20.4697 15.9697Z" fill="#141B34"/>
</svg>
