<svg width="24" height="24" viewBox="0 0 24 24" fill="none" xmlns="http://www.w3.org/2000/svg">
<path d="M14 19L8.5 5H7.5L2 19" stroke="#141B34" stroke-width="1.5" stroke-linecap="square"/>
<path d="M4 14H12" stroke="#141B34" stroke-width="1.5"/>
<path d="M21.25 19V19.75H22.75V19H21.25ZM22 12.75H22.75H22ZM21.25 15.5714L21.25 19H22.75L22.75 15.5714H21.25ZM19.25 9.25H19V10.75H19.25V9.25ZM18.5 14.75H22V13.25H18.5V14.75ZM21.25 14V15.5714H22.75V14H21.25ZM21.25 15.5714C21.25 17.0508 20.0508 18.25 18.5714 18.25V19.75C20.8792 19.75 22.75 17.8792 22.75 15.5714H21.25ZM18.5 13.25C16.7051 13.25 15.25 14.7051 15.25 16.5H16.75C16.75 15.5335 17.5335 14.75 18.5 14.75V13.25ZM18.5714 18.25C17.5636 18.25 16.75 17.4714 16.75 16.5H15.25C15.25 18.3658 16.8027 19.75 18.5714 19.75V18.25ZM22.75 14V12.75H21.25V14H22.75ZM19 9.25C17.2051 9.25 15.75 10.7051 15.75 12.5H17.25C17.25 11.5335 18.0335 10.75 19 10.75V9.25ZM19.25 10.75C20.3546 10.75 21.25 11.6454 21.25 12.75H22.75C22.75 10.817 21.183 9.25 19.25 9.25V10.75Z" fill="#141B34"/>
</svg>
