<svg width="24" height="24" viewBox="0 0 24 24" fill="none" xmlns="http://www.w3.org/2000/svg">
<path d="M2 20H1.25C1.25 20.4142 1.58579 20.75 2 20.75V20ZM22 6H22.75C22.75 5.58579 22.4142 5.25 22 5.25V6ZM9 2.00001L9.6 1.55001L9.375 1.25001L9 1.25001L9 2.00001ZM2 2L2 1.25C1.80109 1.25 1.61032 1.32902 1.46967 1.46967C1.32902 1.61032 1.25 1.80109 1.25 2H2ZM7 6.75H22V5.25H7V6.75ZM8.4 2.45001L11.4 6.45L12.6 5.55L9.6 1.55001L8.4 2.45001ZM2.75 20V2H1.25V20H2.75ZM9 1.25001L2 1.25L2 2.75L9 2.75001L9 1.25001ZM21.25 6V10.5H22.75V6H21.25ZM2 20.75H10V19.25H2V20.75Z" fill="#141B34"/>
<path d="M17.5 20.2143V22M17.5 20.2143C16.3432 20.2143 15.3241 19.6461 14.7263 18.7833M17.5 20.2143C18.6568 20.2143 19.6759 19.6461 20.2737 18.7833M17.5 13.7857C18.6569 13.7857 19.6761 14.354 20.2738 15.2169M17.5 13.7857C16.3431 13.7857 15.3239 14.354 14.7262 15.2169M17.5 13.7857V12M22 14L20.2738 15.2169M13 20L14.7263 18.7833M13 14L14.7262 15.2169M22 20L20.2737 18.7833M20.2738 15.2169C20.6273 15.7271 20.8333 16.3403 20.8333 17C20.8333 17.6597 20.6272 18.273 20.2737 18.7833M14.7262 15.2169C14.3727 15.7271 14.1667 16.3403 14.1667 17C14.1667 17.6597 14.3728 18.273 14.7263 18.7833" stroke="#141B34" stroke-width="1.5"/>
</svg>
