<svg width="24" height="24" viewBox="0 0 24 24" fill="none" xmlns="http://www.w3.org/2000/svg">
<path d="M3 22H2.25C2.25 22.4142 2.58579 22.75 3 22.75V22ZM20 2H20.75C20.75 1.58579 20.4142 1.25 20 1.25V2ZM10 2V1.25H9.68934L9.46967 1.46967L10 2ZM3 9L2.46967 8.46967L2.25 8.68934V9H3ZM10 9V9.75H10.75V9H10ZM10 21.25H3V22.75H10V21.25ZM20 1.25H10V2.75H20V1.25ZM2.25 9V22H3.75V9H2.25ZM9.46967 1.46967L2.46967 8.46967L3.53033 9.53033L10.5303 2.53033L9.46967 1.46967ZM9.25 2V9H10.75V2H9.25ZM10 8.25H3V9.75H10V8.25ZM19.25 2V13H20.75V2H19.25Z" fill="#141B34"/>
<path d="M12.4876 17.5944V18.3444H13.0573L13.2101 17.7956L12.4876 17.5944ZM16.9415 15.1201L17.1288 14.3938L16.9415 15.1201ZM19.513 19.4056V18.6556H18.9433L18.7905 19.2044L19.513 19.4056ZM15.0591 21.8799L14.8718 22.6062L15.0591 21.8799ZM12.203 17.5944L11.548 17.9597L11.7625 18.3444H12.203V17.5944ZM19.8944 19.4056L20.5618 19.0633L20.3526 18.6556H19.8944V19.4056ZM13.2101 17.7956C13.6142 16.3444 15.1875 15.4424 16.7543 15.8463L17.1288 14.3938C14.8155 13.7974 12.4006 15.111 11.7651 17.3932L13.2101 17.7956ZM18.7905 19.2044C18.3864 20.6556 16.8131 21.5576 15.2463 21.1537L14.8718 22.6062C17.1851 23.2026 19.6 21.889 20.2355 19.6068L18.7905 19.2044ZM16.7543 15.8463C17.5498 16.0515 18.1704 16.5508 18.5322 17.18L19.8325 16.4321C19.2716 15.4569 18.3193 14.7008 17.1288 14.3938L16.7543 15.8463ZM15.2463 21.1537C14.4692 20.9533 13.8591 20.4722 13.494 19.8637L12.2078 20.6354C12.7734 21.578 13.709 22.3063 14.8718 22.6062L15.2463 21.1537ZM12.4876 16.8444H12.203V18.3444H12.4876V16.8444ZM12.858 17.229L11.655 15.0721L10.345 15.8027L11.548 17.9597L12.858 17.229ZM19.513 20.1556H19.8944V18.6556H19.513V20.1556ZM19.2271 19.748L20.3327 21.9032L21.6673 21.2186L20.5618 19.0633L19.2271 19.748Z" fill="#141B34"/>
</svg>
