<svg width="24" height="24" viewBox="0 0 24 24" fill="none" xmlns="http://www.w3.org/2000/svg">
<path d="M4 3.00002L4 2.25002C3.78718 2.25002 3.58438 2.34044 3.44214 2.49874C3.29989 2.65704 3.2316 2.86831 3.25427 3.07992L4 3.00002ZM21 3L21.7457 3.0799C21.7684 2.86829 21.7001 2.65701 21.5579 2.49871C21.4156 2.34041 21.2128 2.25 21 2.25L21 3ZM19.5 17L19.8721 17.6512L20.2049 17.461L20.2457 17.0799L19.5 17ZM5.5 17L4.75427 17.0799L4.7951 17.461L5.12792 17.6512L5.5 17ZM12.5005 21L12.1284 21.6512C12.359 21.7829 12.6421 21.7829 12.8726 21.6512L12.5005 21ZM4 3.75002L21 3.75L21 2.25L4 2.25002L4 3.75002ZM20.2543 2.9201L18.7543 16.9201L20.2457 17.0799L21.7457 3.0799L20.2543 2.9201ZM6.24573 16.9201L4.74573 2.92012L3.25427 3.07992L4.75427 17.0799L6.24573 16.9201ZM5.12792 17.6512L12.1284 21.6512L12.8726 20.3488L5.87208 16.3488L5.12792 17.6512ZM12.8726 21.6512L19.8721 17.6512L19.1279 16.3488L12.1284 20.3488L12.8726 21.6512Z" fill="#141B34"/>
<path d="M16 8H9.5L10 12.0141H15L14.5 15L12.5 16L10.5 15L10.3872 14.4444" stroke="#141B34" stroke-width="1.5" stroke-linejoin="round"/>
</svg>
