<svg width="24" height="24" viewBox="0 0 24 24" fill="none" xmlns="http://www.w3.org/2000/svg">
<path d="M21 21V3H3V21L21 21Z" stroke="#141B34" stroke-width="1.5" stroke-linejoin="round"/>
<path d="M12.4824 12V11.25H10.9824V12H12.4824ZM10.9824 12V16H12.4824V12H10.9824ZM10.9824 16C10.9824 16.6904 10.4228 17.25 9.73244 17.25V18.75C11.2512 18.75 12.4824 17.5188 12.4824 16H10.9824ZM9.73244 17.25C9.2707 17.25 8.86647 17 8.6492 16.6245L7.3508 17.3755C7.82515 18.1956 8.7136 18.75 9.73244 18.75V17.25Z" fill="#141B34"/>
<path d="M17.7324 13C17.3866 12.4022 16.7403 12 16 12H15.5C14.6716 12 14 12.6716 14 13.5C14 14.3284 14.6716 15 15.5 15H16.5C17.3284 15 18 15.6716 18 16.5C18 17.3284 17.3284 18 16.5 18H16C15.2597 18 14.6134 17.5978 14.2676 17" stroke="#141B34" stroke-width="1.5" stroke-linejoin="round"/>
</svg>
