<svg width="24" height="24" viewBox="0 0 24 24" fill="none" xmlns="http://www.w3.org/2000/svg">
<path d="M10 2H10.75C10.75 1.58579 10.4142 1.25 10 1.25V2ZM10 10L9.6279 10.6512L10.75 11.2924V10H10ZM3 10H2.25V11.2924L3.3721 10.6512L3 10ZM3 2V1.25C2.58579 1.25 2.25 1.58579 2.25 2H3ZM6.5 8L6.8721 7.34882L6.5 7.13619L6.1279 7.34882L6.5 8ZM9.25 2V10H10.75V2H9.25ZM3.75 10V2H2.25V10H3.75ZM10.3721 9.34882L6.8721 7.34882L6.1279 8.65118L9.6279 10.6512L10.3721 9.34882ZM6.1279 7.34882L2.6279 9.34882L3.3721 10.6512L6.8721 8.65118L6.1279 7.34882ZM10 1.25H3V2.75H10V1.25Z" fill="#141B34"/>
<path d="M21 2H21.75C21.75 1.58579 21.4142 1.25 21 1.25V2ZM4 22H3.25C3.25 22.1989 3.32902 22.3897 3.46967 22.5303C3.61032 22.671 3.80109 22.75 4 22.75V22ZM14 22V22.75H14.3107L14.5303 22.5303L14 22ZM21 15L21.5303 15.5303L21.75 15.3107V15H21ZM14 15V14.25H13.25V15H14ZM4.75 22L4.75 13H3.25L3.25 22H4.75ZM4 22.75H14V21.25H4V22.75ZM21.75 15V2H20.25V15H21.75ZM14.5303 22.5303L21.5303 15.5303L20.4697 14.4697L13.4697 21.4697L14.5303 22.5303ZM14.75 22V15H13.25V22H14.75ZM14 15.75H21V14.25H14V15.75ZM13 2.75H21V1.25H13V2.75Z" fill="#141B34"/>
</svg>
