<svg width="24" height="24" viewBox="0 0 24 24" fill="none" xmlns="http://www.w3.org/2000/svg">
<path d="M8.97487 7.97487C9.60825 7.3415 10 6.4665 10 5.5C10 3.567 8.433 2 6.5 2C5.5335 2 4.6585 2.39175 4.02513 3.02513M8.97487 7.97487C8.3415 8.60825 7.4665 9 6.5 9C4.567 9 3 7.433 3 5.5C3 4.5335 3.39175 3.6585 4.02513 3.02513M8.97487 7.97487L4.02513 3.02513" stroke="#141B34" stroke-width="1.5"/>
<path d="M21 2H21.75C21.75 1.58579 21.4142 1.25 21 1.25V2ZM4 22H3.25C3.25 22.1989 3.32902 22.3897 3.46967 22.5303C3.61032 22.671 3.80109 22.75 4 22.75V22ZM14 22V22.75H14.3107L14.5303 22.5303L14 22ZM21 15L21.5303 15.5303L21.75 15.3107V15H21ZM14 15V14.25H13.25V15H14ZM4.75 22L4.75 11H3.25L3.25 22H4.75ZM4 22.75H14V21.25H4V22.75ZM21.75 15V2H20.25V15H21.75ZM14.5303 22.5303L21.5303 15.5303L20.4697 14.4697L13.4697 21.4697L14.5303 22.5303ZM14.75 22V15H13.25V22H14.75ZM14 15.75H21V14.25H14V15.75ZM12 2.75H21V1.25H12V2.75Z" fill="#141B34"/>
</svg>
