<svg width="24" height="24" viewBox="0 0 24 24" fill="none" xmlns="http://www.w3.org/2000/svg">
<path d="M20.5 2H21.25C21.25 1.58579 20.9142 1.25 20.5 1.25V2ZM10.5 2V1.25H10.1893L9.96967 1.46967L10.5 2ZM3.5 9L2.96967 8.46967L2.75 8.68934V9H3.5ZM10.5 9V9.75H11.25V9H10.5ZM19.75 2V13H21.25V2H19.75ZM20.5 1.25L10.5 1.25V2.75L20.5 2.75V1.25ZM2.75 9V13H4.25V9H2.75ZM9.96967 1.46967L2.96967 8.46967L4.03033 9.53033L11.0303 2.53033L9.96967 1.46967ZM9.75 2L9.75 9H11.25L11.25 2L9.75 2ZM10.5 8.25L3.5 8.25L3.5 9.75L10.5 9.75V8.25Z" fill="#141B34"/>
<path d="M3.5 15.5V14.75H2.75V15.5H3.5ZM10 21.5H9.25V22.25H10V21.5ZM10 15.5V14.75H9.25V15.5H10ZM17 15.5V14.75C16.5858 14.75 16.25 15.0858 16.25 15.5H17ZM3.5 16.25H5.5V14.75H3.5V16.25ZM4.25 22V18.5H2.75V22H4.25ZM4.25 18.5V15.5H2.75V18.5H4.25ZM5.5 17.75H3.5V19.25H5.5V17.75ZM6.25 17C6.25 17.4142 5.91421 17.75 5.5 17.75V19.25C6.74264 19.25 7.75 18.2426 7.75 17H6.25ZM5.5 16.25C5.91421 16.25 6.25 16.5858 6.25 17H7.75C7.75 15.7574 6.74264 14.75 5.5 14.75V16.25ZM10.75 21.5V15.5H9.25V21.5H10.75ZM17 16.25H20.5V14.75H17V16.25ZM17.75 22V18.5H16.25V22H17.75ZM17.75 18.5V15.5H16.25V18.5H17.75ZM19.5 17.75H17V19.25H19.5V17.75ZM10 22.25H11V20.75H10V22.25ZM10 16.25H11V14.75H10V16.25ZM11 16.25C12.2426 16.25 13.25 17.2574 13.25 18.5H14.75C14.75 16.4289 13.0711 14.75 11 14.75V16.25ZM11 22.25C13.0711 22.25 14.75 20.5711 14.75 18.5H13.25C13.25 19.7426 12.2426 20.75 11 20.75V22.25Z" fill="#141B34"/>
</svg>
