<svg width="24" height="24" viewBox="0 0 24 24" fill="none" xmlns="http://www.w3.org/2000/svg">
<path d="M3 3V21L21 21V3H3Z" stroke="#141B34" stroke-width="1.5" stroke-linejoin="round"/>
<path d="M16.4992 15H15.7492V15.75H16.4992V15ZM7 8.25C5.75736 8.25 4.75 9.25736 4.75 10.5H6.25C6.25 10.0858 6.58579 9.75 7 9.75V8.25ZM7.75 13.5C7.75 13.9142 7.41421 14.25 7 14.25V15.75C8.24264 15.75 9.25 14.7426 9.25 13.5H7.75ZM7 12.75C7.41421 12.75 7.75 13.0858 7.75 13.5H9.25C9.25 12.2574 8.24264 11.25 7 11.25V12.75ZM7 11.25C6.58579 11.25 6.25 10.9142 6.25 10.5H4.75C4.75 11.7426 5.75736 12.75 7 12.75V11.25ZM7 9.75C7.32538 9.75 7.6042 9.95763 7.70752 10.2499L9.12178 9.75007C8.81326 8.87718 7.98084 8.25 7 8.25V9.75ZM7 14.25C6.67462 14.25 6.3958 14.0424 6.29248 13.7501L4.87822 14.2499C5.18674 15.1228 6.01916 15.75 7 15.75V14.25ZM12.5 9.75C12.9142 9.75 13.25 10.0858 13.25 10.5H14.75C14.75 9.25736 13.7426 8.25 12.5 8.25V9.75ZM12.5 8.25C11.2574 8.25 10.25 9.25736 10.25 10.5H11.75C11.75 10.0858 12.0858 9.75 12.5 9.75V8.25ZM12.5 14.25C12.0858 14.25 11.75 13.9142 11.75 13.5H10.25C10.25 14.7426 11.2574 15.75 12.5 15.75V14.25ZM13.25 13.5C13.25 13.9142 12.9142 14.25 12.5 14.25V15.75C13.7426 15.75 14.75 14.7426 14.75 13.5H13.25ZM13.25 10.5V13.5H14.75V10.5H13.25ZM10.25 10.5V13.5H11.75V10.5H10.25ZM11.9697 15.5303L13.4697 17.0303L14.5303 15.9697L13.0303 14.4697L11.9697 15.5303ZM15.7492 8.5V15H17.2492V8.5H15.7492ZM18.5 14.25H16.4992V15.75H18.5V14.25Z" fill="#141B34"/>
</svg>
