<svg width="24" height="24" viewBox="0 0 24 24" fill="none" xmlns="http://www.w3.org/2000/svg">
<path d="M8.40533 15.5947C8.69822 15.8876 8.69822 16.3624 8.40533 16.6553L7.53903 17.5216L6.32653 21.5633L6.31747 21.5935L6.31747 21.5935C6.26435 21.7709 6.2062 21.9649 6.13541 22.1243C6.05194 22.3122 5.91556 22.5379 5.6581 22.6983C5.40064 22.8587 5.1379 22.8816 4.93246 22.8736C4.75819 22.8669 4.55835 22.8335 4.37576 22.803L4.34464 22.7978L2.89538 22.5563L2.86915 22.5519C2.71965 22.5271 2.55218 22.4992 2.40943 22.4584C2.23981 22.41 2.03507 22.3256 1.85471 22.1453C1.67435 21.9649 1.58999 21.7602 1.54155 21.5906C1.50077 21.4478 1.47293 21.2804 1.44808 21.1309L1.44371 21.1046L1.20217 19.6554L1.19697 19.6242L1.19697 19.6242C1.16646 19.4416 1.13308 19.2418 1.12636 19.0675C1.11843 18.8621 1.14131 18.5994 1.30169 18.3419C1.46206 18.0844 1.6878 17.9481 1.87569 17.8646C2.03506 17.7938 2.22915 17.7356 2.40648 17.6825L2.40648 17.6825L2.43671 17.6735L6.47837 16.461L7.34467 15.5947C7.63756 15.3018 8.11243 15.3018 8.40533 15.5947Z" fill="#141B34"/>
<path fill-rule="evenodd" clip-rule="evenodd" d="M22.5821 1.41789C22.9726 1.80842 22.9726 2.44158 22.5821 2.83211L20.0821 5.33211C19.6916 5.72263 19.0584 5.72263 18.6679 5.33211C18.2774 4.94158 18.2774 4.30842 18.6679 3.91789L21.1679 1.41789C21.5584 1.02737 22.1916 1.02737 22.5821 1.41789Z" fill="#141B34"/>
<path d="M14.7299 4.07698C14.5192 4.22921 14.4138 4.30532 14.4028 4.44342C14.3917 4.58153 14.494 4.68378 14.6985 4.88829L19.1121 9.30197C19.3167 9.50651 19.4189 9.60878 19.5571 9.59771C19.6952 9.58664 19.7713 9.48125 19.9235 9.27048C20.9539 7.84367 20.8699 5.79813 19.5361 4.46422C18.2022 3.13016 16.1566 3.04628 14.7299 4.07698Z" fill="#141B34"/>
<path d="M17.6953 11.0261C17.9796 10.8389 18.1217 10.7453 18.1362 10.6035C18.1506 10.4618 18.0303 10.3414 17.7896 10.1007L13.8999 6.21109C13.6592 5.9704 13.5389 5.85005 13.3971 5.8645C13.2554 5.87894 13.1618 6.02109 12.9746 6.30538L7.31956 14.8935C6.90893 15.5171 7.2176 16.1649 7.53131 16.4758C7.84198 16.7837 8.48927 17.0892 9.10792 16.6818L17.6953 11.0261Z" fill="#141B34"/>
</svg>
