<svg width="24" height="24" viewBox="0 0 24 24" fill="none" xmlns="http://www.w3.org/2000/svg">
<path d="M14.1212 2.42494L13.4582 1.51013C13.3659 1.38275 13.3198 1.31907 13.2494 1.28619C13.1791 1.25332 13.1045 1.2585 12.9553 1.26887C11.2556 1.38696 9.70681 2.05341 8.48448 3.09261C8.41993 3.14749 8.4595 3.24738 8.54408 3.25236C9.52471 3.31009 10.0466 3.85491 10.6182 4.45921C11.5017 5.39328 12.1964 5.31605 12.5221 5.14389C12.6552 5.07354 12.6797 5.02376 12.6881 5.0066L12.6887 5.00536C12.7153 4.95167 12.7264 4.89428 12.766 4.67698C12.7991 4.49538 12.8566 4.18363 13.0558 3.88263C13.2665 3.56432 13.581 3.33226 13.9957 3.16784C14.1686 3.0993 14.2218 3.00334 14.241 2.91286C14.2649 2.80011 14.2456 2.62069 14.1212 2.42494Z" fill="#141B34"/>
<path d="M15.5408 1.91467C15.4432 1.70215 15.3944 1.59589 15.4372 1.54715C15.4799 1.4984 15.5824 1.53003 15.7874 1.59328C18.951 2.56968 21.25 5.51837 21.25 9.00431C21.25 9.14375 21.1353 9.25445 20.9959 9.25445H20C19.0266 9.25445 18.4232 9.67053 18.0089 9.95621L17.9751 9.97948C17.5739 10.2556 17.433 10.3268 17.1471 10.2696C15.882 10.0164 14.8684 9.98014 14.1437 10.3152C13.7491 10.4977 13.4538 10.7836 13.2697 11.1541C13.0945 11.5068 13.0416 11.8925 13.0416 12.2572C13.0416 12.895 13.0362 13.0815 12.9989 13.2312C12.9654 13.3658 12.9024 13.4872 12.6234 13.9673C12.4302 14.2996 12.2296 14.7434 12.2517 15.2404C12.2757 15.7832 12.555 16.2425 13.0235 16.5966C13.0846 16.6478 13.0459 16.7459 12.9664 16.7405C8.93511 16.4663 5.75 13.1075 5.75 9.00431C5.75 7.62718 6.10879 6.3339 6.73795 5.21293C6.85919 4.99693 6.91981 4.88892 7.03683 4.82041C7.15385 4.7519 7.28854 4.7519 7.55792 4.7519H8.47603C8.79051 4.77411 8.95032 4.87929 9.52878 5.49085C10.7445 6.77611 12.149 7.03852 13.2228 6.47091C13.6112 6.26562 13.8722 5.99573 14.0327 5.67182C14.1602 5.41448 14.2071 5.14444 14.2335 4.99248L14.2417 4.94609C14.2733 4.77261 14.2918 4.73343 14.3065 4.71123C14.3113 4.70379 14.3517 4.64105 14.5482 4.56314C15.1782 4.31337 15.5824 3.81709 15.7082 3.22475C15.8042 2.77274 15.7278 2.32187 15.5408 1.91467Z" fill="#141B34"/>
<path d="M15.0706 16.3543C15.1855 16.4505 15.2429 16.4987 15.3155 16.5143C15.3881 16.5299 15.4566 16.5107 15.5937 16.4724C18.0623 15.7809 20.033 13.8971 20.8464 11.4808C20.9531 11.1637 21.0065 11.0052 20.9167 10.8802C20.8269 10.7553 20.6504 10.7553 20.2974 10.7553H20C19.5002 10.7553 19.2266 10.9397 18.8253 11.216L18.811 11.2258C18.396 11.5115 17.79 11.9288 16.8529 11.7413C15.618 11.4942 15.0275 11.5599 14.7729 11.6776C14.678 11.7215 14.6399 11.7678 14.613 11.822C14.5773 11.894 14.5416 12.0255 14.5416 12.2572L14.5417 12.3444C14.5419 12.8556 14.5421 13.2419 14.4544 13.5942C14.3631 13.9608 14.1816 14.2725 13.9582 14.6563L13.92 14.7218C13.775 14.9714 13.7473 15.1096 13.7502 15.1739C13.7512 15.1956 13.7555 15.2141 13.7705 15.2399C13.7879 15.2696 13.8313 15.3277 13.9359 15.4053C13.9479 15.4141 13.9595 15.4233 13.9709 15.4329L15.0706 16.3543Z" fill="#141B34"/>
<path fill-rule="evenodd" clip-rule="evenodd" d="M7.21699 1.30292C7.60198 1.6989 7.59306 2.33201 7.19708 2.71699C5.53044 4.33735 4.5 6.59051 4.5 9.08251C4.5 13.9997 8.52161 18 13.5 18C15.9559 18 18.1791 17.0267 19.8029 15.448C20.1989 15.063 20.832 15.072 21.217 15.4679C21.602 15.8639 21.5931 16.497 21.1971 16.882C19.2134 18.8106 16.495 20 13.5 20V21H14.5C15.0523 21 15.5 21.4477 15.5 22C15.5 22.5523 15.0523 23 14.5 23H10.5C9.94772 23 9.5 22.5523 9.5 22C9.5 21.4477 9.94772 21 10.5 21H11.5V19.8199C6.38488 18.8869 2.5 14.4404 2.5 9.08251C2.5 6.02589 3.76683 3.26255 5.80292 1.28301C6.1989 0.898021 6.83201 0.906936 7.21699 1.30292Z" fill="#141B34"/>
</svg>
