<svg width="24" height="24" viewBox="0 0 24 24" fill="none" xmlns="http://www.w3.org/2000/svg">
<path fill-rule="evenodd" clip-rule="evenodd" d="M17.8749 11.375C18.4272 11.375 18.8749 11.8227 18.8749 12.375V12.7736C19.6153 12.9438 20.2846 13.2991 20.8261 13.789L21.3341 13.4624C21.7987 13.1637 22.4174 13.2982 22.716 13.7628C23.0147 14.2274 22.8802 14.8461 22.4157 15.1447L21.9514 15.4432C22.1174 15.89 22.2082 16.3723 22.2082 16.875C22.2082 17.3778 22.1173 17.8602 21.9514 18.307L22.4152 18.6053C22.8798 18.9039 23.0143 19.5226 22.7156 19.9872C22.417 20.4518 21.7982 20.5863 21.3337 20.2876L20.8259 19.9612C20.2845 20.451 19.6152 20.8062 18.8749 20.9764V21.375C18.8749 21.9273 18.4272 22.375 17.8749 22.375C17.3226 22.375 16.8749 21.9273 16.8749 21.375V20.9764C16.1346 20.8062 15.4653 20.451 14.9238 19.9612L14.4161 20.2876C13.9515 20.5863 13.3328 20.4518 13.0341 19.9872C12.7355 19.5226 12.87 18.9039 13.3345 18.6053L13.7984 18.307C13.6324 17.8602 13.5415 17.3778 13.5415 16.875C13.5415 16.3723 13.6324 15.89 13.7983 15.4432L13.3341 15.1447C12.8695 14.8461 12.735 14.2274 13.0337 13.7628C13.3324 13.2982 13.9511 13.1637 14.4157 13.4624L14.9237 13.789C15.4651 13.2991 16.1345 12.9438 16.8749 12.7736V12.375C16.8749 11.8227 17.3226 11.375 17.8749 11.375ZM17.8749 14.6607C17.05 14.6607 16.3363 15.0648 15.9231 15.6613C15.6805 16.0116 15.5415 16.4276 15.5415 16.875C15.5415 17.3225 15.6805 17.7385 15.9232 18.0888C16.3364 18.6852 17.0501 19.0893 17.8749 19.0893C18.6997 19.0893 19.4134 18.6852 19.8266 18.0888C20.0693 17.7385 20.2082 17.3225 20.2082 16.875C20.2082 16.4276 20.0693 16.0116 19.8267 15.6613C19.4135 15.0648 18.6997 14.6607 17.8749 14.6607Z" fill="#141B34"/>
<path d="M6.95758 1.62504C7.98698 1.62458 8.69867 1.62427 9.33753 1.86384C10.733 2.38713 11.3454 3.62629 11.8174 4.58144C11.9588 4.86416 12.2158 5.37777 12.2877 5.49071C12.3097 5.52763 12.3793 5.60325 12.4813 5.61039C12.6145 5.62415 12.7949 5.62508 13.111 5.62508L16.6654 5.62508C17.6844 5.62507 18.5061 5.62506 19.1655 5.69213C19.846 5.76136 20.4362 5.90821 20.9583 6.25707C21.3678 6.53066 21.7194 6.88223 21.993 7.29169C22.3418 7.8138 22.4887 8.404 22.5579 9.08456C22.6074 9.57126 22.6203 10.3284 22.6237 11.1015C22.6252 11.4435 22.626 11.6145 22.5403 11.7024C22.4546 11.7903 22.2429 11.7948 21.8195 11.8038C21.6115 11.8083 21.4029 11.8387 21.1985 11.8962C21.0394 11.9409 20.9598 11.9633 20.9023 11.9572C20.8448 11.951 20.7794 11.9164 20.6486 11.8471C20.6074 11.8252 20.5658 11.8038 20.524 11.7829C20.4022 11.7221 20.3413 11.6916 20.3046 11.6525C20.2679 11.6134 20.2383 11.5433 20.1792 11.4033C19.8 10.5053 18.9111 9.875 17.8751 9.875C16.839 9.875 15.9501 10.5053 15.5709 11.4033C15.5118 11.5433 15.4822 11.6134 15.4455 11.6525C15.4088 11.6916 15.3479 11.7221 15.2261 11.7829C15.1843 11.8038 15.1428 11.8252 15.1015 11.8471C14.9707 11.9164 14.9053 11.951 14.8478 11.9572C14.7904 11.9633 14.7107 11.9409 14.5515 11.8961C13.5215 11.6063 12.3809 12.0047 11.7721 12.9516C11.1826 13.8687 11.2682 15.026 11.9021 15.84C12.0026 15.9691 12.0528 16.0336 12.0689 16.0884C12.085 16.1433 12.0783 16.2164 12.065 16.3627C12.0496 16.5316 12.0417 16.7025 12.0417 16.875C12.0417 17.0477 12.0496 17.2187 12.065 17.3877C12.0785 17.5355 12.0853 17.6094 12.0683 17.6654C12.0513 17.7214 12.0009 17.7838 11.9001 17.9085C11.4496 18.4657 11.1986 19.2025 11.4014 19.9885C11.557 20.5918 11.6348 20.8934 11.5444 21.0098C11.4539 21.1261 11.208 21.1253 10.716 21.1237C8.95622 21.118 7.42666 21.0883 6.28864 20.9353C4.84391 20.7411 3.70389 20.3358 2.80908 19.4409C1.91427 18.5461 1.50893 17.4061 1.31469 15.9614C1.12492 14.5499 1.12493 12.7408 1.12494 10.4325V7.28457C1.12493 6.40584 1.12492 5.69712 1.17538 5.12478C1.22736 4.53504 1.33732 4.01896 1.60034 3.54766C1.93922 2.94041 2.44027 2.43935 3.04752 2.10048C3.51882 1.83746 4.0349 1.7275 4.62464 1.67552C5.19699 1.62506 6.07884 1.62503 6.95758 1.62504Z" fill="#141B34"/>
</svg>
