<svg width="24" height="24" viewBox="0 0 24 24" fill="none" xmlns="http://www.w3.org/2000/svg">
<path fill-rule="evenodd" clip-rule="evenodd" d="M5.16348 12.9998L2.94396 19.3306C2.76124 19.8518 2.19061 20.1262 1.66943 19.9434C1.14824 19.7607 0.873867 19.1901 1.05659 18.6689L3.97554 10.343C4.62537 8.48942 5.14504 7.00709 5.64428 5.99452C5.89751 5.48091 6.18262 5.00828 6.53308 4.65487C6.90398 4.28084 7.39226 3.99976 8.00027 3.99976C8.60828 3.99976 9.09656 4.28084 9.46746 4.65487C9.81792 5.00828 10.103 5.48091 10.3563 5.99452C10.8555 7.00709 11.3752 8.4894 12.025 10.343L14.944 18.6689C15.1267 19.1901 14.8523 19.7607 14.3311 19.9434C13.8099 20.1262 13.2393 19.8518 13.0566 19.3306L10.8371 12.9998H5.16348ZM5.86466 10.9998C6.53157 9.0977 7.00524 7.75687 7.4381 6.87895C7.6572 6.43457 7.82869 6.18871 7.95322 6.06313C7.9721 6.0441 7.98772 6.02988 8.00027 6.01936C8.01283 6.02988 8.02845 6.0441 8.04733 6.06313C8.17186 6.18871 8.34335 6.43457 8.56245 6.87895C8.9953 7.75687 9.46898 9.0977 10.1359 10.9998H5.86466ZM8.04062 5.9917C8.04057 5.99202 8.03812 5.99344 8.03344 5.99501C8.03834 5.99216 8.04068 5.99137 8.04062 5.9917ZM7.96711 5.99501C7.96243 5.99344 7.95998 5.99202 7.95992 5.9917C7.95987 5.99137 7.96221 5.99216 7.96711 5.99501Z" fill="#141B34"/>
<path fill-rule="evenodd" clip-rule="evenodd" d="M18.9243 8.99978C18.9492 8.99979 18.9744 8.9998 19 8.9998C19.0256 8.9998 19.0508 8.99979 19.0757 8.99978C19.4657 8.9996 19.7734 8.99947 20.0475 9.04289C21.5451 9.28009 22.7197 10.4547 22.9569 11.9523C23.0003 12.2264 23.0002 12.5341 23 12.9241C23 12.949 23 12.9742 23 12.9998V13.9988L23 15.5712L23 15.5733V18.4998C23 19.0521 22.5523 19.4998 22 19.4998C21.6832 19.4998 21.4008 19.3525 21.2176 19.1226C20.4793 19.6736 19.5635 19.9998 18.5714 19.9998C16.6759 19.9998 15 18.5147 15 16.4998C15 14.5668 16.567 12.9998 18.5 12.9998H21C21 12.4971 20.9969 12.3622 20.9815 12.2651C20.8799 11.6233 20.3765 11.1199 19.7347 11.0183C19.6376 11.0029 19.5027 10.9998 19 10.9998C18.4973 10.9998 18.3624 11.0029 18.2653 11.0183C17.7519 11.0996 17.3265 11.4382 17.1251 11.8997C16.9042 12.4059 16.3148 12.6372 15.8086 12.4163C15.3024 12.1955 15.0711 11.6061 15.292 11.0999C15.7615 10.0239 16.753 9.23286 17.9525 9.04289C18.2266 8.99947 18.5343 8.9996 18.9243 8.99978ZM21 14.9998H18.5C17.6716 14.9998 17 15.6714 17 16.4998C17 17.3221 17.6904 17.9998 18.5714 17.9998C19.9122 17.9998 20.9992 16.9133 21 15.5728L21 15.5712L21 14.9998Z" fill="#141B34"/>
</svg>
