<svg width="24" height="24" viewBox="0 0 24 24" fill="none" xmlns="http://www.w3.org/2000/svg">
<path fill-rule="evenodd" clip-rule="evenodd" d="M6.26859 6.19772C7.31196 6.19772 7.52499 6.21943 7.69856 6.30119C7.88369 6.3884 8.11745 6.6117 8.37997 7.04927C8.40395 7.08924 8.42758 7.12998 8.45089 7.17142H7.99384C7.45609 7.17142 7.02015 7.60735 7.02015 8.14511C7.02015 8.68287 7.45609 9.11881 7.99384 9.11881H15.8909C16.5988 9.11881 17.0306 9.12093 17.3425 9.16338C17.6182 9.20091 17.6588 9.25428 17.6612 9.25751C17.6669 9.26251 17.7206 9.30967 17.758 9.59176C17.8004 9.91048 17.8024 10.3505 17.8024 11.0662V11.2564L11.7652 11.2541C11.4364 11.2493 11.0325 11.2433 10.6577 11.2856C10.1482 11.3432 9.57098 11.4968 9.07733 11.9253C8.76148 12.1994 8.55013 12.5345 8.36843 12.9156C8.19533 13.2787 8.02567 13.7363 7.8225 14.2844L5.44788 19.9138C5.30306 20.2487 5.02467 20.7772 4.06247 20.7993C3.59688 20.7567 3.21437 20.366 3.19769 19.8629L3.19713 9.11876C3.19713 8.17358 3.19915 7.56145 3.25908 7.11017C3.31545 6.68566 3.40678 6.55231 3.47955 6.47864C3.5287 6.42888 3.67645 6.32408 4.17907 6.26157C4.67876 6.19944 5.33827 6.19772 6.26859 6.19772ZM4.08159 22.7498C4.09569 22.7501 4.10971 22.7501 4.12367 22.7497L13.5099 22.7344H13.5099C14.728 22.7382 15.7007 22.7412 16.4898 22.6609C17.305 22.578 17.9917 22.4012 18.6189 22.0032C18.6998 21.9519 18.7792 21.8981 18.8569 21.842C19.4589 21.4068 19.8776 20.8345 20.2566 20.1081C20.6236 19.4049 20.9812 18.5003 21.429 17.3675L21.9884 15.9525C22.268 15.2454 22.5024 14.6525 22.6308 14.1654C22.7635 13.6619 22.8224 13.1364 22.6055 12.6239C22.4944 12.3614 22.3346 12.1222 22.1343 11.9193C21.767 11.5474 21.3394 11.3886 20.8338 11.3189C20.5344 11.2775 20.1748 11.2638 19.7498 11.2592V11.0067C19.7498 10.3693 19.7499 9.79781 19.6885 9.33541C19.6216 8.83189 19.4665 8.31406 19.0463 7.88865C18.6244 7.46157 18.1081 7.30226 17.6051 7.23379C17.146 7.17129 16.5793 7.17135 15.9512 7.17141L10.6139 7.17142C10.4537 6.80121 10.2675 6.41023 10.0499 6.04741C9.71441 5.48826 9.23235 4.87108 8.52845 4.53949C7.90933 4.24783 7.22051 4.24891 6.42682 4.25016L6.26859 4.25033L6.21436 4.25032C5.35271 4.25029 4.57249 4.25026 3.93876 4.32907C3.29471 4.40916 2.60829 4.58954 2.09408 5.11016C1.60347 5.60687 1.41313 6.21771 1.32866 6.85381C1.24967 7.44859 1.24971 8.19162 1.24976 9.05531L1.24976 9.11886L1.25032 19.888L1.25059 19.8995C1.28681 21.4215 2.48042 22.6698 3.99976 22.7468L3.99976 22.7499L4.08159 22.7498Z" fill="#141B34"/>
<path fill-rule="evenodd" clip-rule="evenodd" d="M20.7242 6.25015C21.1121 6.26019 21.4709 6.04484 21.6445 5.69771L22.6445 3.69771C22.8915 3.20373 22.6913 2.60306 22.1973 2.35606C21.7033 2.10907 21.1026 2.30929 20.8556 2.80326L20.6342 3.24617C19.5362 2.02182 17.9418 1.25049 16.1661 1.25049C14.2024 1.25049 12.4591 2.19483 11.3661 3.64991C11.0345 4.0915 11.1235 4.71836 11.5651 5.05005C12.0067 5.38174 12.6336 5.29265 12.9653 4.85106C13.6967 3.87725 14.8581 3.25049 16.1661 3.25049C17.8048 3.25049 19.2155 4.23604 19.8337 5.65086C19.9891 6.0065 20.3362 6.24011 20.7242 6.25015Z" fill="#141B34"/>
</svg>
