<svg width="24" height="24" viewBox="0 0 24 24" fill="none" xmlns="http://www.w3.org/2000/svg">
<path d="M6.81148 22.5227C7.79373 22.6254 8.35655 22.6255 9.89765 22.6255C10.4374 22.6255 10.8749 22.1879 10.8749 21.6482C10.8749 21.1084 10.4374 20.6709 9.89765 20.6709C8.28903 20.6709 7.88278 20.6696 7.01334 20.5786C6.15941 20.4893 5.67549 20.3226 5.31766 20.0695C5.07621 19.8988 4.86383 19.6977 4.68604 19.4733C4.43047 19.1508 4.26103 18.718 4.16879 17.9312C4.07387 17.1215 4.07229 16.0642 4.07229 14.5407L4.0722 11.6405C4.07219 11.3735 4.07236 10.7349 4.35298 10.2628C4.52591 9.9718 4.74733 9.72869 4.97478 9.60487C5.34129 9.40535 5.76148 9.29199 6.20815 9.29199L7.24852 9.32847C7.62861 9.33637 8.07215 9.32436 8.5003 9.20964C9.33427 8.98618 9.98568 8.33477 10.2091 7.5008C10.3239 7.07265 10.3359 6.62911 10.328 6.24902L10.2915 5.20865C10.2915 4.74096 10.4159 4.33383 10.6332 3.95542C10.7599 3.73483 10.9807 3.53294 11.2854 3.35563C11.7476 3.08672 12.301 3.08423 12.6391 3.0827C12.9773 3.08118 13.334 3.08001 13.6321 3.08001C15.4662 3.08001 16.1333 3.09396 16.6367 3.27131C17.5093 3.57877 18.175 4.22041 18.4851 5.00578C18.5628 5.20242 18.6176 5.46084 18.647 5.90879C18.6771 6.36546 18.6776 6.94841 18.6776 7.78867V11.9018C18.6776 12.4395 19.1135 12.8754 19.6512 12.8754C20.189 12.8754 20.6249 12.4395 20.6249 11.9018V7.75548C20.6249 6.95633 20.6249 6.30877 20.5902 5.78019C20.5544 5.23556 20.4788 4.74989 20.2955 4.28573C19.7667 2.94642 18.6583 1.91215 17.2817 1.42715C16.4229 1.12456 14.9509 1.12495 13.3959 1.12549C10.5562 1.12513 8.86959 1.12492 7.48715 1.612C5.26715 2.39417 3.49342 4.05692 2.65002 6.19298C2.36891 6.90494 2.24438 7.66965 2.18413 8.58649C2.12494 9.4872 2.12494 10.5998 2.12494 12.0181V12.0181V14.6016C2.12492 16.0497 2.1249 17.2224 2.23479 18.1597C2.3489 19.1331 2.59215 19.971 3.16198 20.69C3.45716 21.0625 3.80571 21.3913 4.19608 21.6673C4.94084 22.194 5.80206 22.4171 6.81148 22.5227Z" fill="#141B34"/>
<path fill-rule="evenodd" clip-rule="evenodd" d="M12.4376 16.0456C13.4738 14.3664 15.552 13.5049 17.5588 14.0276C18.8078 14.3528 19.8064 15.1542 20.3941 16.1864C20.6674 16.6664 20.4998 17.277 20.0199 17.5502C19.5399 17.8235 18.9293 17.6559 18.6561 17.176C18.3303 16.6038 17.772 16.1498 17.0548 15.963C15.6413 15.5949 14.2251 16.4175 13.8618 17.7353C13.7793 18.0343 13.5629 18.2781 13.2758 18.3953C12.9887 18.5126 12.6634 18.49 12.3953 18.3342L11.3725 17.7398C10.895 17.4623 10.7329 16.8502 11.0104 16.3727C11.2878 15.8952 11.8999 15.7331 12.3774 16.0106L12.4376 16.0456ZM19.4744 18.355C19.1873 18.4723 18.9708 18.7161 18.8884 19.0151C18.5251 20.3329 17.1088 21.1555 15.6953 20.7874C14.9947 20.6049 14.4458 20.1674 14.1171 19.614C13.8351 19.1392 13.2215 18.9829 12.7467 19.265C12.2718 19.547 12.1155 20.1606 12.3976 20.6354C12.9902 21.6331 13.9714 22.4051 15.1913 22.7228C17.1981 23.2455 19.2763 22.384 20.3125 20.7049L20.3724 20.7397C20.8499 21.0173 21.462 20.8552 21.7395 20.3777C22.0171 19.9002 21.855 19.2882 21.3775 19.0106L20.3549 18.4163C20.0868 18.2604 19.7615 18.2378 19.4744 18.355Z" fill="#141B34"/>
</svg>
