<svg width="24" height="24" viewBox="0 0 24 24" fill="none" xmlns="http://www.w3.org/2000/svg">
<path d="M11.2273 22H15.5C16.4293 22 16.894 22 17.2804 21.9231C18.8671 21.6075 20.1075 20.3671 20.4231 18.7804C20.5 18.394 20.5 17.9293 20.5 17V7.81818C20.5 6.12494 20.5 5.27832 20.232 4.60214C19.8012 3.5151 18.8902 2.65765 17.7352 2.2522C17.0168 2 16.1173 2 14.3182 2C11.1698 2 9.59563 2 8.33836 2.44135C6.31714 3.15088 4.72281 4.65142 3.96894 6.55375C3.5 7.73706 3.5 9.21865 3.5 12.1818V14.7273C3.5 17.7966 3.5 19.3313 4.3477 20.3971C4.59058 20.7025 4.87862 20.9736 5.20307 21.2022C6.33546 22 7.96607 22 11.2273 22Z" fill="#D4D7E0"/>
<path d="M3.85193 6.52818C3.45014 7.54205 3.3926 8.77489 3.38437 10.971C3.72062 10.1365 5.28792 8.47443 8.88299 8.47443C9.1844 8.47443 9.97506 8.17118 9.93414 6.52818C9.91734 5.0324 10.4666 2.06264 12.7792 1.97635C10.5471 1.9862 9.27329 2.04651 8.22135 2.41578C6.20013 3.12532 4.6058 4.62585 3.85193 6.52818Z" fill="white"/>
<path d="M12.5 19.0991V20.3505C12.5 20.9102 12.5 21.1901 12.6115 21.406C12.7221 21.6201 12.9072 21.7928 13.1367 21.896C13.3681 22 13.6681 22 14.2681 22H15.2319C15.8319 22 16.1319 22 16.3633 21.896C16.5928 21.7928 16.7779 21.6201 16.8885 21.406C17 21.1901 17 20.9102 17 20.3505V19.0991C17 18.304 16.5185 17.5772 15.7562 17.2216C15.1228 16.9261 14.3772 16.9261 13.7438 17.2216C12.9815 17.5772 12.5 18.304 12.5 19.0991Z" fill="white"/>
<path d="M10 22C7.53751 21.9876 6.18354 21.8949 5.20307 21.2041C4.87862 20.9755 4.59058 20.7044 4.3477 20.399C3.5 19.3333 3.5 17.7986 3.5 14.7292V12.1837C3.5 9.22057 3.5 7.73899 3.96894 6.55568C4.72281 4.65335 6.31714 3.15281 8.33836 2.44328C9.59563 2.00193 11.1698 2.00193 14.3182 2.00193C16.1173 2.00193 17.0168 2.00193 17.7352 2.25413C18.8902 2.65957 19.8012 3.51702 20.232 4.60407C20.5 5.28025 20.5 6.12687 20.5 7.82011V14.0019C20.5 17.4396 20.5 19.3105 19.5571 20.5019" stroke="#141B34" stroke-width="1.5" stroke-linecap="round" stroke-linejoin="round"/>
<path d="M3.5 12C3.5 10.1591 4.99238 8.66667 6.83333 8.66667C7.49912 8.66667 8.28404 8.78333 8.93137 8.60988C9.50652 8.45576 9.95576 8.00652 10.1099 7.43136C10.2833 6.78404 10.1667 5.99912 10.1667 5.33333C10.1667 3.49238 11.6591 2 13.5 2" stroke="#141B34" stroke-width="1.5" stroke-linecap="round" stroke-linejoin="round"/>
<path d="M12.5 19.0991V20.3505C12.5 20.9102 12.5 21.1901 12.6115 21.406C12.7221 21.6201 12.9072 21.7928 13.1367 21.896C13.3681 22 13.6681 22 14.2681 22H15.2319C15.8319 22 16.1319 22 16.3633 21.896C16.5928 21.7928 16.7779 21.6201 16.8885 21.406C17 21.1901 17 20.9102 17 20.3505V19.0991C17 18.304 16.5185 17.5772 15.7562 17.2216C15.1228 16.9261 14.3772 16.9261 13.7438 17.2216C12.9815 17.5772 12.5 18.304 12.5 19.0991Z" stroke="#141B34" stroke-width="1.5" stroke-linecap="round" stroke-linejoin="round"/>
<path d="M14 4H15M16 6.5H17M14 8.5H15M16 10.6H17M14 13H15M16 15H17" stroke="#141B34" stroke-width="1.5" stroke-linecap="round" stroke-linejoin="round"/>
</svg>
