<svg width="24" height="24" viewBox="0 0 24 24" fill="none" xmlns="http://www.w3.org/2000/svg">
<path d="M2 9V19.9387C2 19.9956 2 20.0241 2.00057 20.0482C2.02596 21.115 2.87415 21.9737 3.92787 21.9994C3.95166 22 3.97978 22 4.03604 22C4.07654 22 4.09679 22 4.11525 21.9997L4.12591 21.9994C4.92271 21.98 5.63042 21.4775 5.91951 20.7248C5.92619 20.7074 5.93321 20.688 5.94715 20.6496L8.51464 14.5755C8.94068 13.4264 9.15369 12.8518 9.56941 12.491C10.2405 11.9085 11.2053 12.0062 12.032 12.0062H18C18.4714 12.0062 18.7071 12.0062 18.8536 11.8597C19 11.7133 19 11.4755 19 11C19 9.58579 19 8.87868 18.5661 8.43934C18.1321 8 17.4337 8 16.0368 8H9.94852C9.5196 6.92798 8.96231 5.63174 8.04925 5.20162C7.62126 5 7.13233 5 6.15448 5H5.9509C4.08843 5 3.15719 5 2.5786 5.58579C2 6.17157 2 7.11438 2 9Z" fill="white"/>
<path d="M18.9999 12.0062H12.0319C11.2051 12.0062 10.2403 11.9085 9.56927 12.491C9.15356 12.8518 8.94054 13.4264 8.51451 14.5755L5.94701 20.6496C5.93308 20.688 5.92605 20.7074 5.91937 20.7248C5.63029 21.4775 4.92258 21.98 4.12578 21.9994L13.4712 21.9835C15.9776 21.9913 17.2308 21.9952 18.2175 21.3692C18.2856 21.3259 18.3524 21.2807 18.4179 21.2334C19.3649 20.5489 19.8256 19.3834 20.7471 17.0526L21.274 15.7197C21.8625 14.231 22.1568 13.4866 21.9151 12.9154C21.8409 12.74 21.7343 12.5806 21.601 12.4456C21.167 12.0062 20.5837 12.0062 18.9999 12.0062Z" fill="#D4D7E0"/>
<path d="M19 12.0062H12.032C11.2053 12.0062 10.2405 11.9085 9.56941 12.491C9.15369 12.8518 8.94068 13.4264 8.51464 14.5755L5.94715 20.6496C5.93321 20.688 5.92619 20.7074 5.91951 20.7248C5.63042 21.4775 4.92271 21.98 4.12591 21.9994M19 12.0062V11C19 9.58579 19 8.87868 18.5661 8.43934C18.1321 8 17.4337 8 16.0368 8H9.94852M19 12.0062C20.5839 12.0062 21.1672 12.0062 21.6011 12.4456C21.7344 12.5806 21.841 12.74 21.9152 12.9154C22.157 13.4866 21.8627 14.231 21.2741 15.7197L20.7472 17.0526C19.8257 19.3834 19.365 20.5488 18.418 21.2334C18.3526 21.2807 18.2858 21.3259 18.2176 21.3692C17.2309 21.9952 15.9777 21.9913 13.4714 21.9835L4.12591 21.9994M4.12591 21.9994C4.12236 21.9995 4.1188 21.9996 4.11525 21.9997C4.09679 22 4.07654 22 4.03604 22C3.97978 22 3.95166 22 3.92787 21.9994C2.87415 21.9737 2.02596 21.115 2.00057 20.0482C2 20.0241 2 19.9956 2 19.9387V9C2 7.11438 2 6.17157 2.5786 5.58579C3.15719 5 4.08843 5 5.9509 5H6.15448C7.13233 5 7.62126 5 8.04925 5.20162C8.96231 5.63174 9.5196 6.92798 9.94852 8M9.94852 8H7.92635" stroke="#141B34" stroke-width="1.5" stroke-linecap="round"/>
<path d="M22.0004 3L21.0003 5C20.2288 3.2341 18.4667 2 16.4164 2C14.7806 2 13.3282 2.78555 12.416 4" stroke="#141B34" stroke-width="1.5" stroke-linecap="round" stroke-linejoin="round"/>
</svg>
