<svg width="24" height="24" viewBox="0 0 24 24" fill="none" xmlns="http://www.w3.org/2000/svg">
<path d="M3.5 9.08251C3.5 14.5598 7.97715 19 13.5 19C16.2255 19 18.6962 17.9187 20.5 16.165L6.5 2C4.64864 3.79995 3.5 6.3082 3.5 9.08251Z" fill="white"/>
<circle r="7" transform="matrix(-1 0 0 1 13.5 9)" fill="#D4D7E0"/>
<path d="M12.8724 5.80663C12.1727 6.17631 11.1231 6.08377 10.0735 4.97472C9.49236 4.3607 9.15431 4.0402 8.5 4.0017C9.15993 3.16837 11.3318 1.6017 14.7399 2.0017C15.1868 2.68196 15.0748 3.54766 14.2719 3.86579C13.04 4.35391 13.922 5.2521 12.8724 5.80663Z" fill="white"/>
<path d="M13.7916 12.2511C13.7916 11.0589 14.5 10.5 17 11C18.2338 11.2468 18.5 10 20 10C19.9929 11.8333 18.6809 15.6 13.4894 16C12.8153 15.5004 12.9335 14.9189 13.2717 14.3373C13.7916 13.4432 13.7916 13.4432 13.7916 12.2511Z" fill="white"/>
<path d="M12.5 19L12.5 22" stroke="#141B34" stroke-width="1.5" stroke-linecap="round" stroke-linejoin="round"/>
<path d="M10.5 22H14.5" stroke="#141B34" stroke-width="1.5" stroke-linecap="round" stroke-linejoin="round"/>
<circle r="7" transform="matrix(-1 0 0 1 13.5 9)" stroke="#141B34" stroke-width="1.5" stroke-linecap="round"/>
<path d="M8.5 4C9.15431 4.0385 9.49236 4.35899 10.0735 4.97301C11.1231 6.08206 12.1727 6.1746 12.8724 5.80492C13.922 5.2504 13.04 4.35221 14.2719 3.86409C15.0748 3.54595 15.1868 2.68026 14.7399 2" stroke="#141B34" stroke-width="1.5" stroke-linejoin="round"/>
<path d="M20 10C18.5 10 18.2338 11.2468 17 11C14.5 10.5 13.7916 11.0589 13.7916 12.2511C13.7916 13.4432 13.7916 13.4432 13.2717 14.3373C12.9335 14.9189 12.8153 15.5004 13.4894 16" stroke="#141B34" stroke-width="1.5" stroke-linejoin="round"/>
<path d="M6.5 2C4.64864 3.79995 3.5 6.3082 3.5 9.08251C3.5 14.5598 7.97715 19 13.5 19C16.2255 19 18.6962 17.9187 20.5 16.165" stroke="#141B34" stroke-width="1.5" stroke-linecap="round"/>
</svg>
