<svg width="24" height="24" viewBox="0 0 24 24" fill="none" xmlns="http://www.w3.org/2000/svg">
<path d="M14.6835 8.27782L13.8816 7.44435C13.0776 6.60864 12.6756 6.19078 12.144 6.05044C11.6124 5.9101 11.0522 6.07394 9.93176 6.40161L8.81434 6.72841C7.75442 7.0384 7.22445 7.19339 6.85476 7.57095C6.48507 7.94851 6.33962 8.48329 6.04874 9.55286L4.54058 15.0983C4.04474 16.9215 3.79681 17.8331 4.20492 18.5479C4.61303 19.2627 5.51779 19.5015 7.32731 19.9792L9.2466 20.4859C11.0561 20.9636 11.9609 21.2024 12.6771 20.7844C13.3933 20.3665 13.6412 19.4549 14.137 17.6316L15.6452 12.0862C15.9361 11.0167 16.0815 10.4819 15.9529 9.9728C15.8244 9.46371 15.4441 9.06842 14.6835 8.27782Z" fill="white"/>
<path d="M18.058 8.53645L17.058 7.92286C16.0553 7.30762 15.554 7 15 7C14.446 7 13.9447 7.30762 12.942 7.92286L11.942 8.53645C10.9935 9.11848 10.5192 9.40949 10.2596 9.87838C10 10.3473 10 10.9129 10 12.0442V17.9094C10 19.8377 10 20.8019 10.5858 21.4009C11.1716 22 12.1144 22 14 22H16C17.8856 22 18.8284 22 19.4142 21.4009C20 20.8019 20 19.8377 20 17.9094V12.0442C20 10.9129 20 10.3473 19.7404 9.87838C19.4808 9.40949 19.0065 9.11848 18.058 8.53645Z" fill="#D4D7E0"/>
<path d="M18.058 8.53645L17.058 7.92286C16.0553 7.30762 15.554 7 15 7C14.446 7 13.9447 7.30762 12.942 7.92286L11.942 8.53645C10.9935 9.11848 10.5192 9.40949 10.2596 9.87838C10 10.3473 10 10.9129 10 12.0442V17.9094C10 19.8377 10 20.8019 10.5858 21.4009C11.1716 22 12.1144 22 14 22H16C17.8856 22 18.8284 22 19.4142 21.4009C20 20.8019 20 19.8377 20 17.9094V12.0442C20 10.9129 20 10.3473 19.7404 9.87838C19.4808 9.40949 19.0065 9.11848 18.058 8.53645Z" stroke="#141B34" stroke-width="1.5" stroke-linecap="round" stroke-linejoin="round"/>
<path d="M14 7.10809C13.3612 6.4951 12.9791 6.17285 12.4974 6.05178C11.9374 5.91102 11.3491 6.06888 10.1725 6.3846L8.99908 6.69947C7.88602 6.99814 7.32949 7.14748 6.94287 7.5163C6.55624 7.88513 6.40642 8.40961 6.10679 9.45857L4.55327 14.8971C4.0425 16.6852 3.78712 17.5792 4.22063 18.2836C4.59336 18.8892 6.0835 19.6339 7.5 20" stroke="#141B34" stroke-width="1.5" stroke-linecap="round" stroke-linejoin="round"/>
<path d="M14.4947 10C15.336 9.44058 16.0828 8.54291 16.5468 7.42653C17.5048 5.12162 16.8944 2.75724 15.1836 2.14554C13.4727 1.53383 11.3091 2.90644 10.3512 5.21135C10.191 5.59667 10.0747 5.98366 10 6.36383" stroke="#141B34" stroke-width="1.5" stroke-linecap="round"/>
</svg>
