<svg width="24" height="24" viewBox="0 0 24 24" fill="none" xmlns="http://www.w3.org/2000/svg">
<path d="M14 19L11.1069 10.7479C9.76348 6.91597 9.09177 5 8 5C6.90823 5 6.23652 6.91597 4.89309 10.7479L2 19" stroke="#141B34" stroke-width="1.5" stroke-linecap="round"/>
<path d="M4.5 12H11.5" stroke="#141B34" stroke-width="1.5" stroke-linecap="round"/>
<path d="M21.25 18.5C21.25 18.9142 21.5858 19.25 22 19.25C22.4142 19.25 22.75 18.9142 22.75 18.5H21.25ZM19.8911 10.0308L20.0084 9.29001L19.8911 10.0308ZM21.9692 12.1089L21.2285 12.2262V12.2262L21.9692 12.1089ZM18.1089 10.0308L17.9916 9.29001H17.9916L18.1089 10.0308ZM22 14H22.75C22.75 13.5858 22.4142 13.25 22 13.25V14ZM15.5211 11.2001C15.3555 11.5797 15.5289 12.0218 15.9086 12.1874C16.2882 12.3531 16.7303 12.1796 16.8959 11.7999L15.5211 11.2001ZM21.25 13V18.5H22.75V13H21.25ZM19 10.75C19.4932 10.75 19.6524 10.7523 19.7738 10.7715L20.0084 9.29001C19.7411 9.24767 19.4358 9.25 19 9.25V10.75ZM22.75 13C22.75 12.5642 22.7523 12.2589 22.71 11.9916L21.2285 12.2262C21.2477 12.3476 21.25 12.5068 21.25 13H22.75ZM19.7738 10.7715C20.5226 10.8901 21.1099 11.4774 21.2285 12.2262L22.71 11.9916C22.4897 10.6009 21.3991 9.51027 20.0084 9.29001L19.7738 10.7715ZM19 9.25C18.5642 9.25 18.2589 9.24767 17.9916 9.29001L18.2262 10.7715C18.3476 10.7523 18.5068 10.75 19 10.75V9.25ZM18.5 14.75H22V13.25H18.5V14.75ZM21.25 14V15.5714H22.75V14H21.25ZM21.25 15.5714C21.25 17.0508 20.0508 18.25 18.5714 18.25V19.75C20.8792 19.75 22.75 17.8792 22.75 15.5714H21.25ZM18.5 13.25C16.7051 13.25 15.25 14.7051 15.25 16.5H16.75C16.75 15.5335 17.5335 14.75 18.5 14.75V13.25ZM16.8959 11.7999C17.1308 11.2616 17.6271 10.8664 18.2262 10.7715L17.9916 9.29001C16.8779 9.4664 15.9571 10.2009 15.5211 11.2001L16.8959 11.7999ZM18.5714 18.25C17.5636 18.25 16.75 17.4714 16.75 16.5H15.25C15.25 18.3658 16.8027 19.75 18.5714 19.75V18.25Z" fill="#141B34"/>
</svg>
