<svg width="24" height="24" viewBox="0 0 24 24" fill="none" xmlns="http://www.w3.org/2000/svg">
<path d="M3.91327 9.5C3.91327 4.94365 7.53338 1.25 11.999 1.25C16.4647 1.25 20.0848 4.94365 20.0848 9.5V12.3008L22.249 16.1652L21.7892 16.5687C19.5543 18.5294 15.9697 19.75 11.999 19.75C8.0283 19.75 4.44374 18.5294 2.2089 16.5687L1.74902 16.1652L3.91327 12.3008V9.5Z" fill="#141B34"/>
<path fill-rule="evenodd" clip-rule="evenodd" d="M11.999 21.25C10.2041 21.25 8.74902 19.7949 8.74902 18H7.24902C7.24902 20.6234 9.37567 22.75 11.999 22.75C14.6224 22.75 16.749 20.6234 16.749 18H15.249C15.249 19.7949 13.7939 21.25 11.999 21.25Z" fill="#141B34"/>
</svg>
