<svg width="24" height="24" viewBox="0 0 24 24" fill="none" xmlns="http://www.w3.org/2000/svg">
<path fill-rule="evenodd" clip-rule="evenodd" d="M2.225 4.25C1.68652 4.25 1.25 4.6915 1.25 5.23611V22C1.25001 22.1478 1.29371 22.2946 1.37895 22.4205C1.51848 22.6266 1.75114 22.75 2 22.75H18C18.3067 22.75 18.5825 22.5633 18.6964 22.2785L22.6964 12.2785C22.7888 12.0475 22.7606 11.7856 22.6211 11.5795C22.4815 11.3734 22.2489 11.25 22 11.25H20.75V8.19444C20.75 7.64983 20.3135 7.20833 19.775 7.20833H10.9692L8.53167 4.25H2.225ZM18.8 11.25V9.18055H6.125V7.20833H8.43083L7.61833 6.22222H3.2V16.9806L5.30365 11.7215C5.41754 11.4367 5.69333 11.25 6 11.25H18.8Z" fill="#141B34"/>
<path fill-rule="evenodd" clip-rule="evenodd" d="M19.6673 6.25H21.5791L22.7501 3.0983L20.8754 2.4017L20.4552 3.53251C19.3659 2.14454 17.6785 1.25 15.779 1.25C13.8258 1.25 12.0945 2.19748 11.0107 3.65271L12.6148 4.84729C13.3399 3.87363 14.4885 3.25 15.779 3.25C17.3954 3.25 18.7926 4.23064 19.4063 5.6475L19.6673 6.25Z" fill="#141B34"/>
</svg>
