<svg width="24" height="24" viewBox="0 0 24 24" fill="none" xmlns="http://www.w3.org/2000/svg">
<path fill-rule="evenodd" clip-rule="evenodd" d="M4.47016 5.96967C4.61081 5.82902 4.80158 5.75 5.00049 5.75L18.999 5.75008C19.4132 5.75008 19.7489 6.08587 19.7489 6.50008V8.5H18.2489V7.25008L5.75049 7.25V8.5H4.25049V6.5C4.25049 6.30109 4.32951 6.11032 4.47016 5.96967Z" fill="#141B34"/>
<path fill-rule="evenodd" clip-rule="evenodd" d="M6.97016 1.96967C7.11081 1.82902 7.30158 1.75 7.50049 1.75L16.5005 1.75008C16.9147 1.75008 17.2505 2.08587 17.2505 2.50008V4.5H15.7505V3.25007L8.25049 3.25001V4.5H6.75049V2.5C6.75049 2.30109 6.82951 2.11032 6.97016 1.96967Z" fill="#141B34"/>
<path d="M2.40446 10.0448C2.54635 9.85899 2.76674 9.75 3.00049 9.75H20.9991C21.2328 9.75 21.4532 9.85897 21.5951 10.0447C21.737 10.2305 21.7842 10.4717 21.7227 10.6973L18.5734 22.25L5.42765 22.25L2.27692 10.6973C2.21542 10.4718 2.26258 10.2305 2.40446 10.0448Z" fill="#141B34"/>
</svg>
