<svg width="24" height="24" viewBox="0 0 24 24" fill="none" xmlns="http://www.w3.org/2000/svg">
<path fill-rule="evenodd" clip-rule="evenodd" d="M5 16.2285L5 8.22852L7 8.22852L7 16.2285L5 16.2285Z" fill="#141B34"/>
<path fill-rule="evenodd" clip-rule="evenodd" d="M13.4142 7.22859L14.2071 8.02148L12.7929 9.4357L10.2929 6.9357C9.90237 6.54517 9.90237 5.91201 10.2929 5.52148L12.7929 3.02148L14.2071 4.4357L13.4142 5.22859H18C18.5523 5.22859 19 5.67631 19 6.22859V16.2286H17V7.22859H13.4142Z" fill="#141B34"/>
<path d="M3.25 18.2285C3.25 16.7097 4.48122 15.4785 6 15.4785C7.51878 15.4785 8.75 16.7097 8.75 18.2285C8.75 19.7473 7.51878 20.9785 6 20.9785C4.48122 20.9785 3.25 19.7473 3.25 18.2285Z" fill="#141B34"/>
<path d="M3.25 6.22852C3.25 4.70973 4.48122 3.47852 6 3.47852C7.51878 3.47852 8.75 4.70973 8.75 6.22852C8.75 7.7473 7.51878 8.97852 6 8.97852C4.48122 8.97852 3.25 7.7473 3.25 6.22852Z" fill="#141B34"/>
<path d="M15.25 18.2285C15.25 16.7097 16.4812 15.4785 18 15.4785C19.5188 15.4785 20.75 16.7097 20.75 18.2285C20.75 19.7473 19.5188 20.9785 18 20.9785C16.4812 20.9785 15.25 19.7473 15.25 18.2285Z" fill="#141B34"/>
</svg>
