<svg width="24" height="24" viewBox="0 0 24 24" fill="none" xmlns="http://www.w3.org/2000/svg">
<path d="M15.5196 2.26734L15.122 2.25L12.3143 7.08422C12.1577 7.07098 11.9574 7.05366 11.7238 7.03257C11.1332 6.97926 10.3314 6.90208 9.48483 6.8065C8.48257 6.69335 7.60302 6.82972 6.75966 7.22982C5.93726 7.61998 5.18937 8.24236 4.41372 9.0319L2.92188 10.5219L7.49326 15.0937L2.25 20.3369L3.66421 21.7511L8.90742 16.5079L13.4762 21.077L14.9652 19.5896L14.9676 19.5873C15.7577 18.8117 16.3802 18.0636 16.7703 17.2409C17.1703 16.3974 17.3064 15.5177 17.1933 14.5155C17.0977 13.6689 17.0205 12.867 16.9672 12.2764C16.9462 12.0427 16.9288 11.8424 16.9156 11.6857L21.7495 8.87786L21.7321 8.48031C21.6574 6.76627 21.039 5.38891 19.825 4.17447C18.6107 2.96036 17.2335 2.34207 15.5196 2.26734Z" fill="#141B34"/>
</svg>
