<svg width="24" height="24" viewBox="0 0 24 24" fill="none" xmlns="http://www.w3.org/2000/svg">
<path fill-rule="evenodd" clip-rule="evenodd" d="M11.3589 5.48589C11.7539 4.65242 12.3312 4.00887 12.9367 3.62107C13.6062 3.1923 14.2304 3.11717 14.702 3.28737C15.1599 3.45266 15.5397 3.87329 15.7178 4.56953C15.897 5.27029 15.8459 6.19196 15.4525 7.14749C15.0721 8.0716 14.4686 8.7896 13.8262 9.22081L14.8968 10.846C15.8809 10.1854 16.7212 9.15134 17.2378 7.89657C17.7705 6.6028 17.8875 5.24617 17.5897 4.08171C17.2908 2.91273 16.5487 1.88121 15.3528 1.44956C14.1705 1.02282 12.9222 1.31897 11.901 1.97302C10.8748 2.63028 9.99649 3.69107 9.46345 4.98576C9.30629 5.36748 9.18588 5.75304 9.10141 6.13633L6.43407 6.90487L3.28309 18.7481C3.21659 18.998 3.25117 19.2644 3.37922 19.4887C3.50728 19.7129 3.71832 19.8766 3.96591 19.9437L9.76589 21.5164C10.2815 21.6562 10.8117 21.3475 10.9502 20.827C11.0887 20.3065 10.783 19.7712 10.2674 19.6314L5.40099 18.3119L8.01727 8.47838L12.3534 7.22902L13.188 8.10143C13.5588 8.48911 14.1708 8.49988 14.5548 8.12547C14.9388 7.75107 14.9495 7.13327 14.5786 6.74559L12.9382 5.03083L11.3589 5.48589Z" fill="#141B34"/>
<path d="M20.75 21.9996C20.75 22.4139 20.4142 22.7496 20 22.7496H10C9.58579 22.7496 9.25 22.4139 9.25 21.9996V9.575L15 6.125L20.75 9.575V21.9996Z" fill="#141B34"/>
</svg>
