<svg width="24" height="24" viewBox="0 0 24 24" fill="none" xmlns="http://www.w3.org/2000/svg">
<path fill-rule="evenodd" clip-rule="evenodd" d="M2 2.25C1.58579 2.25 1.25 2.58579 1.25 3V13C1.25 13.4142 1.58579 13.75 2 13.75H9C9.19891 13.75 9.38968 13.671 9.53033 13.5303L12 11.0607L14.4697 13.5303C14.6103 13.671 14.8011 13.75 15 13.75H22C22.4142 13.75 22.75 13.4142 22.75 13V3C22.75 2.58579 22.4142 2.25 22 2.25H2ZM5 6.75H8V5.25H5V6.75Z" fill="#141B34"/>
<path fill-rule="evenodd" clip-rule="evenodd" d="M19.2322 16.9143C20.345 16.3057 21.03 15.6068 21.3061 14.9336L22.6939 15.5027C22.2362 16.6187 21.2224 17.5355 19.952 18.2303C18.6686 18.9322 17.0481 19.4502 15.2462 19.7304L15.0158 18.2482C16.6853 17.9886 18.1324 17.5157 19.2322 16.9143ZM5.74936 17.2763C6.98549 17.7934 8.50193 18.1898 10.1745 18.3668L9.55266 17.7512L10.608 16.6852L13.1666 19.2182L10.608 21.7512L9.55266 20.6852L10.3546 19.8913C8.41152 19.7196 6.63174 19.2714 5.17046 18.6601C4.22577 18.2649 3.39869 17.795 2.74292 17.2743C2.09388 16.7589 1.57251 16.1616 1.30469 15.4994L2.69526 14.937C2.83188 15.2748 3.14409 15.6774 3.6757 16.0996C4.20058 16.5163 4.90125 16.9215 5.74936 17.2763Z" fill="#141B34"/>
</svg>
