<svg width="24" height="24" viewBox="0 0 24 24" fill="none" xmlns="http://www.w3.org/2000/svg">
<path fill-rule="evenodd" clip-rule="evenodd" d="M17.9004 15.8496H11.9004V13.8496H17.9004V15.8496Z" fill="#141B34"/>
<path fill-rule="evenodd" clip-rule="evenodd" d="M8.00195 14.85C8.00195 11.0668 11.0688 8 14.852 8C18.6351 8 21.702 11.0668 21.702 14.85C21.702 16.3809 21.1998 17.7944 20.3512 18.935L23.002 21.5858L21.5877 23L18.9369 20.3492C17.7964 21.1978 16.3828 21.7 14.852 21.7C11.0688 21.7 8.00195 18.6332 8.00195 14.85ZM14.852 10C12.1734 10 10.002 12.1714 10.002 14.85C10.002 17.5286 12.1734 19.7 14.852 19.7C17.5305 19.7 19.702 17.5286 19.702 14.85C19.702 12.1714 17.5305 10 14.852 10Z" fill="#141B34"/>
<path fill-rule="evenodd" clip-rule="evenodd" d="M10.0028 1L14.0028 1V3H10.0028V1ZM2.0019 1.00027L7.00271 1L7.00282 3L3.00212 3.00022L3.00276 6.99984L1.00276 7.00016L1.00195 2.00044C1.00191 1.7352 1.10724 1.48081 1.29477 1.29324C1.4823 1.10567 1.73666 1.00029 2.0019 1.00027ZM21.0028 3.00012L17.0027 3L17.0028 1L22.0028 1.00015C22.5551 1.00017 23.0028 1.44788 23.0028 2.00015V7H21.0028V3.00012ZM1.00276 14L1.00276 10H3.00276V14H1.00276ZM1.0035 22.0001L1.00276 17.0001L3.00276 16.9999L3.00335 21H6.00276V23H2.0035C1.45127 23 1.00358 22.5524 1.0035 22.0001Z" fill="#141B34"/>
</svg>
