<svg width="24" height="24" viewBox="0 0 24 24" fill="none" xmlns="http://www.w3.org/2000/svg">
<path opacity="0.4" d="M4 14.499C4 13.9467 4.44772 13.499 5 13.499C5.56536 13.501 6.12449 13.803 6.57346 14.1173C7.35164 14.662 8.31748 15.664 9.36824 17.5029C9.64225 17.9824 9.47566 18.5933 8.99614 18.8673C8.51662 19.1413 7.90577 18.9747 7.63176 18.4952C6.68252 16.834 5.89836 16.086 5.42654 15.7558C5.13674 15.5529 4.96606 15.5059 4.92605 15.4963C4.4083 15.4585 4 15.0264 4 14.499Z" fill="#141B34"/>
<path fill-rule="evenodd" clip-rule="evenodd" d="M19.9377 6.65144C20.1298 7.16923 19.8658 7.74472 19.348 7.93684C18.2892 8.3297 17.1275 9.14743 15.9515 10.2279C14.7867 11.298 13.6642 12.5731 12.6795 13.8097C11.6967 15.0439 10.8632 16.2245 10.2752 17.0971C9.96024 17.5646 9.64888 18.0356 9.3556 18.5172C9.06919 18.9893 8.45381 19.1407 7.98162 18.8544C7.50938 18.568 7.35871 17.953 7.64508 17.4808C7.73068 17.3417 7.81715 17.2031 7.90479 17.0653C8.07061 16.8045 8.31192 16.4318 8.61661 15.9796C9.22528 15.0762 10.0904 13.8505 11.1149 12.5639C12.1375 11.2797 13.3312 9.9193 14.5984 8.75509C15.8544 7.60116 17.2405 6.58555 18.6523 6.06175C19.1701 5.86963 19.7456 6.13364 19.9377 6.65144Z" fill="#141B34"/>
</svg>
