<svg width="24" height="24" viewBox="0 0 24 24" fill="none" xmlns="http://www.w3.org/2000/svg">
<path opacity="0.4" fill-rule="evenodd" clip-rule="evenodd" d="M19.8841 4.11612C20.3723 4.60427 20.3723 5.39573 19.8841 5.88388L5.88413 19.8839C5.39597 20.372 4.60452 20.372 4.11636 19.8839C3.62821 19.3957 3.62821 18.6043 4.11636 18.1161L18.1164 4.11612C18.6045 3.62796 19.396 3.62796 19.8841 4.11612Z" fill="#141B34"/>
<path fill-rule="evenodd" clip-rule="evenodd" d="M4.11636 4.11612C4.60452 3.62796 5.39597 3.62796 5.88413 4.11612L19.8841 18.1161C20.3723 18.6043 20.3723 19.3957 19.8841 19.8839C19.396 20.372 18.6045 20.372 18.1164 19.8839L4.11636 5.88388C3.62821 5.39573 3.62821 4.60427 4.11636 4.11612Z" fill="#141B34"/>
</svg>
