<svg width="24" height="24" viewBox="0 0 24 24" fill="none" xmlns="http://www.w3.org/2000/svg">
<path opacity="0.4" fill-rule="evenodd" clip-rule="evenodd" d="M10.2458 12C10.2458 11.0335 11.0294 10.25 11.9958 10.25H12.0048C12.9713 10.25 13.7548 11.0335 13.7548 12C13.7548 12.9665 12.9713 13.75 12.0048 13.75H11.9958C11.0294 13.75 10.2458 12.9665 10.2458 12Z" fill="#141B34"/>
<path fill-rule="evenodd" clip-rule="evenodd" d="M16.2498 12C16.2498 11.0335 17.0333 10.25 17.9998 10.25H18.0087C18.9752 10.25 19.7587 11.0335 19.7587 12C19.7587 12.9665 18.9752 13.75 18.0087 13.75H17.9998C17.0333 13.75 16.2498 12.9665 16.2498 12Z" fill="#141B34"/>
<path fill-rule="evenodd" clip-rule="evenodd" d="M4.24976 12C4.24976 11.0335 5.03326 10.25 5.99976 10.25H6.00874C6.97524 10.25 7.75874 11.0335 7.75874 12C7.75874 12.9665 6.97524 13.75 6.00874 13.75H5.99976C5.03326 13.75 4.24976 12.9665 4.24976 12Z" fill="#141B34"/>
</svg>
