<svg width="24" height="24" viewBox="0 0 24 24" fill="none" xmlns="http://www.w3.org/2000/svg">
<path opacity="0.4" d="M1.44541 7.16806C1.90493 6.8617 2.5258 6.98588 2.83216 7.44541C2.85837 7.48285 2.93295 7.58911 2.98827 7.66407C3.099 7.81408 3.26659 8.03284 3.48708 8.29742C3.92916 8.82792 4.57785 9.53538 5.4009 10.2408C7.06276 11.6653 9.33801 13.0001 12.0001 13.0001C14.6622 13.0001 16.9371 11.6653 18.599 10.2408C19.422 9.53538 20.0707 8.82792 20.5128 8.29742C20.7333 8.03284 20.9009 7.81408 21.0116 7.66407C21.0669 7.58911 21.1415 7.48285 21.1677 7.44541C21.4741 6.98588 22.095 6.8617 22.5545 7.16806C23.014 7.47441 23.1382 8.09528 22.8318 8.55481L22.8262 8.56282C22.786 8.62027 22.6834 8.76696 22.6208 8.85177C22.4893 9.02988 22.2975 9.27987 22.0493 9.57779C21.5538 10.1723 20.8275 10.9648 19.9006 11.7594C18.0624 13.3349 15.338 15.0001 12.0001 15.0001C8.6622 15.0001 5.93746 13.3349 4.09931 11.7594C3.17236 10.9648 2.44606 10.1723 1.95064 9.57779C1.70237 9.27987 1.51059 9.02988 1.37913 8.85177C1.31336 8.76267 1.20337 8.60526 1.16806 8.55481C0.861704 8.09528 0.985877 7.47441 1.44541 7.16806Z" fill="#141B34"/>
<path d="M2.92675 10.659L1.29289 12.2928C0.902369 12.6834 0.902369 13.3165 1.29289 13.7071C1.68342 14.0976 2.31658 14.0976 2.70711 13.7071L4.40167 12.0125C4.29838 11.928 4.19758 11.8435 4.09931 11.7593C3.66294 11.3853 3.27103 11.0117 2.92675 10.659Z" fill="#141B34"/>
<path d="M7.53761 13.9936L6.64251 15.4855C6.35836 15.959 6.51192 16.5733 6.9855 16.8574C7.45908 17.1416 8.07334 16.988 8.35749 16.5144L9.46017 14.6767C8.78308 14.5035 8.14117 14.269 7.53761 13.9936Z" fill="#141B34"/>
<path d="M14.5399 14.6767L15.6425 16.5144C15.9267 16.988 16.5409 17.1416 17.0145 16.8574C17.4881 16.5733 17.6416 15.959 17.3575 15.4855L16.4624 13.9936C15.8588 14.2691 15.2169 14.5035 14.5399 14.6767Z" fill="#141B34"/>
<path d="M19.5983 12.0124L21.2929 13.7071C21.6834 14.0976 22.3166 14.0976 22.7071 13.7071C23.0976 13.3165 23.0976 12.6834 22.7071 12.2928L21.0732 10.6589C20.7289 11.0116 20.337 11.3853 19.9006 11.7593C19.8023 11.8435 19.7016 11.928 19.5983 12.0124Z" fill="#141B34"/>
</svg>
