<svg width="24" height="24" viewBox="0 0 24 24" fill="none" xmlns="http://www.w3.org/2000/svg">
<path opacity="0.4" fill-rule="evenodd" clip-rule="evenodd" d="M6.18213 2.25C6.19946 2.25 6.21686 2.25 6.23431 2.25L17.8178 2.25C18.5884 2.24997 19.2426 2.24994 19.7587 2.32026C20.3049 2.3947 20.8273 2.56273 21.2272 3.00266C21.6306 3.44644 21.741 3.98125 21.7494 4.52794C21.7573 5.0385 21.6757 5.67272 21.5805 6.41218L21.5735 6.46603C21.5399 6.72771 21.4893 6.9808 21.384 7.23419C21.2771 7.49146 21.1298 7.71058 20.9464 7.92833C19.9667 9.09153 18.1454 11.1937 15.5814 13.108C15.54 13.139 15.4876 13.2124 15.4776 13.3225C15.2294 16.0654 15.0167 17.4903 14.8513 18.3729C14.68 19.2866 13.9733 19.9238 13.3719 20.3592C13.0559 20.588 12.7217 20.7934 12.4259 20.9732C12.3991 20.9895 12.3726 21.0055 12.3466 21.0213C12.0744 21.1866 11.8463 21.3251 11.6591 21.4574C11.1464 21.8198 10.5353 21.8337 10.0428 21.5646C9.56871 21.3055 9.25434 20.8158 9.18796 20.2555C9.0506 19.0959 8.79286 16.7485 8.51176 13.3161C8.50273 13.206 8.45034 13.1318 8.40839 13.1005C5.84956 11.1885 4.03182 9.09 3.05351 7.92829C2.87013 7.71054 2.72289 7.49143 2.61595 7.23416C2.51062 6.98078 2.46012 6.7277 2.42644 6.46603C2.42412 6.44801 2.42181 6.43006 2.41951 6.41217C2.32429 5.67272 2.24262 5.0385 2.25053 4.52794C2.259 3.98125 2.36942 3.44644 2.7728 3.00266C3.17269 2.56273 3.69502 2.3947 4.2413 2.32026C4.75741 2.24994 5.41157 2.24997 6.18213 2.25Z" fill="#141B34"/>
<path d="M6.18311 2.25C5.41254 2.24997 4.75839 2.24994 4.24228 2.3203C3.696 2.39478 3.17366 2.56291 2.77378 3.0031C2.3704 3.44714 2.25997 3.98226 2.25151 4.52927C2.2436 5.04013 2.32527 5.67472 2.42048 6.4146C2.45664 6.69563 2.50766 6.97407 2.61692 7.23708C2.72386 7.49449 2.8711 7.71373 3.05448 7.93162C4.79395 9.99837 6.54427 11.9258 8.67698 13.4721C9.67812 14.1986 10.7037 15.0001 12.001 15C13.2983 14.9999 14.3237 14.1983 15.3248 13.4717C17.457 11.9253 19.2083 9.99775 20.9474 7.93165C21.1308 7.71377 21.278 7.49453 21.385 7.23711C21.4903 6.98357 21.5408 6.73033 21.5745 6.4685C21.657 5.82721 21.7605 5.17764 21.7504 4.52927C21.7419 3.98226 21.6315 3.44714 21.2281 3.0031C20.8283 2.56291 20.3059 2.39478 19.7596 2.3203C19.2435 2.24994 18.5894 2.24997 17.8188 2.25H6.18311Z" fill="#141B34"/>
</svg>
