<svg width="24" height="24" viewBox="0 0 24 24" fill="none" xmlns="http://www.w3.org/2000/svg">
<path opacity="0.4" d="M19.0599 11.2567C19.7987 11.2566 20.3842 11.2566 20.8338 11.3186C21.3394 11.3884 21.767 11.5472 22.1343 11.9191C22.3346 12.1219 22.4944 12.3611 22.6055 12.6237C22.8224 13.1362 22.7635 13.6617 22.6308 14.1652C22.5024 14.6522 22.268 15.2452 21.9884 15.9523L21.429 17.3673C20.9812 18.5001 20.6236 19.4046 20.2566 20.1078C19.8776 20.8342 19.4589 21.4066 18.8569 21.8417C18.7792 21.8979 18.6998 21.9516 18.6189 22.003C17.9917 22.4009 17.305 22.5777 16.4898 22.6607C15.7007 22.741 14.728 22.7379 13.5099 22.7342L3.99976 22.7497L3.99927 20.7998C5.0126 20.7998 5.29994 20.2557 5.44788 19.9135L7.8225 14.2841C8.02567 13.7361 8.19533 13.2784 8.36843 12.9153C8.55013 12.5342 8.76148 12.1992 9.07733 11.9251C9.57098 11.4966 10.1482 11.3429 10.6577 11.2854C11.0325 11.243 11.4364 11.249 11.7652 11.2539L19.0599 11.2567Z" fill="#141B34"/>
<path fill-rule="evenodd" clip-rule="evenodd" d="M20.7242 6.25015C21.1121 6.26019 21.4709 6.04484 21.6445 5.69771L22.6445 3.69771C22.8915 3.20373 22.6913 2.60306 22.1973 2.35606C21.7033 2.10907 21.1026 2.30929 20.8556 2.80326L20.6342 3.24617C19.5362 2.02182 17.9418 1.25049 16.1661 1.25049C14.2024 1.25049 12.4591 2.19483 11.3661 3.64991C11.0345 4.0915 11.1235 4.71836 11.5651 5.05005C12.0067 5.38174 12.6336 5.29265 12.9653 4.85106C13.6967 3.87725 14.8581 3.25049 16.1661 3.25049C17.8048 3.25049 19.2155 4.23604 19.8337 5.65086C19.9891 6.0065 20.3362 6.24011 20.7242 6.25015Z" fill="#141B34"/>
<path d="M6.26835 6.19772C7.31172 6.19772 7.52475 6.21943 7.69831 6.30119C7.88344 6.3884 8.11721 6.6117 8.37973 7.04927C8.40371 7.08924 8.42734 7.12998 8.45064 7.17142H7.99359C7.45584 7.17142 7.01991 7.60735 7.01991 8.14511C7.01991 8.68287 7.45584 9.11881 7.99359 9.11881H15.8906C16.5985 9.11881 17.0303 9.12093 17.3422 9.16338C17.6179 9.20091 17.6585 9.25428 17.661 9.25751C17.6667 9.26251 17.7203 9.30967 17.7578 9.59176C17.8001 9.91048 17.8021 10.3505 17.8021 11.0662V11.2564L19.0601 11.2569C19.3068 11.2569 19.5364 11.2569 19.7495 11.2592V11.0067C19.7496 10.3693 19.7496 9.79781 19.6882 9.33541C19.6213 8.83189 19.4662 8.31406 19.046 7.88865C18.6242 7.46157 18.1079 7.30226 17.6049 7.23378C17.1458 7.17129 16.5791 7.17135 15.9509 7.17141L10.6137 7.17142C10.4535 6.80121 10.2673 6.41023 10.0496 6.04741C9.71416 5.48826 9.2321 4.87108 8.5282 4.53949C7.90909 4.24783 7.22027 4.24891 6.42658 4.25016L6.26835 4.25033L6.21411 4.25032C5.35247 4.25029 4.57225 4.25026 3.93852 4.32907C3.29446 4.40916 2.60805 4.58954 2.09383 5.11016C1.60323 5.60687 1.41288 6.21771 1.32841 6.85381C1.24943 7.44859 1.24947 8.19162 1.24951 9.05531L1.25008 19.888L1.25035 19.8995C1.28718 21.4471 2.52073 22.7118 4.07659 22.7497C4.61418 22.7628 5.06061 22.3376 5.07373 21.8C5.08684 21.2624 4.66167 20.816 4.12408 20.8029C3.63097 20.7909 3.21486 20.3881 3.19744 19.8629L3.19688 9.11876C3.19688 8.17358 3.1989 7.56145 3.25883 7.11017C3.3152 6.68566 3.40654 6.55231 3.47931 6.47864C3.52846 6.42888 3.67621 6.32408 4.17883 6.26157C4.67851 6.19944 5.33803 6.19772 6.26835 6.19772Z" fill="#141B34"/>
</svg>
