<svg width="24" height="24" viewBox="0 0 24 24" fill="none" xmlns="http://www.w3.org/2000/svg">
<path d="M20.5884 13.5C20.764 13.5001 20.9797 13.5003 21.1561 13.4782L21.1595 13.4778C21.2859 13.462 21.862 13.3902 22.1363 12.8246C22.4113 12.2578 22.1093 11.7576 22.044 11.6494L21.7049 11.181C21.4103 10.8051 21.0046 10.2907 20.6241 9.89966C20.4343 9.70455 20.217 9.50331 19.9861 9.34447C19.7809 9.20326 19.4307 9 19 9C18.5693 9 18.2191 9.20326 18.0139 9.34447C17.783 9.50332 17.5657 9.70455 17.3759 9.89966C16.9954 10.2907 16.5898 10.8051 16.2951 11.1809L15.956 11.6494C15.8907 11.7576 15.5887 12.2578 15.8637 12.8246C16.138 13.3902 16.7141 13.462 16.8405 13.4778L16.8439 13.4782C17.0203 13.5003 17.236 13.5001 17.4116 13.5L20.5884 13.5Z" fill="#141B34"/>
<path opacity="0.4" d="M17.9997 13.5C17.998 14.6679 17.9857 15.5139 17.8991 16.1581C17.8042 16.8642 17.6368 17.1912 17.4142 17.4138C17.1916 17.6363 16.8646 17.8037 16.1586 17.8986C15.4237 17.9974 14.4425 17.9996 13 17.9996H7C6.44772 17.9996 6 18.4473 6 18.9996C6 19.5518 6.44772 19.9996 7 19.9996L13.0706 19.9996C14.4247 19.9996 15.5413 19.9996 16.4251 19.8808C17.3529 19.7561 18.1723 19.4841 18.8284 18.828C19.4845 18.1719 19.7565 17.3525 19.8812 16.4246C19.9869 15.639 19.9986 14.657 19.9999 13.5H17.9997Z" fill="#141B34"/>
<path opacity="0.4" fill-rule="evenodd" clip-rule="evenodd" d="M5 6C5.55228 6 6 6.44772 6 7L6 17C6 17.5523 5.55229 18 5 18C4.44772 18 4 17.5523 4 17L4 7C4 6.44772 4.44772 6 5 6Z" fill="#141B34"/>
<path fill-rule="evenodd" clip-rule="evenodd" d="M2.25 5C2.25 3.48122 3.48122 2.25 5 2.25C6.51878 2.25 7.75 3.48122 7.75 5C7.75 6.51878 6.51878 7.75 5 7.75C3.48122 7.75 2.25 6.51878 2.25 5Z" fill="#141B34"/>
<path fill-rule="evenodd" clip-rule="evenodd" d="M16.25 5C16.25 3.48122 17.4812 2.25 19 2.25C20.5188 2.25 21.75 3.48122 21.75 5C21.75 6.51878 20.5188 7.75 19 7.75C17.4812 7.75 16.25 6.51878 16.25 5Z" fill="#141B34"/>
<path fill-rule="evenodd" clip-rule="evenodd" d="M2.25 19C2.25 17.4812 3.48122 16.25 5 16.25C6.51878 16.25 7.75 17.4812 7.75 19C7.75 20.5188 6.51878 21.75 5 21.75C3.48122 21.75 2.25 20.5188 2.25 19Z" fill="#141B34"/>
</svg>
