<svg width="24" height="24" viewBox="0 0 24 24" fill="none" xmlns="http://www.w3.org/2000/svg">
<path d="M14.1219 2.42494L13.4589 1.51013C13.3666 1.38275 13.3205 1.31907 13.2501 1.28619C13.1798 1.25332 13.1052 1.2585 12.956 1.26887C11.2563 1.38696 9.70751 2.05341 8.48518 3.09261C8.42063 3.14749 8.46021 3.24738 8.54479 3.25236C9.52542 3.31009 10.0473 3.85491 10.6189 4.45921C11.5024 5.39328 12.1971 5.31605 12.5228 5.14389C12.6559 5.07354 12.6804 5.02376 12.6888 5.0066L12.6894 5.00536C12.716 4.95167 12.7271 4.89428 12.7667 4.67698C12.7998 4.49538 12.8573 4.18363 13.0565 3.88263C13.2672 3.56432 13.5817 3.33226 13.9964 3.16784C14.1693 3.0993 14.2225 3.00334 14.2417 2.91286C14.2656 2.80011 14.2463 2.62069 14.1219 2.42494Z" fill="#141B34"/>
<path d="M15.0713 16.3543C15.1862 16.4505 15.2436 16.4987 15.3162 16.5143C15.3888 16.5299 15.4573 16.5107 15.5944 16.4724C18.063 15.7809 20.0337 13.8971 20.8471 11.4808C20.9538 11.1637 21.0072 11.0052 20.9174 10.8802C20.8276 10.7553 20.6511 10.7553 20.2981 10.7553H20.0007C19.5009 10.7553 19.2273 10.9397 18.826 11.216L18.8117 11.2258C18.3967 11.5115 17.7907 11.9288 16.8536 11.7413C15.6187 11.4942 15.0282 11.5599 14.7736 11.6776C14.6787 11.7215 14.6406 11.7678 14.6137 11.822C14.578 11.894 14.5423 12.0255 14.5423 12.2572L14.5424 12.3444C14.5426 12.8556 14.5428 13.2419 14.4551 13.5942C14.3638 13.9608 14.1823 14.2725 13.9589 14.6563L13.9207 14.7218C13.7757 14.9714 13.748 15.1096 13.7509 15.1739C13.7519 15.1956 13.7562 15.2141 13.7712 15.2399C13.7886 15.2696 13.832 15.3277 13.9366 15.4053C13.9486 15.4141 13.9603 15.4233 13.9716 15.4329L15.0713 16.3543Z" fill="#141B34"/>
<path opacity="0.4" d="M15.5408 1.91473C15.4432 1.70221 15.3944 1.59595 15.4372 1.5472C15.4799 1.49846 15.5824 1.53008 15.7874 1.59334C18.951 2.56974 21.25 5.51843 21.25 9.00437C21.25 9.1438 21.1353 9.25451 20.9959 9.25451H20C19.0266 9.25451 18.4232 9.67059 18.0089 9.95627L17.9751 9.97953C17.5739 10.2557 17.433 10.3269 17.1471 10.2696C15.882 10.0165 14.8684 9.98019 14.1437 10.3153C13.7491 10.4977 13.4538 10.7837 13.2697 11.1541C13.0945 11.5069 13.0416 11.8925 13.0416 12.2573C13.0416 12.895 13.0362 13.0815 12.9989 13.2313C12.9654 13.3659 12.9024 13.4872 12.6234 13.9674C12.4302 14.2997 12.2296 14.7435 12.2517 15.2405C12.2757 15.7833 12.555 16.2426 13.0235 16.5967C13.0846 16.6479 13.0459 16.746 12.9664 16.7406C8.93511 16.4663 5.75 13.1075 5.75 9.00437C5.75 7.62724 6.10879 6.33395 6.73795 5.21299C6.85919 4.99698 6.91981 4.88898 7.03683 4.82046C7.15385 4.75195 7.28854 4.75195 7.55792 4.75195H8.47603C8.79051 4.77416 8.95032 4.87935 9.52878 5.49091C10.7445 6.77617 12.149 7.03858 13.2228 6.47097C13.6112 6.26567 13.8722 5.99578 14.0327 5.67187C14.1602 5.41454 14.2071 5.1445 14.2335 4.99253L14.2417 4.94614C14.2733 4.77267 14.2918 4.73349 14.3065 4.71129C14.3113 4.70385 14.3517 4.6411 14.5482 4.56319C15.1782 4.31343 15.5824 3.81714 15.7082 3.2248C15.8042 2.7728 15.7278 2.32193 15.5408 1.91473Z" fill="#141B34"/>
<path fill-rule="evenodd" clip-rule="evenodd" d="M7.21699 1.30292C7.60198 1.6989 7.59306 2.33201 7.19708 2.71699C5.53044 4.33735 4.5 6.59051 4.5 9.08251C4.5 13.9997 8.52161 18 13.5 18C15.9559 18 18.1791 17.0267 19.8029 15.448C20.1989 15.063 20.832 15.072 21.217 15.4679C21.602 15.8639 21.5931 16.497 21.1971 16.882C19.2134 18.8106 16.495 20 13.5 20V21H14.5C15.0523 21 15.5 21.4477 15.5 22C15.5 22.5523 15.0523 23 14.5 23H10.5C9.94772 23 9.5 22.5523 9.5 22C9.5 21.4477 9.94772 21 10.5 21H11.5V19.8199C6.38488 18.8869 2.5 14.4404 2.5 9.08251C2.5 6.02589 3.76683 3.26255 5.80292 1.28301C6.1989 0.898021 6.83201 0.906936 7.21699 1.30292Z" fill="#141B34"/>
</svg>
