<svg width="24" height="24" viewBox="0 0 24 24" fill="none" xmlns="http://www.w3.org/2000/svg">
<path d="M12.8257 1.75C15.0014 1.74998 15.7361 1.74997 17.0962 1.93282C18.5005 2.12164 19.6543 2.52175 20.5667 3.43414C21.4791 4.34653 21.8792 5.50033 22.0681 6.90471C22.232 8.12428 22.2489 10.047 22.2507 12L22.2475 12.75H20.2509C20.2509 10.4826 20.2487 8.38258 20.0859 7.17121C19.9269 5.9886 19.6314 5.3272 19.1525 4.84835C18.6737 4.3695 18.0123 4.07399 16.8297 3.91499C15.6183 3.75212 15.0183 3.75 12.7509 3.75C10.4834 3.75 8.38345 3.75212 7.17208 3.91499C5.98948 4.07399 5.32808 4.3695 4.84922 4.84835C4.37037 5.3272 4.07486 5.9886 3.91586 7.17121C3.753 8.38258 3.75087 10.4826 3.75087 12.75L1.75 12.7518L1.75107 11.9999C1.7528 10.0469 1.76973 8.12426 1.9337 6.90471C2.12251 5.50033 2.52262 4.34653 3.43501 3.43414C4.3474 2.52175 5.50121 2.12164 6.90559 1.93282C8.26571 1.74996 10.0004 1.74998 12.1764 1.75H12.1764H12.8257H12.8257Z" fill="#141B34"/>
<path opacity="0.4" d="M22.2444 13.5037C22.2358 15.2454 22.1965 16.6539 21.9914 17.7892C21.7825 18.9461 21.391 19.8839 20.6358 20.6391C19.7776 21.4973 18.6853 21.8843 17.3087 22.0694C15.9653 22.25 14.2446 22.25 12.0539 22.25H11.9395C9.74881 22.25 8.02813 22.25 6.68472 22.0694C5.30807 21.8843 4.21581 21.4973 3.35761 20.6391C2.60244 19.8839 2.21094 18.9461 2.00198 17.7892C1.79692 16.6539 1.7576 15.2454 1.74902 13.5037L1.75009 12.7518L3.75097 12.75L7.42236 12.75C8.70254 12.75 9.55782 13.7898 9.96831 14.6123C10.2585 15.1938 10.8221 15.75 11.9967 15.75C13.1713 15.75 13.7349 15.1938 14.0251 14.6123C14.4356 13.7898 15.2909 12.75 16.571 12.75L20.251 12.75H22.2476L22.2444 13.5037Z" fill="#141B34"/>
</svg>
