<svg width="24" height="24" viewBox="0 0 24 24" fill="none" xmlns="http://www.w3.org/2000/svg">
<path opacity="0.4" fill-rule="evenodd" clip-rule="evenodd" d="M10.2419 12C10.2419 11.0335 11.0254 10.25 11.9919 10.25H12.0009C12.9674 10.25 13.7509 11.0335 13.7509 12C13.7509 12.9665 12.9674 13.75 12.0009 13.75H11.9919C11.0254 13.75 10.2419 12.9665 10.2419 12Z" fill="#141B34"/>
<path fill-rule="evenodd" clip-rule="evenodd" d="M10.2341 18C10.2341 17.0335 11.0176 16.25 11.9841 16.25H11.9931C12.9596 16.25 13.7431 17.0335 13.7431 18C13.7431 18.9665 12.9596 19.75 11.9931 19.75H11.9841C11.0176 19.75 10.2341 18.9665 10.2341 18Z" fill="#141B34"/>
<path fill-rule="evenodd" clip-rule="evenodd" d="M10.2498 6C10.2498 5.0335 11.0333 4.25 11.9998 4.25H12.0087C12.9752 4.25 13.7587 5.0335 13.7587 6C13.7587 6.9665 12.9752 7.75 12.0087 7.75H11.9998C11.0333 7.75 10.2498 6.9665 10.2498 6Z" fill="#141B34"/>
</svg>
