<svg width="24" height="24" viewBox="0 0 24 24" fill="none" xmlns="http://www.w3.org/2000/svg">
<path opacity="0.4" fill-rule="evenodd" clip-rule="evenodd" d="M6.9434 0.948242C5.13706 0.948242 3.33776 2.20058 3.25445 4.23424C3.16108 6.51379 4.79014 7.96016 6.03013 9.01204C6.93668 9.78106 7.54569 10.3 7.94992 10.7399C8.34231 11.1669 8.42644 11.4001 8.44301 11.5698C8.45136 11.6553 8.45136 11.7412 8.44301 11.8267C8.42644 11.9964 8.34231 12.2296 7.94992 12.6566C7.54569 13.0965 6.93668 13.6154 6.03013 14.3844L5.97883 14.428C4.72262 15.4931 3.15847 16.8194 3.25445 19.1623C3.33776 21.1959 5.13706 22.4482 6.9434 22.4482L17.0571 22.4482C18.8634 22.4482 20.6628 21.1959 20.7461 19.1622C20.8021 17.7937 20.2969 16.3989 19.1905 15.4208C18.9147 15.1769 18.624 14.9334 18.3456 14.7001L18.3444 14.6991C18.2162 14.5917 18.0907 14.4865 17.9704 14.3844C17.0638 13.6154 16.4548 13.0965 16.0506 12.6566C15.6582 12.2296 15.5741 11.9964 15.5575 11.8267C15.5491 11.7412 15.5491 11.6553 15.5575 11.5698C15.5741 11.4001 15.6582 11.1669 16.0506 10.7399C16.4548 10.3 17.0638 9.78106 17.9704 9.01204L17.9861 8.99872C19.2368 7.93781 20.842 6.57618 20.746 4.23424C20.6627 2.20058 18.8634 0.948242 17.0571 0.948242H6.9434ZM8.27105 19.8864C8.13138 20.1257 8.1044 20.4937 8.49416 20.4937L15.5072 20.4937C15.897 20.4937 15.87 20.1257 15.7303 19.8864C15.5103 19.5095 15.1531 19.2569 14.8735 19.0592C14.0171 18.4473 13.1087 17.698 12 17.6982C10.8919 17.6985 9.98388 18.4476 9.12785 19.0592C8.84823 19.2569 8.49108 19.5095 8.27105 19.8864Z" fill="#141B34"/>
<path fill-rule="evenodd" clip-rule="evenodd" d="M8.27105 19.8864C8.13139 20.1257 8.10441 20.4937 8.49417 20.4937L15.5072 20.4937C15.897 20.4937 15.87 20.1257 15.7303 19.8864C15.5103 19.5095 15.1532 19.2569 14.8735 19.0592C14.0171 18.4473 13.1087 17.698 12 17.6982C10.8919 17.6985 9.98389 18.4476 9.12785 19.0592C8.84824 19.2569 8.49109 19.5095 8.27105 19.8864Z" fill="#141B34"/>
</svg>
