<svg width="24" height="25" viewBox="0 0 24 25" fill="none" xmlns="http://www.w3.org/2000/svg">
<path opacity="0.4" d="M1.25 12.5C1.25 6.56294 6.06294 1.75 12 1.75C17.9371 1.75 22.75 6.56294 22.75 12.5C22.75 18.4371 17.9371 23.25 12 23.25C6.06294 23.25 1.25 18.4371 1.25 12.5Z" fill="#141B34"/>
<path fill-rule="evenodd" clip-rule="evenodd" d="M12 8.75C10.6193 8.75 9.5 9.86929 9.5 11.25C9.5 12.2752 10.117 13.1562 11 13.542L11 16.25C11 16.8023 11.4477 17.25 12 17.25C12.5523 17.25 13 16.8023 13 16.25L13 13.542C13.883 13.1562 14.5 12.2752 14.5 11.25C14.5 9.86929 13.3807 8.75 12 8.75Z" fill="#141B34"/>
</svg>
