<svg width="24" height="24" viewBox="0 0 24 24" fill="none" xmlns="http://www.w3.org/2000/svg">
<path d="M1.26758 10.6617C1.29883 9.19623 1.32465 7.98538 1.49526 7.00415L3.74387 8.1613C3.64318 8.12574 3.56583 8.12284 3.49608 8.1613C3.34924 8.24224 3.33957 8.445 3.32023 8.85052C3.29416 9.39703 3.28003 10.0306 3.26403 10.7797C3.24333 11.7492 3.24334 12.2508 3.26405 13.2203C3.29736 14.7803 3.32261 15.8393 3.46432 16.6543C3.59776 17.4218 3.82038 17.8777 4.20122 18.2595C4.5781 18.6374 5.04027 18.8638 5.83355 19.0018C6.67174 19.1476 7.76497 19.1776 9.36791 19.2178C11.2902 19.266 12.7098 19.266 14.6321 19.2178C16.235 19.1776 17.3283 19.1476 18.1665 19.0018C18.9597 18.8638 19.4219 18.6374 19.7988 18.2595C20.1796 17.8777 20.4023 17.4218 20.5357 16.6543C20.6774 15.8393 20.7027 14.7803 20.736 13.2203C20.7567 12.2508 20.7567 11.7492 20.736 10.7797C20.72 10.0305 20.7058 9.39686 20.6798 8.8503C20.6604 8.4448 20.6507 8.24203 20.5039 8.16108C20.434 8.12256 20.3565 8.12554 20.2555 8.1613L22.5047 7.00415C22.6753 7.98537 22.7012 9.19628 22.7324 10.6618L22.734 10.7371C22.7553 11.735 22.7553 12.2649 22.734 13.2628L22.7324 13.3383C22.7012 14.8038 22.6754 16.0146 22.5047 16.9958C22.323 18.0414 21.9641 18.9169 21.2146 19.6683C20.4612 20.4236 19.5717 20.7835 18.5094 20.9682C17.5084 21.1423 16.2665 21.1735 14.7571 21.2113L14.6823 21.2132C12.7265 21.2623 11.2735 21.2623 9.31772 21.2132L9.24286 21.2113C7.7335 21.1735 6.49162 21.1424 5.49066 20.9682C4.42829 20.7835 3.53878 20.4236 2.78537 19.6683C2.03592 18.9169 1.67707 18.0414 1.49527 16.9958C1.32466 16.0146 1.29884 14.8038 1.2676 13.3383L1.26599 13.2629C1.24468 12.2649 1.24467 11.735 1.26597 10.7371L1.26758 10.6617Z" fill="#141B34"/>
<path opacity="0.4" d="M9.31756 2.78681C11.2733 2.73774 12.7264 2.73773 14.6821 2.78681L14.757 2.78868C16.2664 2.82652 17.5082 2.85765 18.5092 3.03176C18.8795 3.09616 19.2288 3.18184 19.5586 3.29811C19.6462 3.31873 19.7304 3.35104 19.8089 3.39389C20.3247 3.6077 20.7911 3.90728 21.2145 4.33174C21.964 5.08311 22.3228 5.9586 22.5046 7.00416L20.2554 8.1613C20.1442 8.20067 20.0046 8.27978 19.8154 8.38697L15.5796 10.787C14.28 11.5234 13.1809 12 11.9997 12C10.8185 12 9.71932 11.5234 8.41971 10.787L4.18431 8.38719C3.99479 8.2798 3.855 8.2006 3.74373 8.1613L1.49512 7.00416C1.67691 5.9586 2.03576 5.08311 2.78522 4.33174C3.53862 3.57641 4.42814 3.21654 5.4905 3.03175C6.49147 2.85765 7.73335 2.82652 9.24271 2.78869L9.31756 2.78681Z" fill="#141B34"/>
</svg>
