<svg width="24" height="24" viewBox="0 0 24 24" fill="none" xmlns="http://www.w3.org/2000/svg">
<path opacity="0.4" d="M4.24902 6.59888L3.33725 7.20673C2.92366 7.48244 2.57115 7.71743 2.29566 7.94084C2.00195 8.17904 1.75316 8.43669 1.57142 8.77765C1.37087 9.1539 1.29989 9.54106 1.27115 9.96078C1.24889 10.2859 1.2502 10.6716 1.25171 11.1188L1.25179 11.1431C1.25602 12.4028 1.26774 13.6894 1.30027 14.9929L1.30173 15.0513C1.33884 16.5389 1.36877 17.739 1.53908 18.7046C1.71781 19.718 2.06112 20.5427 2.76522 21.2468C3.4708 21.9524 4.30207 22.2951 5.32414 22.4736C6.29951 22.644 7.51459 22.6743 9.02319 22.712L9.0814 22.7135C11.0325 22.7622 12.9664 22.7622 14.9174 22.7135L14.9756 22.712C16.4842 22.6743 17.6993 22.644 18.6747 22.4736C19.6968 22.2951 20.528 21.9524 21.2336 21.2468C21.9377 20.5427 22.281 19.718 22.4598 18.7046C22.63 17.739 22.66 16.539 22.6971 15.0514L22.6985 14.9929C22.7311 13.6894 22.7428 12.4028 22.747 11.1431L22.7471 11.1187C22.7486 10.6716 22.7499 10.2859 22.7276 9.96082C22.6989 9.54108 22.6279 9.15391 22.4274 8.77765C22.2456 8.43669 21.9968 8.17903 21.7031 7.94084C21.4276 7.71743 21.0752 7.48246 20.6616 7.20677L19.749 6.59839L19.749 8.40116L19.8022 8.43659C20.2505 8.73547 20.5438 8.93193 20.7583 9.10589C20.9606 9.26997 21.0487 9.38002 21.1037 9.48321C21.1256 9.52444 21.1456 9.57043 21.163 9.62721L14.7005 13.5047C13.9356 13.9637 13.409 14.2786 12.9714 14.4843C12.5492 14.6828 12.2659 14.7515 11.9994 14.7515C11.7329 14.7515 11.4497 14.6828 11.0274 14.4843C10.5898 14.2786 10.0632 13.9637 9.29832 13.5047L2.83575 9.62717C2.85324 9.57042 2.87315 9.52444 2.89512 9.48322C2.95013 9.38002 3.03814 9.26997 3.24048 9.10589C3.45498 8.93193 3.7483 8.73547 4.19662 8.43659L4.24903 8.40166L4.24902 6.59888Z" fill="#141B34"/>
<path fill-rule="evenodd" clip-rule="evenodd" d="M9.25 10C9.25 10.4142 9.58579 10.75 10 10.75H14C14.4142 10.75 14.75 10.4142 14.75 10C14.75 9.58579 14.4142 9.25 14 9.25H10C9.58579 9.25 9.25 9.58579 9.25 10ZM9.25 6C9.25 6.41421 9.58579 6.75 10 6.75H14C14.4142 6.75 14.75 6.41421 14.75 6C14.75 5.58579 14.4142 5.25 14 5.25H10C9.58579 5.25 9.25 5.58579 9.25 6Z" fill="#141B34"/>
<path d="M15.052 1.25H8.948C8.04955 1.24997 7.30029 1.24995 6.70552 1.32992C6.07773 1.41432 5.51093 1.59999 5.05546 2.05546C4.59999 2.51093 4.41432 3.07773 4.32992 3.70552C4.24995 4.30029 4.24997 5.04949 4.25 5.94794L4.25 10.4757L5.75 11.3757V6C5.75 5.03599 5.7516 4.38843 5.81654 3.9054C5.87858 3.44393 5.9858 3.24644 6.11612 3.11612C6.24644 2.9858 6.44393 2.87858 6.9054 2.81654C7.38843 2.7516 8.03599 2.75 9 2.75H15C15.964 2.75 16.6116 2.7516 17.0946 2.81654C17.5561 2.87858 17.7536 2.9858 17.8839 3.11612C18.0142 3.24644 18.1214 3.44393 18.1835 3.9054C18.2484 4.38843 18.25 5.03599 18.25 6V11.375L19.75 10.475L19.75 5.94801C19.75 5.04954 19.7501 4.3003 19.6701 3.70552C19.5857 3.07773 19.4 2.51093 18.9445 2.05546C18.4891 1.59999 17.9223 1.41432 17.2945 1.32992C16.6997 1.24995 15.9505 1.24997 15.052 1.25Z" fill="#141B34"/>
</svg>
