<svg width="24" height="24" viewBox="0 0 24 24" fill="none" xmlns="http://www.w3.org/2000/svg">
<path opacity="0.4" fill-rule="evenodd" clip-rule="evenodd" d="M2.25 6.5L2.25 17.1613C2.25 18.2817 3.06734 19.0268 4.07333 19.6305C5.09172 20.2416 6.80103 20.9637 8.69413 21.7633C10.1132 22.3633 11.028 22.75 12 22.75C12.972 22.75 13.8868 22.3633 15.3058 21.7634L15.3059 21.7633C17.1989 20.9637 18.9083 20.2416 19.9267 19.6305C20.9327 19.0268 21.75 18.2817 21.75 17.1613L21.75 6.5C21.75 6.49999 21.75 6.49998 21.75 6.49996C21.75 5.70416 21.1847 5.21593 20.7346 4.91825C20.285 4.62095 19.646 4.3183 18.9213 3.97503L18.9212 3.975L16.0069 2.5944L15.8091 2.50063C14.2445 1.75846 13.1725 1.24996 12 1.24996C10.8275 1.24996 9.75551 1.75846 8.19088 2.50063L7.99309 2.59441L5.14491 3.94369L5.07878 3.97502C4.35402 4.31828 3.715 4.62095 3.26541 4.91825C2.81527 5.21593 2.25 5.70416 2.25 6.49996C2.25 6.49998 2.25 6.49999 2.25 6.5ZM8.84245 4.31288C10.6847 3.44014 11.3303 3.15905 12 3.15905C12.613 3.15905 13.2059 3.39458 14.7148 4.10383L7.06862 7.84671L5.99428 7.33776C5.18359 6.9537 4.6757 6.71039 4.35735 6.49996C4.6757 6.28953 5.18359 6.04622 5.99428 5.66216L8.84245 4.31288ZM9.2852 8.8961L16.9314 5.15321L18.0057 5.66216C18.8164 6.04622 19.3243 6.28953 19.6427 6.49996C19.3243 6.71039 18.8164 6.95371 18.0057 7.33776L15.1575 8.68705C13.3153 9.55979 12.6697 9.84087 12 9.84087C11.387 9.84087 10.7941 9.60535 9.2852 8.8961Z" fill="#141B34"/>
<path fill-rule="evenodd" clip-rule="evenodd" d="M5.32934 11.6646C5.51459 11.2941 5.96509 11.144 6.33557 11.3292L8.33557 12.3292C8.70606 12.5145 8.85623 12.965 8.67098 13.3355C8.48574 13.7059 8.03524 13.8561 7.66475 13.6709L5.66475 12.6709C5.29427 12.4856 5.1441 12.0351 5.32934 11.6646Z" fill="#141B34"/>
<path d="M7.06836 7.84664L14.7145 4.10376L16.9311 5.15315L9.28495 8.89603L7.06836 7.84664Z" fill="#141B34"/>
</svg>
