<svg width="24" height="24" viewBox="0 0 24 24" fill="none" xmlns="http://www.w3.org/2000/svg">
<path opacity="0.4" d="M8.31125 8.31966C7.45507 9.65764 7.11223 10.2063 6.93476 10.817C6.75688 11.429 6.75002 12.0865 6.75002 13.6944V22C6.75002 22.4142 6.41423 22.75 6.00002 22.75C5.5858 22.75 5.25002 22.4142 5.25002 22L5.25001 13.576C5.24984 12.1234 5.24973 11.2401 5.49436 10.3984C5.73937 9.55532 6.21115 8.81825 6.9846 7.60989L9.73425 3.31295C10.0847 2.7652 10.3917 2.28538 10.683 1.9496C10.9891 1.59664 11.4064 1.25 12 1.25C12.5936 1.25 13.0109 1.59664 13.3171 1.9496C13.6084 2.28539 13.9153 2.7652 14.2658 3.31296L17.0154 7.6099C17.7889 8.81825 18.2607 9.55532 18.5057 10.3984C18.7503 11.2401 18.7502 12.1234 18.75 13.576L18.75 22C18.75 22.4142 18.4142 22.75 18 22.75C17.5858 22.75 17.25 22.4142 17.25 22V13.6944C17.25 12.0865 17.2432 11.429 17.0653 10.817C16.8878 10.2063 16.545 9.65764 15.6888 8.31966L14.1919 5.9805C14.1 5.83688 13.9413 5.75 13.7708 5.75H10.2292C10.0587 5.75 9.9 5.83688 9.80809 5.9805L8.31125 8.31966Z" fill="#141B34"/>
<path d="M11.25 11.2236C11.25 10.8743 11.25 10.6996 11.119 10.6103C10.9881 10.521 10.8371 10.5802 10.5352 10.6986C10.392 10.7547 10.2582 10.8123 10.1342 10.8658L10.0745 10.8915C9.55075 11.1165 9.18139 11.2609 8.75657 11.2493C8.44747 11.2408 8.08217 11.1318 7.65971 10.951C7.45346 10.8628 7.24797 10.764 7.03889 10.6618L6.94433 10.6155C6.76995 10.53 6.58941 10.4414 6.41991 10.3652C6.20904 10.2702 5.96619 10.2779 5.76173 10.3859C5.55728 10.494 5.41408 10.6902 5.37364 10.9179C5.24991 11.6146 5.24995 12.4266 5.25 13.6168L5.25 21.9999C5.25 22.4141 5.58579 22.7499 6 22.7499H10.65C10.9328 22.7499 11.0743 22.7499 11.1621 22.662C11.25 22.5742 11.25 22.4327 11.25 22.1499L11.25 11.2236Z" fill="#141B34"/>
<path d="M12.75 22.1499C12.75 22.4327 12.75 22.5742 12.8379 22.662C12.9257 22.7499 13.0672 22.7499 13.35 22.7499H18C18.4142 22.7499 18.75 22.4141 18.75 21.9999L18.75 13.6167C18.7501 12.4265 18.7501 11.6146 18.6264 10.9179C18.5859 10.6902 18.4427 10.494 18.2383 10.3859C18.0338 10.2779 17.791 10.2702 17.5801 10.3652C17.4106 10.4414 17.2301 10.53 17.0557 10.6155L16.9611 10.6618C16.752 10.764 16.5466 10.8628 16.3403 10.951C15.9178 11.1318 15.5525 11.2408 15.2434 11.2493C14.8186 11.2609 14.4493 11.1165 13.9255 10.8915L13.8658 10.8658C13.7418 10.8123 13.608 10.7547 13.4648 10.6985C13.1629 10.5802 13.0119 10.521 12.881 10.6103C12.75 10.6996 12.75 10.8742 12.75 11.2236L12.75 22.1499Z" fill="#141B34"/>
</svg>
