<svg width="24" height="24" viewBox="0 0 24 24" fill="none" xmlns="http://www.w3.org/2000/svg">
<path opacity="0.4" d="M20.2033 14.647C21.0752 14.479 21.5111 14.395 21.6606 14.5463C21.6782 14.5641 21.6891 14.5772 21.7034 14.5977C21.8254 14.772 21.6974 15.1004 21.4414 15.7573C19.9607 19.5573 16.2657 22.25 11.9417 22.25C6.313 22.25 1.75 17.687 1.75 12.0582C1.75 7.73431 4.44269 4.03928 8.24269 2.55853C8.89947 2.30261 9.22786 2.17465 9.40211 2.29656C9.42264 2.31092 9.43574 2.32185 9.45357 2.33945C9.60489 2.48888 9.52088 2.9248 9.35287 3.79663C9.20681 4.55454 9.20711 5.44239 9.20739 6.24922C9.20757 6.77036 9.20752 7.2915 9.20747 7.81264C9.20744 8.06101 9.20742 8.30938 9.20742 8.55775L9.20741 8.63425C9.2073 9.48139 9.20719 10.3242 9.3015 11.0256C9.40887 11.8243 9.67386 12.7624 10.4557 13.5442C11.2375 14.326 12.1756 14.591 12.9743 14.6984C13.6754 14.7927 14.5177 14.7926 15.3643 14.7925C15.3903 14.7925 15.4162 14.7925 15.4421 14.7925L17.6603 14.7925C17.6903 14.7925 17.7203 14.7925 17.7505 14.7925C18.5574 14.7928 19.4453 14.7931 20.2033 14.647Z" fill="#141B34"/>
<path d="M15.6832 2.39975L15.6186 2.37296C14.9933 2.1138 14.4114 1.87262 13.8721 1.78583C13.2435 1.68468 12.6693 1.78694 12.0723 2.15558C12.024 2.18546 11.9524 2.23328 11.9063 2.26655C11.2956 2.70707 11.0024 3.28271 10.8692 3.9741C10.7499 4.59329 10.7499 5.3623 10.75 6.2477L10.75 8.47858C10.75 9.39403 10.75 10.156 10.8312 10.7607C10.917 11.3984 11.1053 11.9721 11.5661 12.4329C12.0269 12.8937 12.6006 13.082 13.2383 13.1677C13.8429 13.249 14.6049 13.249 15.5203 13.249L17.7513 13.249C18.6367 13.249 19.4057 13.2491 20.0249 13.1298C20.7163 12.9965 21.2919 12.7034 21.7324 12.0927C21.7657 12.0466 21.8135 11.975 21.8434 11.9266C22.212 11.3296 22.3143 10.7555 22.2131 10.1269C22.1263 9.58753 21.8852 9.00563 21.626 8.38035L21.5992 8.31572C21.0499 6.98948 20.2447 5.78442 19.2296 4.76935C18.2145 3.75429 17.0095 2.9491 15.6832 2.39975Z" fill="#141B34"/>
</svg>
