<svg width="24" height="24" viewBox="0 0 24 24" fill="none" xmlns="http://www.w3.org/2000/svg">
<path opacity="0.4" d="M13.9405 6.33706C15.5735 7.26475 16.8567 7.99375 17.7709 8.66154C18.6913 9.33392 19.3721 10.0367 19.6159 10.9632C19.7947 11.6427 19.7947 12.3574 19.6159 13.0369C19.3721 13.9634 18.6913 14.6662 17.7709 15.3386C16.8567 16.0064 15.5735 16.7354 13.9406 17.663L13.9406 17.663C12.3632 18.5592 11.033 19.3149 10.0232 19.7444C9.0053 20.1774 8.07729 20.3968 7.17536 20.1412C6.51252 19.9534 5.90941 19.5969 5.42356 19.1067C4.76419 18.4414 4.49951 17.522 4.37429 16.4154C4.24998 15.317 4.24999 13.879 4.25 12.0502V12.0502V11.95V11.95C4.24999 10.1211 4.24998 8.68315 4.37429 7.5847C4.49951 6.47816 4.76419 5.55867 5.42356 4.89341C5.90941 4.40323 6.51252 4.04672 7.17536 3.8589C8.07729 3.60331 9.0053 3.82275 10.0232 4.25571C11.033 4.68522 12.3632 5.4409 13.9405 6.33706Z" fill="#141B34"/>
<path d="M17.7708 8.6618C18.6913 9.33417 19.372 10.037 19.6159 10.9635C19.7947 11.643 19.7947 12.3577 19.6159 13.0372C19.372 13.9637 18.6913 14.6665 17.7708 15.3388C16.8567 16.0066 15.5735 16.7356 13.9406 17.6633L13.9406 17.6633C12.3632 18.5595 11.033 19.3152 10.0232 19.7447C9.00527 20.1776 8.07727 20.3971 7.17533 20.1415C6.5125 19.9537 5.90939 19.5971 5.42354 19.107C4.76416 18.4417 4.49949 17.5222 4.37426 16.4157C4.2984 15.7453 4.26884 14.9486 4.25732 14.0137L16.105 7.58496C16.7528 7.97136 17.3089 8.32439 17.7708 8.6618Z" fill="#141B34"/>
</svg>
