<svg width="24" height="24" viewBox="0 0 24 24" fill="none" xmlns="http://www.w3.org/2000/svg">
<path opacity="0.4" d="M12.0436 3.25C13.6463 3.24999 14.9086 3.24998 15.913 3.35586C16.9399 3.4641 17.7833 3.68971 18.5113 4.19945C19.0129 4.55072 19.4493 4.98706 19.8005 5.48872C20.3103 6.21671 20.5359 7.06008 20.6441 8.08697C20.75 9.0914 20.75 10.3537 20.75 11.9564V12.0436C20.75 13.6463 20.75 14.9086 20.6441 15.913C20.5359 16.9399 20.3103 17.7833 19.8005 18.5113C19.4493 19.0129 19.0129 19.4493 18.5113 19.8005C17.7833 20.3103 16.9399 20.5359 15.913 20.6441C14.9086 20.75 13.6463 20.75 12.0436 20.75H11.9564C10.3537 20.75 9.0914 20.75 8.08697 20.6441C7.06008 20.5359 6.21671 20.3103 5.48872 19.8005C4.98706 19.4493 4.55072 19.0129 4.19945 18.5113C3.68971 17.7833 3.4641 16.9399 3.35586 15.913C3.24998 14.9086 3.24999 13.6463 3.25 12.0436V11.9564C3.24999 10.3537 3.24998 9.0914 3.35586 8.08697C3.4641 7.06008 3.68971 6.21671 4.19945 5.48872C4.55072 4.98706 4.98706 4.55072 5.48872 4.19945C6.21671 3.68971 7.06008 3.4641 8.08697 3.35586C9.0914 3.24998 10.3537 3.24999 11.9564 3.25H12.0436Z" fill="#141B34"/>
<path d="M19.8006 5.48912C20.3103 6.2171 20.5359 7.06048 20.6442 8.08736C20.75 9.09179 20.75 10.3541 20.75 11.9568V12.044C20.75 13.6467 20.75 14.909 20.6442 15.9134C20.5359 16.9403 20.3103 17.7837 19.8006 18.5117C19.4493 19.0133 19.013 19.4497 18.5113 19.8009C17.7833 20.3107 16.9399 20.5363 15.9131 20.6445C14.9086 20.7504 13.6463 20.7504 12.0437 20.7504H11.9564C10.3537 20.7504 9.09143 20.7504 8.087 20.6445C7.06011 20.5363 6.21674 20.3107 5.48875 19.8009C5.23792 19.6253 5.00342 19.4284 4.78772 19.2127L19.2123 4.78809C19.428 5.00379 19.6249 5.23829 19.8006 5.48912Z" fill="#141B34"/>
</svg>
