<svg width="24" height="24" viewBox="0 0 24 24" fill="none" xmlns="http://www.w3.org/2000/svg">
<path d="M21.0133 13.5115C19.7247 14.7998 17.3001 14.7497 13.5824 14.7497C11.1907 14.7497 9.25149 12.8077 9.25026 10.4159C9.25026 6.70085 9.20016 4.27487 10.4887 2.9865C11.7773 1.69813 12.3464 1.75029 18.0547 1.75029C18.6063 1.74793 18.8839 2.41505 18.4939 2.80511L15.5549 5.7444C14.8089 6.49048 14.8068 7.70002 15.5529 8.446C16.299 9.19198 17.5086 9.19206 18.2548 8.44618L21.1947 5.5076C21.5848 5.11764 22.2521 5.39523 22.2497 5.94678C22.2497 11.6541 22.3018 12.2231 21.0133 13.5115Z" fill="#141B34"/>
<path opacity="0.4" d="M11.9878 17.0727C12.3515 16.709 12.5334 16.5271 12.4964 16.3654C12.4594 16.2037 12.1938 16.111 11.6626 15.9257C9.98645 15.3409 8.65922 14.012 8.07463 12.3361C7.88945 11.8052 7.79685 11.5398 7.63513 11.5028C7.47341 11.4658 7.29162 11.6475 6.92806 12.0111L2.7981 16.1411C1.40063 17.5385 1.40063 19.8043 2.7981 21.2017C4.19556 22.5992 6.46129 22.5992 7.85876 21.2017L11.9878 17.0727Z" fill="#141B34"/>
<path fill-rule="evenodd" clip-rule="evenodd" d="M4.25 18.5C4.25 17.8096 4.80715 17.25 5.49442 17.25H5.50558C6.19285 17.25 6.75 17.8096 6.75 18.5C6.75 19.1904 6.19285 19.75 5.50558 19.75H5.49442C4.80715 19.75 4.25 19.1904 4.25 18.5Z" fill="#141B34"/>
</svg>
