<svg width="24" height="25" viewBox="0 0 24 25" fill="none" xmlns="http://www.w3.org/2000/svg">
<path opacity="0.4" d="M7.52522 8.84988C8.95364 8.78422 10.4042 8.75 12 8.75C13.5958 8.75 15.0464 8.78422 16.4748 8.84989C18.5328 8.9445 20.2039 10.5382 20.4755 12.5552C20.6236 13.6556 20.75 14.8118 20.75 16C20.75 17.1882 20.6236 18.3444 20.4755 19.4448C20.2039 21.4618 18.5328 23.0555 16.4748 23.1501C15.0464 23.2158 13.5958 23.25 12 23.25C10.4042 23.25 8.95364 23.2158 7.52522 23.1501C5.46716 23.0555 3.79609 21.4618 3.52452 19.4448C3.37636 18.3444 3.25 17.1882 3.25 16C3.25 14.8118 3.37636 13.6556 3.52452 12.5552C3.79609 10.5382 5.46716 8.9445 7.52522 8.84988Z" fill="#141B34"/>
<path fill-rule="evenodd" clip-rule="evenodd" d="M10.5 16C10.5 15.1716 11.1686 14.5 11.9933 14.5H12.0067C12.8314 14.5 13.5 15.1716 13.5 16C13.5 16.8284 12.8314 17.5 12.0067 17.5H11.9933C11.1686 17.5 10.5 16.8284 10.5 16Z" fill="#141B34"/>
<path d="M8.5 7.25C8.5 5.317 10.067 3.75 12 3.75C13.4381 3.75 14.6563 4.88122 15.0513 6.06623C15.226 6.59017 15.7923 6.87333 16.3162 6.69868C16.8402 6.52404 17.1233 5.95772 16.9487 5.43377C16.3437 3.61878 14.4806 1.75 12 1.75C8.96243 1.75 6.5 4.21243 6.5 7.25V9.02712C6.82676 8.92712 7.17023 8.8662 7.52522 8.84988C7.84854 8.83502 8.17299 8.82177 8.5 8.81016V7.25Z" fill="#141B34"/>
</svg>
