<svg width="24" height="24" viewBox="0 0 24 24" fill="none" xmlns="http://www.w3.org/2000/svg">
<path fill-rule="evenodd" clip-rule="evenodd" d="M1 4.00032C1 3.44803 1.44772 3.00032 2 3.00032H6C6.55228 3.00032 7 3.44803 7 4.00032V10.0003C7 10.2655 6.89464 10.5199 6.70711 10.7074C6.51957 10.895 6.26522 11.0003 6 11.0003L2 11.0003C1.44772 11.0003 1 10.5526 1 10.0003V4.00032ZM3 5.00032V9.00032L5 9.00032V5.00032H3Z" fill="#141B34"/>
<path fill-rule="evenodd" clip-rule="evenodd" d="M12.5 4.00032C12.5 3.44803 12.9477 3.00032 13.5 3.00032H17.5C18.0523 3.00032 18.5 3.44803 18.5 4.00032V10.0003C18.5 10.2655 18.3946 10.5199 18.2071 10.7074C18.0196 10.895 17.7652 11.0003 17.5 11.0003L13.5 11.0003C12.9477 11.0003 12.5 10.5526 12.5 10.0003V4.00032ZM14.5 5.00032V9.00032L16.5 9.00032V5.00032H14.5Z" fill="#141B34"/>
<path fill-rule="evenodd" clip-rule="evenodd" d="M11.5 3.00032V11.0003H9.5V7.00032L9.1 7.30032L7.9 5.70032L11.5 3.00032Z" fill="#141B34"/>
<path fill-rule="evenodd" clip-rule="evenodd" d="M23 3V11.0003H21V7L20.6 7.3L19.4 5.7L23 3Z" fill="#141B34"/>
<path fill-rule="evenodd" clip-rule="evenodd" d="M12.4995 14.0007C12.4995 13.4484 12.9472 13.0007 13.4995 13.0007H17.4995C18.0518 13.0007 18.4995 13.4484 18.4995 14.0007V20.0007C18.4995 20.2659 18.3942 20.5203 18.2066 20.7078C18.0191 20.8953 17.7647 21.0007 17.4995 21.0007L13.4995 21.0007C12.9472 21.0007 12.4995 20.553 12.4995 20.0007V14.0007ZM14.4995 15.0007V19.0007L16.4995 19.0007V15.0007H14.4995Z" fill="#141B34"/>
<path fill-rule="evenodd" clip-rule="evenodd" d="M5.49953 14.0007C5.49953 13.4484 5.94725 13.0007 6.49953 13.0007H10.4995C11.0518 13.0007 11.4995 13.4484 11.4995 14.0007V20.0007C11.4995 20.2659 11.3942 20.5203 11.2066 20.7078C11.0191 20.8953 10.7647 21.0007 10.4995 21.0007L6.49953 21.0007C5.94725 21.0007 5.49953 20.553 5.49953 20.0007V14.0007ZM7.49953 15.0007V19.0007L9.49953 19.0007V15.0007H7.49953Z" fill="#141B34"/>
<path fill-rule="evenodd" clip-rule="evenodd" d="M4.49953 13.0006V21.0007H2.49953V16.3833L1.98148 16.6683L1.01758 14.9159L4.49953 13.0006Z" fill="#141B34"/>
<path fill-rule="evenodd" clip-rule="evenodd" d="M22.9995 13V21.0007H20.9995V16.7723L20.6242 17.0726L19.3748 15.5109L22.9995 13Z" fill="#141B34"/>
</svg>
