<svg width="24" height="24" viewBox="0 0 24 24" fill="none" xmlns="http://www.w3.org/2000/svg">
<path d="M20.2763 1.25C20.8141 1.25 21.25 1.68754 21.25 2.22727V13.0682H19.3026V3.20455L11.5132 3.20455L11.5132 10.0455H4.69737L4.69737 13.0682H2.75V8.66338L10.1362 1.25H20.2763Z" fill="#141B34"/>
<path fill-rule="evenodd" clip-rule="evenodd" d="M16.7233 15.0342L18.5344 19.8638L20.3455 15.0342L21.75 15.5609L19.2367 22.2631C19.1269 22.5558 18.847 22.7498 18.5344 22.7498C18.2218 22.7498 17.9419 22.5558 17.8322 22.2631L15.3188 15.5609L16.7233 15.0342ZM9.17584 15.9998C9.17584 15.5856 9.51162 15.2498 9.92584 15.2498H13.7143V16.7498H10.6758V18.2498H12.9643C13.3785 18.2498 13.7143 18.5856 13.7143 18.9998V21.9998C13.7143 22.414 13.3785 22.7498 12.9643 22.7498H9.17584V21.2498H12.2143V19.7498H9.92584C9.51162 19.7498 9.17584 19.414 9.17584 18.9998V15.9998ZM2.25 15.2498H7C7.41421 15.2498 7.75 15.5856 7.75 15.9998V17.4998H6.25V16.7498H3.75V21.2498H6.25V20.4998H7.75V21.9998C7.75 22.414 7.41421 22.7498 7 22.7498H2.25V15.2498Z" fill="#141B34"/>
</svg>
