<svg width="24" height="24" viewBox="0 0 24 24" fill="none" xmlns="http://www.w3.org/2000/svg">
<path d="M20.25 2.22727C20.25 1.68754 19.8141 1.25 19.2763 1.25H9.13616L1.75 8.66338V21.7727C1.75 22.3125 2.18593 22.75 2.72368 22.75H9.51306V20.7955H3.69727V10.0455H10.5131L10.5131 3.20459H18.3025V12H20.25V2.22727Z" fill="#141B34"/>
<path fill-rule="evenodd" clip-rule="evenodd" d="M17.052 15.8389C15.6097 15.4671 14.1767 16.3004 13.8111 17.6131L13.6074 18.3448H11.9759L10.4868 15.675L12.2335 14.7008L12.6829 15.5066C13.7963 14.1019 15.7074 13.4269 17.5513 13.9023C18.8078 14.2262 19.8153 15.025 20.4094 16.058L18.6757 17.0551C18.347 16.4837 17.7818 16.0271 17.052 15.8389ZM19.1136 18.1561H20.8655L22.2499 20.8549L20.4704 21.7678L20.0596 20.9669C18.9494 22.3903 17.0255 23.0772 15.1696 22.5987C13.9424 22.2823 12.9526 21.5128 12.3536 20.5146L14.0686 19.4855C14.4002 20.0383 14.956 20.4783 15.6689 20.6621C17.1112 21.0339 18.5443 20.2005 18.9098 18.8879L19.1136 18.1561Z" fill="#141B34"/>
</svg>
