<svg width="24" height="24" viewBox="0 0 24 24" fill="none" xmlns="http://www.w3.org/2000/svg">
<path fill-rule="evenodd" clip-rule="evenodd" d="M11.9978 1.25C10.0554 1.25 8.53468 2.08008 7.19231 2.8128L7.14156 2.8405C5.74911 3.60038 4.53759 4.2476 3.01188 4.2476H2.41764L2.28175 4.82563C0.212171 13.6288 4.34739 21.1096 11.8404 22.7163L11.9978 22.75L12.1552 22.7163C19.6482 21.1096 23.7835 13.6288 21.7139 4.82563L21.578 4.2476H20.9838C19.4604 4.2476 18.2527 3.60075 16.8611 2.84064L16.8156 2.81581C15.4722 2.08191 13.9495 1.25 11.9978 1.25ZM10.998 7V10H12.998V7H10.998Z" fill="#141B34"/>
</svg>
