<svg width="24" height="24" viewBox="0 0 24 24" fill="none" xmlns="http://www.w3.org/2000/svg">
<path d="M19.0643 12.7165C19.4806 12.4084 20.0781 12.0773 20.743 12.3483C21.414 12.6218 21.6016 13.2815 21.675 13.7922C21.7502 14.3157 21.7501 15.0232 21.7501 15.8559V15.8559V19.1428V19.1428C21.7501 19.9755 21.7502 20.683 21.675 21.2065C21.6016 21.7172 21.414 22.377 20.743 22.6504C20.0781 22.9214 19.4806 22.5903 19.0643 22.2822C18.6362 21.9653 18.1286 21.4658 17.5293 20.8761C17.2263 20.578 17.007 20.4193 16.8499 20.3571C16.689 20.2935 16.4761 20.2582 16.0418 20.2582H16.0417C15.6613 20.2582 15.2879 20.2583 15.0086 20.2303C14.709 20.2003 14.3968 20.1322 14.1066 19.9415C13.5701 19.5887 13.3678 19.0676 13.2933 18.6207C13.2383 18.2914 13.2464 17.761 13.2506 17.4994C13.2464 17.2378 13.2383 16.7073 13.2933 16.378C13.3678 15.9311 13.5701 15.41 14.1066 15.0573C14.3968 14.8665 14.709 14.7984 15.0086 14.7684C15.2879 14.7404 15.6613 14.7405 16.0418 14.7405C16.4761 14.7405 16.689 14.7052 16.8499 14.6416C17.007 14.5795 17.2263 14.4207 17.5293 14.1226L17.5293 14.1226C18.1286 13.5329 18.6362 13.0334 19.0643 12.7165Z" fill="#141B34"/>
<path opacity="0.4" d="M6.93645 22.6467C7.9187 22.7495 10.4815 22.7495 12.0226 22.7495C12.5624 22.7495 12.9999 22.3119 12.9999 21.7722C12.9999 21.2325 12.5624 20.7949 12.0226 20.7949C10.414 20.7949 8.00775 20.7936 7.1383 20.7027C6.28438 20.6133 5.80046 20.4466 5.44263 20.1935C5.20117 20.0228 4.9888 19.8217 4.811 19.5973C4.55544 19.2749 4.386 18.8421 4.29376 18.0553C4.19884 17.2455 4.19726 16.1882 4.19726 14.6647L4.19717 11.7645C4.19716 11.4975 4.19733 10.859 4.47795 10.3868C4.65088 10.0958 4.8723 9.85271 5.09975 9.72889C5.46626 9.52937 5.88645 9.41601 6.33312 9.41601L7.37349 9.4525C7.75358 9.46039 8.19712 9.44839 8.62527 9.33366C9.45924 9.1102 10.1106 8.45879 10.3341 7.62482C10.4488 7.19667 10.4608 6.75313 10.4529 6.37304L10.4165 5.33268C10.4165 4.86498 10.5408 4.45785 10.7582 4.07944C10.8849 3.85885 11.1056 3.65697 11.4104 3.47965C11.8725 3.21074 12.4259 3.20825 12.7641 3.20673C13.1022 3.2052 13.459 3.20403 13.7571 3.20403C15.5912 3.20403 16.2583 3.21799 16.7617 3.39534C17.6343 3.70279 18.3 4.34444 18.6101 5.1298C18.6877 5.32644 18.7426 5.58486 18.772 6.03281C18.802 6.48949 18.8025 7.07243 18.8025 7.91269V10.0258C18.8025 10.5635 19.2385 10.9995 19.7762 10.9995C20.314 10.9995 20.7499 10.5635 20.7499 10.0258V7.87951C20.7499 7.08035 20.7499 6.4328 20.7152 5.90421C20.6794 5.35959 20.6038 4.87391 20.4205 4.40975C19.8917 3.07045 18.7833 2.03617 17.4067 1.55117C16.5479 1.24858 15.0758 1.24897 13.5208 1.24952C10.6812 1.24916 8.99455 1.24895 7.61212 1.73602C5.39212 2.5182 3.61839 4.18094 2.77499 6.317C2.49388 7.02896 2.36935 7.79367 2.3091 8.71052C2.2499 9.61122 2.24991 10.7239 2.24991 12.1421V12.1422V14.7256C2.24989 16.1737 2.24987 17.3464 2.35975 18.2837C2.47387 19.2571 2.71712 20.095 3.28695 20.8141C3.58213 21.1865 3.93068 21.5153 4.32104 21.7914C5.06581 22.318 5.92703 22.5411 6.93645 22.6467Z" fill="#141B34"/>
</svg>
