<svg width="24" height="24" viewBox="0 0 24 24" fill="none" xmlns="http://www.w3.org/2000/svg">
<path opacity="0.4" d="M6.93703 22.6472C7.91928 22.75 9.4821 22.75 11.0232 22.75C11.5629 22.75 12.0005 22.3124 12.0005 21.7727C12.0005 21.233 11.5629 20.7954 11.0232 20.7954C9.41458 20.7954 8.00833 20.7941 7.13888 20.7032C6.28496 20.6138 5.80104 20.4471 5.44321 20.194C5.20175 20.0233 4.98938 19.8222 4.81158 19.5978C4.55602 19.2753 4.38658 18.8425 4.29434 18.0558C4.19942 17.246 4.19784 16.1887 4.19784 14.6652L4.19775 11.765C4.19774 11.498 4.19791 10.8595 4.47853 10.3873C4.65146 10.0963 4.87288 9.8532 5.10033 9.72938C5.46684 9.52986 5.88703 9.4165 6.3337 9.4165L7.37407 9.45299C7.75416 9.46088 8.1977 9.44887 8.62585 9.33415C9.45982 9.11069 10.1112 8.45928 10.3347 7.62531C10.4494 7.19716 10.4614 6.75362 10.4535 6.37353L10.417 5.33316C10.417 4.86547 10.5414 4.45834 10.7588 4.07993C10.8855 3.85934 11.1062 3.65745 11.411 3.48014C11.8731 3.21123 12.4265 3.20874 12.7647 3.20722C13.1028 3.20569 13.4596 3.20452 13.7576 3.20452C15.5918 3.20452 16.2589 3.21847 16.7623 3.39582C17.6349 3.70328 18.3006 4.34492 18.6107 5.13029C18.6883 5.32693 18.7432 5.58535 18.7726 6.0333C18.8026 6.48997 18.8031 7.07292 18.8031 7.91318V11.0263C18.8031 11.564 19.239 12 19.7768 12C20.3146 12 20.7505 11.564 20.7505 11.0263V7.88C20.7505 7.08084 20.7505 6.43328 20.7158 5.9047C20.68 5.36007 20.6044 4.8744 20.4211 4.41024C19.8923 3.07093 18.7838 2.03666 17.4073 1.55166C16.5485 1.24907 15.0764 1.24946 13.5214 1.25C10.6818 1.24964 8.99513 1.24943 7.6127 1.73651C5.3927 2.51869 3.61897 4.18143 2.77557 6.31749C2.49446 7.02945 2.36993 7.79416 2.30968 8.711C2.25048 9.61171 2.25049 10.7243 2.25049 12.1426V12.1426V14.7261C2.25047 16.1742 2.25045 17.3469 2.36033 18.2842C2.47445 19.2576 2.7177 20.0955 3.28753 20.8145C3.58271 21.187 3.93126 21.5158 4.32162 21.7919C5.06639 22.3185 5.92761 22.5416 6.93703 22.6472Z" fill="#141B34"/>
<path d="M14.3233 12.8228C14.9094 12.5343 15.6187 12.25 16.4996 12.25C17.3806 12.25 18.0901 12.5343 18.6764 12.8227C18.871 12.9184 19.0417 13.0079 19.1985 13.09C19.5522 13.2754 19.835 13.4236 20.1597 13.522C20.3636 13.5837 20.5703 13.6463 20.7148 13.7001C20.8406 13.7469 21.0679 13.8359 21.2429 14.0207C21.3979 14.1843 21.472 14.3642 21.5151 14.5078C21.5512 14.6276 21.5817 14.789 21.6042 14.9077C22.2243 18.174 20.8597 21.3182 17.5207 22.5327C17.2137 22.6445 16.9239 22.75 16.5012 22.75C16.0785 22.75 15.7887 22.6445 15.4816 22.5327C12.1427 21.3183 10.7766 18.1743 11.3966 14.9077C11.4191 14.7891 11.4496 14.6277 11.4856 14.5079C11.5288 14.3643 11.6029 14.1844 11.7578 14.0208C11.9328 13.8361 12.1601 13.747 12.2859 13.7002C12.4304 13.6464 12.6371 13.5838 12.841 13.522C13.1655 13.4236 13.4479 13.2755 13.8014 13.0902C13.9581 13.008 14.1288 12.9185 14.3233 12.8228Z" fill="#141B34"/>
</svg>
