<svg width="24" height="24" viewBox="0 0 24 24" fill="none" xmlns="http://www.w3.org/2000/svg">
<path opacity="0.4" d="M3.72356 13.75C4.26131 13.75 4.69725 13.3195 4.69725 12.7885L4.69726 11.7652C4.69725 11.4982 4.69742 10.8596 4.97804 10.3875C5.15097 10.0965 5.37238 9.85337 5.59983 9.72955C5.96635 9.53003 6.38654 9.41667 6.83321 9.41667C6.98034 9.41667 7.13852 9.42314 7.31612 9.43138L7.38193 9.43446C7.53685 9.44174 7.70543 9.44966 7.87358 9.45315C8.25367 9.46105 8.69721 9.44904 9.12536 9.33432C9.95933 9.11086 10.6107 8.45945 10.8342 7.62548C10.9489 7.19733 10.9609 6.75379 10.953 6.3737C10.9495 6.20562 10.9416 6.03692 10.9343 5.88206L10.9313 5.81624C10.923 5.63864 10.9165 5.48046 10.9165 5.33333C10.9165 4.86564 11.0408 4.42698 11.2582 4.04857C11.3849 3.82798 11.6056 3.62609 11.9104 3.44878C12.3725 3.17987 12.9259 3.17738 13.2641 3.17585C13.6022 3.17433 13.959 3.17316 14.2571 3.17316C16.0913 3.17316 16.7581 3.18692 17.2613 3.36158C18.1336 3.66441 18.7996 4.29659 19.1099 5.07103C19.1877 5.26511 19.2426 5.52002 19.272 5.96153C19.302 6.41159 19.3025 6.98607 19.3025 7.81394V12.7885C19.3025 13.3195 19.7384 13.75 20.2762 13.75C20.8139 13.75 21.2499 13.3195 21.2499 12.7885V7.78121C21.2499 6.99374 21.2499 6.35586 21.2152 5.83514C21.1794 5.29867 21.1038 4.82043 20.9207 4.36341C20.3921 3.04443 19.284 2.02533 17.9071 1.54735C17.0481 1.24915 16.0154 1.24951 14.4606 1.25005L13.5133 1.25012L13.4999 1.25L13.4648 1.25015C10.9564 1.25185 9.40162 1.28168 8.11168 1.72949C5.89138 2.50027 4.11793 4.13859 3.27479 6.24261C2.99381 6.94378 2.8693 7.69695 2.80906 8.60017C2.74987 9.48756 2.74987 10.5838 2.74988 11.9814V12.7885C2.74988 13.3195 3.18581 13.75 3.72356 13.75Z" fill="#141B34"/>
<path d="M6.21211 16.7696C6.01579 16.7518 5.78758 16.7495 5.50499 16.7495C4.62257 16.7495 4.44169 16.8759 4.40075 16.9189C4.38643 16.9339 4.34255 16.9868 4.30617 17.1648C4.2682 17.3505 4.24994 17.6132 4.24994 17.9995V19.9995C4.24994 20.3858 4.2682 20.6485 4.30617 20.8343C4.34255 21.0122 4.38643 21.0651 4.40075 21.0802C4.44169 21.1232 4.62257 21.2495 5.50499 21.2495C5.78758 21.2495 6.01579 21.2473 6.21211 21.2294C6.4096 21.2115 6.52701 21.1812 6.5965 21.1504C6.65117 21.1262 6.66669 21.1068 6.67926 21.0859C6.69859 21.0538 6.7407 20.961 6.75075 20.745C6.77001 20.3313 7.12105 20.0115 7.53482 20.0307C7.94859 20.05 8.26839 20.401 8.24913 20.8148C8.23147 21.1941 8.14992 21.5513 7.96444 21.8594C7.77222 22.1788 7.50181 22.3899 7.20423 22.5218C6.68963 22.7498 6.04572 22.7497 5.54193 22.7495C4.70445 22.7495 3.84586 22.6728 3.31425 22.1143C3.04229 21.8286 2.9074 21.4812 2.83656 21.1347C2.76733 20.796 2.74994 20.4102 2.74994 19.9995V17.9995C2.74994 17.5888 2.76733 17.203 2.83656 16.8644C2.9074 16.5179 3.04229 16.1704 3.31425 15.8847C3.84586 15.3262 4.66751 15.2495 5.50499 15.2495C6.00877 15.2494 6.68964 15.2492 7.20424 15.4772C7.50182 15.6091 7.77222 15.8202 7.96444 16.1396C8.14992 16.4478 8.23147 16.805 8.24913 17.1842C8.26839 17.598 7.94858 17.949 7.53482 17.9683C7.12105 17.9876 6.77001 17.6678 6.75075 17.254C6.7407 17.0381 6.69859 16.9452 6.67926 16.9131C6.66669 16.8922 6.65116 16.8728 6.5965 16.8486C6.52701 16.8178 6.40961 16.7875 6.21211 16.7696Z" fill="#141B34"/>
<path d="M12.8758 15.2495C13.29 15.2495 13.6258 15.5853 13.6258 15.9995C13.6258 16.4137 13.29 16.7495 12.8758 16.7495H11.6949C11.4488 16.7495 11.3014 16.7499 11.1912 16.7573C10.9692 16.7632 10.9264 17.007 10.9327 17.1281V17.8709C10.9211 17.9945 10.9567 18.2417 11.1912 18.2417C11.3014 18.2491 11.4705 18.2495 11.7166 18.2495H11.7166C11.9339 18.2495 12.1327 18.2495 12.2995 18.2607C12.4784 18.2728 12.6741 18.3001 12.8728 18.3814C13.4247 18.6071 13.723 19.0171 13.857 19.4589C13.9656 19.817 13.9647 20.2503 13.9642 20.4995C13.9647 20.7487 13.9656 21.182 13.857 21.5401C13.723 21.9819 13.4247 22.3919 12.8728 22.6176C12.6741 22.6989 12.4784 22.7262 12.2995 22.7383C12.1327 22.7495 11.9339 22.7495 11.7166 22.7495L10.4087 22.7495C9.99453 22.7495 9.65874 22.4137 9.65874 21.9995C9.65874 21.5853 9.99453 21.2495 10.4087 21.2495H11.6949C11.941 21.2495 12.0885 21.2491 12.1987 21.2417C12.3983 21.2417 12.4542 20.9945 12.4572 20.8709V20.1281C12.4615 20.0045 12.4157 19.7573 12.1987 19.7573C12.0885 19.7499 11.941 19.7495 11.6949 19.7495H11.6949C11.4775 19.7495 11.2571 19.7495 11.0904 19.7383C10.9115 19.7262 10.7158 19.6989 10.517 19.6176C9.96515 19.3919 9.66688 18.9819 9.5329 18.5401C9.4243 18.182 9.42518 17.7487 9.42571 17.4995C9.42518 17.2503 9.4243 16.817 9.5329 16.4589C9.66688 16.0171 9.96515 15.6071 10.517 15.3814C10.7158 15.3002 10.9115 15.2728 11.0904 15.2607C11.2571 15.2495 11.4559 15.2495 11.6732 15.2495H11.6733H12.8758Z" fill="#141B34"/>
<path d="M15.1703 15.2983C15.5577 15.1516 15.9906 15.3468 16.1372 15.7342L17.9678 20.57L19.7984 15.7342C19.9451 15.3468 20.378 15.1516 20.7654 15.2983C21.1528 15.4449 21.3479 15.8778 21.2013 16.2652L19.4073 21.0045C19.2572 21.4011 19.1198 21.7643 18.9827 22.0238C18.9109 22.1597 18.8104 22.3248 18.666 22.4619C18.5059 22.614 18.2704 22.7497 17.9678 22.7497C17.6653 22.7497 17.4298 22.614 17.2697 22.4619C17.1253 22.3248 17.0248 22.1597 16.953 22.0238C16.8158 21.7643 16.6784 21.4011 16.5284 21.0045L14.7344 16.2652C14.5877 15.8778 14.7829 15.4449 15.1703 15.2983Z" fill="#141B34"/>
</svg>
