<svg width="24" height="24" viewBox="0 0 24 24" fill="none" xmlns="http://www.w3.org/2000/svg">
<path fill-rule="evenodd" clip-rule="evenodd" d="M22.5821 1.41789C22.9726 1.80842 22.9726 2.44158 22.5821 2.83211L20.1475 5.2667C19.9857 4.98056 19.7822 4.71028 19.5361 4.46422C19.29 4.21802 19.0196 4.01441 18.7333 3.85251L21.1679 1.41789C21.5584 1.02737 22.1916 1.02737 22.5821 1.41789ZM8.21185 16.8488C7.93058 16.786 7.68808 16.6312 7.53131 16.4758C7.37196 16.3179 7.21391 16.073 7.15077 15.7886L6.47837 16.461L2.43671 17.6735L2.40647 17.6825C2.22914 17.7356 2.03505 17.7938 1.87569 17.8646C1.6878 17.9481 1.46206 18.0844 1.30169 18.3419C1.14131 18.5994 1.11843 18.8621 1.12636 19.0675C1.13308 19.2418 1.16647 19.4417 1.19697 19.6242L1.20217 19.6554L1.44371 21.1046C1.50638 21.4806 1.57314 21.8637 1.85471 22.1453C2.13629 22.4269 2.51936 22.4936 2.89538 22.5563L4.34464 22.7978L4.37585 22.803L4.37587 22.803C4.55843 22.8335 4.75823 22.8669 4.93246 22.8736C5.1379 22.8816 5.40064 22.8587 5.6581 22.6983C5.91556 22.5379 6.05194 22.3122 6.13541 22.1243C6.20623 21.9649 6.26439 21.7707 6.31752 21.5934L6.31752 21.5933L6.32653 21.5633L7.53903 17.5216L8.21185 16.8488Z" fill="#141B34"/>
<g opacity="0.4">
<path d="M14.7299 4.07698C14.5192 4.22921 14.4138 4.30532 14.4028 4.44342C14.3917 4.58153 14.494 4.68378 14.6985 4.88829L19.1121 9.30197C19.3167 9.50651 19.4189 9.60878 19.5571 9.59771C19.6952 9.58664 19.7713 9.48125 19.9235 9.27048C20.9539 7.84367 20.8699 5.79813 19.5361 4.46422C18.2022 3.13016 16.1566 3.04628 14.7299 4.07698Z" fill="#141B34"/>
<path d="M17.6953 11.0261C17.9796 10.8389 18.1217 10.7453 18.1362 10.6035C18.1506 10.4618 18.0303 10.3414 17.7896 10.1007L13.8999 6.21109C13.6592 5.9704 13.5389 5.85005 13.3971 5.8645C13.2554 5.87894 13.1618 6.02109 12.9746 6.30538L7.31956 14.8935C6.90893 15.5171 7.2176 16.1649 7.53131 16.4758C7.84198 16.7837 8.48927 17.0892 9.10792 16.6818L17.6953 11.0261Z" fill="#141B34"/>
</g>
</svg>
