<svg width="24" height="24" viewBox="0 0 24 24" fill="none" xmlns="http://www.w3.org/2000/svg">
<path fill-rule="evenodd" clip-rule="evenodd" d="M16.5635 1.35276C15.5812 1.25 14.3484 1.25001 12.8073 1.25003H11.932C10.039 1.25001 8.52515 1.24999 7.33711 1.40088C6.11259 1.55639 5.08727 1.88708 4.26842 2.66059C3.44123 3.44199 3.07985 4.43383 2.91132 5.61793C2.74997 6.75159 2.75 8.19141 2.75003 9.97015V16.12C2.75002 16.9191 2.75002 17.5667 2.78476 18.0953C2.82055 18.6399 2.89616 19.1256 3.07943 19.5897C3.60824 20.929 4.71667 21.9633 6.09323 22.4483C6.95203 22.7509 8.42411 22.7505 9.97912 22.75C12.8187 22.7503 14.5054 22.7505 15.8878 22.2635C18.1078 21.4813 19.8815 19.8185 20.7249 17.6825C21.0061 16.9705 21.1306 16.2058 21.1908 15.289C21.25 14.3882 21.25 13.2756 21.25 11.8573V9.27383C21.2501 7.82574 21.2501 6.65309 21.1402 5.71576C21.0261 4.74236 20.7828 3.90448 20.213 3.18541C19.9178 2.81293 19.5693 2.48415 19.1789 2.2081C18.4341 1.68144 17.5729 1.45835 16.5635 1.35276ZM5.6031 4.08392C5.99629 3.7125 6.55236 3.47071 7.5816 3.33999C8.63309 3.20645 10.0234 3.2046 12 3.2046H12.7524C14.3611 3.2046 15.4922 3.20585 16.3616 3.2968C17.2156 3.38613 17.6995 3.55289 18.0573 3.80593C18.2988 3.97668 18.5111 4.17777 18.6889 4.40212C18.9445 4.72462 19.1139 5.15741 19.2062 5.9442C19.3011 6.75396 19.3027 7.81129 19.3027 9.33474L19.3028 12.2349C19.3028 12.5019 19.3026 13.1405 19.022 13.6127C18.8491 13.9037 18.6276 14.1468 18.4002 14.2706C18.0337 14.4701 17.6135 14.5835 17.1668 14.5835L16.1265 14.547C15.7464 14.5391 15.3028 14.5511 14.8747 14.6658C14.0407 14.8893 13.3893 15.5407 13.1658 16.3747C13.0511 16.8028 13.0391 17.2463 13.047 17.6264L13.0835 18.6668C13.0835 19.1345 12.9591 19.5416 12.7418 19.92C12.6151 20.1406 12.3943 20.3425 12.0896 20.5198C11.6274 20.7887 11.074 20.7912 10.7359 20.7927C10.3977 20.7943 10.0409 20.7954 9.74287 20.7954C7.90875 20.7954 7.24162 20.7815 6.73826 20.6041C5.86563 20.2967 5.19993 19.655 4.88984 18.8697C4.8122 18.673 4.75736 18.4146 4.72792 17.9667C4.69791 17.51 4.69742 16.927 4.69742 16.0868V10.0455C4.69742 8.17343 4.69975 6.87375 4.83914 5.89437C4.97362 4.94948 5.21825 4.44747 5.6031 4.08392Z" fill="#141B34"/>
<path opacity="0.4" fill-rule="evenodd" clip-rule="evenodd" d="M7 7C7 6.44772 7.44772 6 8 6H15C15.5523 6 16 6.44772 16 7C16 7.55228 15.5523 8 15 8H8C7.44772 8 7 7.55228 7 7Z" fill="#141B34"/>
<path opacity="0.4" fill-rule="evenodd" clip-rule="evenodd" d="M7 11C7 10.4477 7.44772 10 8 10H11C11.5523 10 12 10.4477 12 11C12 11.5523 11.5523 12 11 12H8C7.44772 12 7 11.5523 7 11Z" fill="#141B34"/>
</svg>
