<svg width="24" height="24" viewBox="0 0 24 24" fill="none" xmlns="http://www.w3.org/2000/svg">
<path opacity="0.4" d="M9.1033 6.33436C9.16408 6.88329 8.76836 7.37756 8.21943 7.43835C6.80978 7.59444 5.66107 7.86531 4.89485 8.1819C4.5676 8.31712 4.34843 8.44518 4.21442 8.54847C4.23495 8.56414 4.25849 8.58122 4.28543 8.59966C4.55548 8.78451 5.01177 8.99079 5.66553 9.18007C5.85822 9.23585 6.06315 9.28877 6.27928 9.33845C6.35406 9.34635 6.42729 9.36266 6.49766 9.38671C7.70082 9.64238 9.21856 9.80015 10.8872 9.80015C12.9964 9.80015 14.8638 9.54805 16.1594 9.16527C16.689 9.00879 17.2452 9.3113 17.4017 9.84095C17.5582 10.3706 17.2557 10.9268 16.726 11.0833C15.1983 11.5347 13.1305 11.8002 10.8872 11.8002C9.18064 11.8002 7.57629 11.6465 6.23406 11.3746C5.83003 11.5301 5.54527 11.6898 5.36868 11.8307C5.32062 11.8691 5.28641 11.901 5.26231 11.9262C5.31767 11.986 5.43167 12.0851 5.66052 12.2135C6.13396 12.4792 6.87745 12.733 7.84411 12.914C8.73411 13.0806 9.77234 13.1778 10.8872 13.1778C12.5191 13.1778 13.976 12.9696 15.0422 12.6473C15.5709 12.4874 16.129 12.7864 16.2888 13.3151C16.4486 13.8437 16.1496 14.4019 15.621 14.5617C14.3283 14.9525 12.6701 15.1778 10.8872 15.1778C9.80377 15.1778 8.77061 15.0947 7.83964 14.9434C7.686 15.0418 7.58124 15.1325 7.51555 15.2069C7.47396 15.254 7.45498 15.286 7.44671 15.3036C7.45807 15.3283 7.48947 15.3799 7.57118 15.4582C7.73028 15.6107 8.01342 15.7941 8.44553 15.9692C9.30458 16.3174 10.5602 16.5555 11.9983 16.5555C12.7331 16.5555 13.4262 16.4933 14.0461 16.3835C14.5899 16.2872 15.1089 16.65 15.2052 17.1938C15.3015 17.7376 14.9387 18.2565 14.3949 18.3528C13.6537 18.4841 12.8436 18.5555 11.9983 18.5555C10.3681 18.5555 8.84592 18.2896 7.69425 17.8228C7.12101 17.5904 6.59055 17.2886 6.1874 16.9022C5.78163 16.5134 5.44271 15.9732 5.44271 15.3037C5.44271 14.968 5.52431 14.6668 5.66056 14.3982C5.3017 14.2678 4.97262 14.1209 4.68172 13.9576C4.01605 13.5841 3.22049 12.9301 3.22049 11.9261C3.22049 11.3821 3.46014 10.9398 3.76622 10.6C3.54461 10.4924 3.3397 10.376 3.15575 10.2501C2.67099 9.91824 2.10938 9.36057 2.10938 8.54836C2.10938 7.91965 2.45291 7.43956 2.80937 7.11775C3.16737 6.79456 3.63337 6.53913 4.1311 6.33348C5.13393 5.91911 6.48522 5.61816 7.99932 5.4505C8.54825 5.38971 9.04252 5.78544 9.1033 6.33436Z" fill="#141B34"/>
<path opacity="0.4" fill-rule="evenodd" clip-rule="evenodd" d="M20.5304 9.96163C20.2744 9.73315 19.8112 9.54862 19.0105 9.75636C18.4759 9.89506 17.9301 9.57412 17.7914 9.03954C17.6527 8.50495 17.9736 7.95915 18.5082 7.82045C19.8151 7.48138 21.0079 7.70697 21.8622 8.46962C22.692 9.21037 23.0423 10.3161 22.9952 11.4282C22.9 13.6759 21.2223 16.1759 17.8964 17.3841C17.3773 17.5727 16.8036 17.3047 16.6151 16.7857C16.4265 16.2666 16.6944 15.6929 17.2135 15.5043C19.9095 14.5249 20.9416 12.6502 20.997 11.3435C21.0251 10.6785 20.8108 10.212 20.5304 9.96163Z" fill="#141B34"/>
<path fill-rule="evenodd" clip-rule="evenodd" d="M18.5446 1.83577C18.6354 2.38054 18.2673 2.89577 17.7226 2.98655C17.51 3.02198 17.191 3.14946 16.9775 3.37067C16.8113 3.54279 16.6467 3.82634 16.7608 4.39661C17.155 6.3676 16.664 7.75064 15.9762 8.32389C15.552 8.67748 14.9214 8.6202 14.5678 8.19595C14.2142 7.7717 14.2715 7.14113 14.6957 6.78754C14.6792 6.80133 14.6811 6.79784 14.6938 6.77434C14.7546 6.66256 15.0615 6.09817 14.7997 4.78888C14.5581 3.58138 14.9122 2.63037 15.5387 1.98149C16.1177 1.38172 16.8656 1.10179 17.3938 1.01376C17.9386 0.922973 18.4538 1.291 18.5446 1.83577Z" fill="#141B34"/>
<path fill-rule="evenodd" clip-rule="evenodd" d="M14.0934 1.8041C14.2017 2.34566 13.8505 2.87248 13.3089 2.98078C13.1354 3.01549 12.8215 3.15272 12.5918 3.43818C12.3907 3.68815 12.1859 4.13447 12.3213 4.94689C12.5121 6.09166 12.4919 6.92316 12.3237 7.55679C12.1431 8.23713 11.8138 8.60228 11.5978 8.81836C11.2073 9.20891 10.5741 9.20896 10.1836 8.81846C9.79302 8.42797 9.79297 7.7948 10.1835 7.40425L10.1872 7.40053C10.2659 7.32189 10.3352 7.25256 10.3907 7.0436C10.4594 6.78463 10.5133 6.26428 10.3485 5.27572C10.1283 3.9548 10.442 2.91965 11.0336 2.18443C11.5966 1.4847 12.3495 1.13305 12.9167 1.01961C13.4583 0.911307 13.9851 1.26253 14.0934 1.8041Z" fill="#141B34"/>
<path d="M5.48354 15.7012C4.40115 15.9368 3.49439 16.2454 2.79017 16.6256C1.84168 17.1377 1 17.9359 1 19.07C1 19.9702 1.61669 20.617 2.2164 21.0325C2.84622 21.4688 3.69226 21.8215 4.64775 22.1015C6.57189 22.6653 9.17101 23 12 23C14.829 23 17.4281 22.6653 19.3523 22.1015C20.3077 21.8215 21.1538 21.4688 21.7836 21.0325C22.3833 20.617 23 19.9702 23 19.07C23 18.5177 22.5523 18.07 22 18.07C21.4555 18.07 21.0126 18.5052 21.0003 19.0468C20.9884 19.0748 20.925 19.1942 20.6447 19.3884C20.2625 19.6532 19.644 19.9319 18.7899 20.1822C17.0947 20.6789 14.6939 21 12 21C9.30614 21 6.90526 20.6789 5.21012 20.1822C4.35596 19.9319 3.73754 19.6532 3.3553 19.3884C3.08926 19.2041 3.01861 19.0871 3.00197 19.0518C3.01434 18.9826 3.10357 18.7293 3.7403 18.3855C4.40445 18.027 5.46173 17.6942 6.95004 17.4632C6.66692 17.2999 6.40809 17.1137 6.1874 16.9023C5.86529 16.5936 5.5853 16.1896 5.48354 15.7012Z" fill="#141B34"/>
</svg>
